<?xml version="1.0" encoding="utf-8"?>
<!-- Generator: Adobe Illustrator 16.0.0, SVG Export Plug-In . SVG Version: 6.00 Build 0)  -->
<!DOCTYPE svg PUBLIC "-//W3C//DTD SVG 1.1//EN" "http://www.w3.org/Graphics/SVG/1.1/DTD/svg11.dtd">
<svg version="1.1" id="Layer_1" xmlns="http://www.w3.org/2000/svg" xmlns:xlink="http://www.w3.org/1999/xlink" x="0px" y="0px"
	 width="500px" height="500px" viewBox="0 0 500 500" style="enable-background:new 0 0 500 500;" xml:space="preserve">
<style type="text/css">
<![CDATA[
	.st0{fill:#231F20;}
]]>
</style>
<g id="XMLID_4_">
	<g>
		<path class="st0" d="M273.4,492c-33.1,0-42.7-39.7-42.8-40.1c0-0.2-0.1-0.3-0.1-0.4l-0.3-0.7l0.8,0.1c6.6,0.6,13.1,0.9,19.3,0.9
			c15.1,0,30.2-1.7,44.9-5.1c2.6-0.3,5.4-1.1,8.6-2.2c86.5-24,146.9-103.4,146.9-193.1c0-110.5-89.9-200.3-200.3-200.3
			C139.8,51.1,50,140.9,50,251.4C50,295.3,64,337,90.5,372c25.6,33.9,62,59.2,102.5,71.3c0.9,0.4,19.3,8.8,15.7,23.8
			c0,0.1-2.1,16.7-20.6,16.7c-1.8,0-3.6-0.2-5.6-0.4C133.3,469,89,438.5,57.8,397.5C25.6,355.2,8.5,304.6,8.5,251.4
			C8.5,118.1,117,9.6,250.3,9.6S492,118.1,492,251.4c0,60.4-22.5,118.3-63.4,163C388.1,458.8,332.9,486.3,273.4,492L273.4,492
			L273.4,492z"/>
	</g>
	<g>
		<path class="st0" d="M250.3,452.8c-6.4,0-13-0.3-19.4-0.9l-0.4,0l-0.1-0.4c-6-29.3,0-126.5,0.1-127.5l0.3-1.4l0.5,0
			c6.1,0.6,12.6,0.9,19.4,0.9c6.6,0,13-0.3,18.8-0.8l0.6-0.1l0,0.6c-0.8,11.6-2.3,43.2-0.9,86.8c0,0.3-1.6,20.9,7.9,31.2
			c3.6,3.9,8.3,5.8,14,5.8c1.3,0,2.7-0.1,4.1-0.3l0.2,1C280.8,451,265.6,452.8,250.3,452.8z"/>
	</g>
	<g>
		<path class="st0" d="M294.7,446.7l0.5-0.1c2.8-0.6,5.6-1.4,8.6-2.2l0.3,0.9c-3.1,1.2-6,1.9-8.7,2.3l-0.5,0.1L294.7,446.7z"/>
	</g>
	<g>
		<path class="st0" d="M250.7,324.5c-6.9,0-13.5-0.3-19.5-0.9c-7.3-0.8-13.7-2-19.2-3.7c-9.8-3.1-17.5-7.2-23-12.4
			c-5.4-5.1-9.1-11.1-11-17.9c-1.9-6.7-2.8-13.7-2.8-21V247l40.1,0h110.8l0,21.6c0,7.2-0.9,14.2-2.8,21c-1.9,6.8-5.6,12.8-11,17.9
			c-5.4,5.1-13.1,9.3-23,12.4c-5.5,1.7-12,3-19.7,3.8C263.7,324.2,257.4,324.5,250.7,324.5z"/>
	</g>
	<g>
		<path class="st0" d="M215.3,248.1c-8.1,0-14.6-4.1-14.6-9.2v-19.7l29.9,0l0,19.8C230.6,243.9,223.6,248.1,215.3,248.1L215.3,248.1
			z"/>
	</g>
	<g>
		<path class="st0" d="M284.5,248.1c-8,0-14.6-4.1-14.6-9.2v-19.7l29.9,0l0,19.8C299.8,243.9,292.8,248.1,284.5,248.1L284.5,248.1z"
			/>
	</g>
	<g>
		<path class="st0" d="M174.1,248.1c-10.8,0-19.5-6.5-19.5-14.6c0-8.3,8.9-15.3,19.5-15.3h27.6l0.1,2l-25.6,0l0,27.9H174.1z"/>
	</g>
	<g>
		<path class="st0" d="M175.3,248.1l0-28.9l26.5,0l0,19.8c0,4.5,6.1,8.1,13.5,8.1h0.5v1l-0.5,0.1H175.3z"/>
	</g>
	<g>
		<path class="st0" d="M215.4,248.1l0-1c7.7-0.1,14.2-3.8,14.2-8.2v-19.7l41.4,0l0,19.8c0,4.5,6.1,8.1,13.5,8.1h0.5v1l-0.5,0.1
			H215.4z"/>
	</g>
	<g>
		<path class="st0" d="M284.6,248.1l0-1c7.7-0.1,14.2-3.8,14.2-8.2v-19.7l27.4,0l0,28.9H284.6z"/>
	</g>
	<g>
		<path class="st0" d="M325.1,248.1l0-27.9l-26.3,0l-0.1-2l27.7,0c10.6,0,19.5,7,19.5,15.2c0,8.1-8.8,14.6-19.5,14.6H325.1z"/>
	</g>
	<g>
		<polygon class="st0" points="200.8,220.2 200.7,218.2 230.6,218.2 230.7,220.2 		"/>
	</g>
	<g>
		<polygon class="st0" points="229.6,220.2 229.6,218.2 271,218.2 271,220.2 		"/>
	</g>
	<g>
		<polygon class="st0" points="270,220.2 269.9,218.2 299.8,218.2 299.8,220.2 		"/>
	</g>
	<g>
		<path class="st0" d="M200.8,219.2l0-49.6c0-5,6.5-9.2,14.6-9.2c8.3,0,15.3,4.2,15.3,9.2v49.6H200.8z"/>
	</g>
	<g>
		<path class="st0" d="M270,219.2l0-49.6c0-5,6.5-9.2,14.6-9.2c8.3,0,15.3,4.2,15.3,9.2v49.6H270z"/>
	</g>
</g>
</svg>
