<?xml version="1.0" standalone="no"?>
<!DOCTYPE svg PUBLIC "-//W3C//DTD SVG 1.1//EN" "http://www.w3.org/Graphics/SVG/1.1/DTD/svg11.dtd" >
<svg xmlns="http://www.w3.org/2000/svg">
<metadata></metadata>
<defs>
<font id="baufrabold" horiz-adv-x="501" >
<font-face units-per-em="2048" ascent="1536" descent="-512" />
<missing-glyph horiz-adv-x="628" />
<glyph unicode="&#xfb01;" horiz-adv-x="1302" d="M102 781v243h149v97q0 163 118 247t317 84h65v-223h-65q-176 0 -176 -108v-97h240v-243h-240v-781h-259v781h-149zM841 1264q0 61 44 104.5t105 43.5t104.5 -43.5t43.5 -104.5t-43.5 -105t-104.5 -44t-105 44t-44 105zM865 0v1024h251v-1024h-251z" />
<glyph unicode="&#xfb02;" horiz-adv-x="1280" d="M102 781v243h149v97q0 163 118 247t317 84h65v-223h-65q-176 0 -176 -108v-97h240v-243h-240v-781h-259v781h-149zM908 0v1434h251v-1434h-251z" />
<glyph horiz-adv-x="2048" />
<glyph horiz-adv-x="2048" />
<glyph unicode="&#xd;" horiz-adv-x="2048" />
<glyph unicode=" "  horiz-adv-x="628" />
<glyph unicode="&#x09;" horiz-adv-x="628" />
<glyph unicode="&#xa0;" horiz-adv-x="628" />
<glyph unicode="!" d="M102 128q0 61 44 105t105 44t105 -44t44 -105q0 -62 -44 -105t-105 -43t-105 43t-44 105zM123 387v1049h258v-1049h-258z" />
<glyph unicode="&#x22;" horiz-adv-x="872" d="M103 1303q0 61 43.5 105t104.5 44t105 -44t44 -105q0 -20 -4 -45.5t-21 -69t-45 -77t-84 -59t-130 -25.5q81 60 115 129q-55 8 -91.5 49.5t-36.5 97.5zM472 1303q0 61 44 105t105 44t105 -44t44 -105q0 -20 -4 -45.5t-21 -69t-45 -77t-84 -59t-130 -25.5q81 60 115 129 q-55 8 -92 49.5t-37 97.5z" />
<glyph unicode="#" horiz-adv-x="1411" d="M102 356l56 250h182l34 163h-182l57 250h179l89 415h258l-89 -415h175l89 415h259l-89 -415h188l-55 -250h-186l-35 -163h187l-54 -250h-186l-75 -356h-259l75 356h-175l-75 -356h-258l75 356h-185zM598 606h175l35 163h-175z" />
<glyph unicode="$" horiz-adv-x="1165" d="M113 203l160 189q117 -121 243 -150v401l-34 12q-327 117 -327 370q0 175 103 289t258 134v88h141v-91q176 -30 311 -165l-160 -180q-73 66 -151 88v-341l63 -21q59 -17 115 -50.5t106.5 -83.5t81 -124t30.5 -160q0 -172 -112.5 -287.5t-283.5 -133.5v-100h-141v102 q-223 35 -403 214zM430 1035q0 -87 86 -132v274q-39 -21 -62.5 -58.5t-23.5 -83.5zM657 244q62 18 99.5 63.5t37.5 100.5q0 118 -137 181v-345z" />
<glyph unicode="%" horiz-adv-x="1495" d="M118 1173q0 115 82 197t197 82t197 -82t82 -197t-82 -197t-197 -82t-197 82t-82 197zM260 0l745 1434h226l-746 -1434h-225zM320 1173q0 -34 21.5 -56.5t55.5 -22.5t56 22.5t22 56.5t-22 55.5t-56 21.5t-55.5 -21.5t-21.5 -55.5zM832 262q0 116 82 197.5t197 81.5 t197 -81.5t82 -197.5q0 -115 -81.5 -196.5t-197.5 -81.5t-197.5 81.5t-81.5 196.5zM1033 261q0 -34 22 -56t56 -22t55.5 22t21.5 56t-21.5 56t-55.5 22t-56 -22t-22 -56z" />
<glyph unicode="&#x26;" horiz-adv-x="1572" d="M112 407q0 82 24.5 151.5t70.5 123t98 93t122 77.5q-93 110 -123.5 188.5t-22.5 153.5q14 123 119 191.5t246 66.5q74 0 142 -21t123.5 -61t89 -104.5t33.5 -143.5q0 -78 -49 -164.5t-146 -149.5l181 -214q23 67 37 122h280q-37 -197 -125 -349l308 -367h-347l-131 158 q-201 -176 -460 -176q-110 1 -201.5 38t-149 97.5t-88.5 135.5t-31 154zM373 412q0 -86 60 -137t149 -51q180 0 298 125l-274 327q-9 -6 -40 -27t-40.5 -27.5t-35 -25t-34 -27.5t-26.5 -26t-25 -29.5t-16.5 -30t-12.5 -35t-3 -36.5zM542 1137q-1 -8 1 -17t6.5 -19t9 -19 t13 -20.5t14 -19t16 -20t16 -18.5l16.5 -18t14 -16q88 56 111.5 86.5t23.5 65.5q0 44 -38.5 69.5t-90.5 25.5q-45 0 -77 -21t-35 -59z" />
<glyph unicode="'" d="M103 1303q0 61 43.5 105t104.5 44t105 -44t44 -105q0 -20 -4 -45.5t-21 -69t-45 -77t-84 -59t-130 -25.5q81 60 115 129q-55 8 -91.5 49.5t-36.5 97.5z" />
<glyph unicode="(" horiz-adv-x="800" d="M102 612q0 168 45 326t116.5 272t157 193t169.5 106l106 -109q-140 -109 -237.5 -321t-97.5 -467q0 -256 97.5 -464t239.5 -321l-108 -114q-85 32 -170 111.5t-156.5 193t-116.5 270t-45 324.5z" />
<glyph unicode=")" horiz-adv-x="800" d="M102 -173q142 113 240 321t98 464q0 254 -97.5 466.5t-236.5 321.5l107 109q84 -27 169 -106t156 -193t115.5 -272t44.5 -326t-44.5 -324.5t-115.5 -270t-155.5 -193t-169.5 -111.5z" />
<glyph unicode="*" horiz-adv-x="1193" d="M102 1078l130 223l233 -131v298h259v-302l240 137l128 -225l-286 -162l217 -259l-197 -167l-217 260l-217 -260l-199 167l209 251z" />
<glyph unicode="+" horiz-adv-x="1181" d="M102 495v251h363v362h252v-362h363v-251h-363v-362h-252v362h-363z" />
<glyph unicode="," d="M103 128q0 61 43.5 105t104.5 44t105 -44t44 -105q0 -20 -4 -45.5t-21 -69t-45 -77t-84 -59t-130 -25.5q81 60 115 129q-55 8 -91.5 49.5t-36.5 97.5z" />
<glyph unicode="-" horiz-adv-x="907" d="M102 491v251h702v-251h-702z" />
<glyph unicode="." d="M102 128q0 61 44 105t105 44t105 -44t44 -105q0 -62 -44 -105t-105 -43t-105 43t-44 105z" />
<glyph unicode="/" horiz-adv-x="1120" d="M102 0l646 1434h270l-645 -1434h-271z" />
<glyph unicode="0" horiz-adv-x="1409" d="M164 660q0 177 44 316t119.5 223t170 127.5t202.5 43.5q86 0 165 -26.5t148.5 -83.5t121 -139t81 -200.5t29.5 -260.5q0 -151 -45.5 -277.5t-121.5 -209t-174 -128.5t-204 -46q-109 0 -206 45.5t-170.5 129t-116.5 209.5t-43 277zM432 660q0 -199 72.5 -300.5 t195.5 -101.5q57 0 106 23.5t88.5 70t62 126t22.5 182.5q0 100 -14.5 178t-39.5 128.5t-60.5 83.5t-76 46.5t-88.5 13.5q-268 0 -268 -450z" />
<glyph unicode="1" horiz-adv-x="673" d="M204 0v1352h266v-1352h-266z" />
<glyph unicode="2" horiz-adv-x="1146" d="M132 0v208q6 93 35.5 173t74 142t111.5 117.5t137 97.5t160 85q101 47 107 137q5 63 -37 113q-47 57 -146 60q-131 4 -232 -102l-175 174q85 77 189 120t209 46q200 6 332 -124q54 -53 85.5 -129t30.5 -158q-2 -102 -58.5 -189t-170.5 -144q-95 -47 -157.5 -85.5 t-114 -84t-76 -96t-24.5 -110.5h595v-251h-875z" />
<glyph unicode="3" horiz-adv-x="1122" d="M132 143l189 189q44 -43 107 -66.5t128 -23.5q83 0 137 43.5t54 119.5q0 36 -14.5 64.5t-48.5 52.5t-97 38t-153 16h-35v237l34 2q174 1 243.5 39.5t69.5 118.5q0 64 -54.5 104.5t-134.5 40.5q-65 0 -128.5 -24t-107.5 -67l-189 188q204 161 462 161q181 0 302 -98.5 t121 -267.5q0 -123 -73 -204t-191 -102q119 -18 192 -111.5t73 -242.5q0 -171 -121 -269.5t-304 -98.5q-257 0 -461 161z" />
<glyph unicode="4" horiz-adv-x="1177" d="M113 338v272l580 742h274v-765h108v-251h-108v-336h-258v338h-596zM384 587h325v415z" />
<glyph unicode="5" horiz-adv-x="1142" d="M151 133q87 -70 200 -109.5t232 -39.5q181 -1 304 121.5t123 293.5q0 90 -26 170.5t-76 145.5t-134 103t-190 37h-122v252h490v245h-743v-748h329q104 0 159.5 -44t55.5 -150q0 -74 -51 -124.5t-124 -49.5q-54 0 -107 18t-132 65z" />
<glyph unicode="6" horiz-adv-x="1148" d="M113 446q-34 243 48 445t253 327q211 152 483 152v-252q-202 0 -333 -85q-99 -65 -150 -173q83 49 181 49q63 -1 124 -20.5t114.5 -59.5t94.5 -94.5t64.5 -129t23.5 -159.5q0 -88 -29 -169.5t-83 -147.5t-141.5 -105.5t-195.5 -39.5q-188 0 -307 130.5t-147 331.5z M373 449q2 -90 58 -151.5t134 -61.5q88 0 139 62.5t51 148.5q0 87 -50.5 149.5t-139.5 62.5q-90 0 -141 -58.5t-51 -151.5z" />
<glyph unicode="7" horiz-adv-x="1085" d="M102 1101v251h921l-606 -1352h-288l492 1101h-519z" />
<glyph unicode="8" horiz-adv-x="1134" d="M105 376q0 104 66.5 200.5t178.5 133.5q-111 48 -157 128t-46 194q0 111 63 191t156.5 116.5t201.5 36.5q79 0 153 -21.5t134.5 -62.5t97 -108.5t36.5 -151.5q0 -120 -42.5 -199t-151.5 -123q112 -39 173.5 -133t61.5 -201q0 -104 -43 -183.5t-113 -123.5t-148 -65.5 t-160 -21.5q-63 0 -125 12.5t-123.5 42.5t-108 74t-75.5 112.5t-29 152.5zM392 391q0 -76 46 -122t130 -47q87 1 131.5 46t44.5 123q0 26 -8.5 52t-27 50.5t-55 40t-85.5 16.5q-50 -1 -86.5 -16.5t-54.5 -40.5t-26.5 -50.5t-8.5 -51.5zM417 1006q0 -56 35 -93t116 -37 q80 0 115.5 37t35.5 93t-38.5 92.5t-112.5 36.5q-71 0 -111 -36.5t-40 -92.5z" />
<glyph unicode="9" horiz-adv-x="1150" d="M134 907q0 88 29 170t83.5 148t142 105.5t195.5 39.5q95 0 175 -36.5t136 -100t92.5 -146.5t49.5 -180q34 -243 -48 -445t-253 -327q-206 -151 -481 -151v252q152 0 268 51q143 66 213 207q-81 -50 -179 -50q-80 0 -155.5 32t-135 89.5t-96 146.5t-36.5 195zM394 907 q0 -87 52 -149.5t139 -62.5q91 0 142.5 58t51.5 152q-2 90 -59 151.5t-135 61.5q-87 0 -139 -63t-52 -148z" />
<glyph unicode=":" d="M102 128q0 61 44 105t105 44t105 -44t44 -105q0 -62 -44 -105t-105 -43t-105 43t-44 105zM102 645q0 61 44 105t105 44t105 -44t44 -105q0 -62 -44 -105t-105 -43t-105 43t-44 105z" />
<glyph unicode=";" d="M102 128q0 61 44 105t105 44t105 -44t44 -105q0 -20 -4 -45.5t-21 -69t-45 -77t-84 -59t-130 -25.5q81 60 115 129q-55 8 -92 49.5t-37 97.5zM102 645q0 61 44 105t105 44t105 -44t44 -105q0 -62 -44 -105.5t-105 -43.5t-105 43.5t-44 105.5z" />
<glyph unicode="&#x3c;" horiz-adv-x="983" d="M104 599v138l774 422v-292l-404 -200l404 -200v-292z" />
<glyph unicode="=" horiz-adv-x="1181" d="M102 198v251h978v-251h-978zM102 580v250h978v-250h-978z" />
<glyph unicode="&#x3e;" horiz-adv-x="978" d="M102 175v292l405 200l-405 200v292l775 -422v-138z" />
<glyph unicode="?" horiz-adv-x="1050" d="M102 1285q82 74 181 116.5t201 48.5q210 13 346 -122q52 -50 83.5 -122t33.5 -150q3 -106 -51.5 -197t-171.5 -150q-34 -17 -49.5 -25t-37.5 -23.5t-30.5 -30.5t-18.5 -39t-13 -55.5t-3 -75.5h-266q0 81 11.5 141.5t31.5 104t57.5 79.5t78 61.5t105.5 57.5q50 25 76 64.5 t26 84.5q0 57 -37 100q-23 28 -66 44.5t-93 15.5q-126 -3 -220 -102zM294 128q0 61 43 105t105 44q61 0 105 -44t44 -105q0 -62 -44 -105t-105 -43q-62 0 -105 43t-43 105z" />
<glyph unicode="@" horiz-adv-x="1853" d="M105 545q0 106 9.5 195t34.5 178.5t65 160.5t104 133t148 103.5t200.5 65t258.5 23.5q152 0 273 -24t206.5 -64.5t148 -104t99.5 -132.5t59 -161.5t29.5 -179t7.5 -195.5v-329q0 -135 -90 -215t-232 -80q-145 0 -240.5 72.5t-108.5 192.5q-94 -64 -209 -64 q-177 0 -285 119t-108 309q0 200 107 313t286 113q133 0 209 -68v55h217v-710q3 -63 33 -88t94 -25q46 0 62 35t16 108v260q0 78 -5.5 138.5t-20.5 126t-40 113t-68.5 92.5t-103 73t-144.5 44.5t-192 16.5q-101 0 -183.5 -16.5t-141.5 -45t-103 -72.5t-71.5 -93t-44 -112.5 t-23 -125.5t-6.5 -137q0 -106 13 -190t49.5 -165.5t97 -135.5t161 -87t236.5 -33h48l236 -235q-91 -24 -292 -24q-137 0 -249.5 24t-194 66.5t-143.5 106t-101.5 135.5t-64 163t-34 181t-9.5 196zM722 546q0 -188 178 -188q38 0 80 12t66 35v289q-21 17 -63.5 26t-82.5 9 q-95 0 -136.5 -46.5t-41.5 -136.5z" />
<glyph unicode="A" horiz-adv-x="1607" d="M101 0l561 1434h283l561 -1434h-281l-129 330h-585l-129 -330h-281zM616 597h375l-187 510z" />
<glyph unicode="B" horiz-adv-x="1372" d="M206 0v1434h609q165 0 281 -115t116 -279q0 -85 -33.5 -160t-93.5 -129q85 -55 135 -145t50 -196q0 -170 -121 -290t-292 -120h-651zM480 258h317q82 0 137.5 47.5t55.5 124.5q0 76 -55.5 123.5t-137.5 47.5h-317v-343zM480 860h263q82 0 135 42t53 116q0 75 -53 117 t-135 42h-263v-317z" />
<glyph unicode="C" horiz-adv-x="1468" d="M166 717q0 151 59 287.5t159 234.5t236.5 155.5t286.5 57.5q260 0 459 -162l-184 -183q-124 85 -275 85q-198 0 -335.5 -138.5t-137.5 -336.5q0 -130 62.5 -239.5t171.5 -173.5t239 -64q148 0 275 87l184 -186q-197 -159 -459 -159q-150 0 -286.5 57.5t-236.5 155.5 t-159 234.5t-59 287.5z" />
<glyph unicode="D" horiz-adv-x="1652" d="M206 0v1434h540q200 0 370.5 -96.5t270.5 -262t100 -358.5t-100 -358.5t-270.5 -262t-370.5 -96.5h-540zM472 260h274q196 0 334.5 135.5t138.5 321.5t-138.5 321t-334.5 135h-274v-913z" />
<glyph unicode="E" horiz-adv-x="1167" d="M206 0v1434h838v-247h-572v-333h553v-246h-553v-361h592v-247h-858z" />
<glyph unicode="F" horiz-adv-x="1134" d="M206 0v1434h826v-247h-560v-360h525v-246h-525v-581h-266z" />
<glyph unicode="G" horiz-adv-x="1560" d="M164 717q0 151 59 287.5t159 234.5t236.5 155.5t286.5 57.5q260 0 459 -162l-184 -183q-124 85 -275 85q-198 0 -335.5 -138.5t-137.5 -336.5t137.5 -336.5t335.5 -138.5q103 0 194 41v401h266v-541q-204 -161 -460 -161q-150 0 -286.5 57.5t-236.5 155.5t-159 234.5 t-59 287.5z" />
<glyph unicode="H" horiz-adv-x="1538" d="M206 0v1434h266v-562h594v564h267v-1436h-267v614h-594v-614h-266z" />
<glyph unicode="I" horiz-adv-x="677" d="M206 0v1434h266v-1434h-266z" />
<glyph unicode="J" horiz-adv-x="1064" d="M102 -16v258h32h16q79 0 138 9q65 10 125.5 39t98 80t60 136t22.5 202v726h266v-726q0 -164 -35.5 -289.5t-98 -207.5t-156 -133.5t-200.5 -73.5q-102 -20 -228 -20h-12h-28z" />
<glyph unicode="K" horiz-adv-x="1478" d="M206 0v1434h268v-592l516 592h308l-483 -555l562 -879h-314l-429 672l-160 -183v-489h-268z" />
<glyph unicode="L" horiz-adv-x="1110" d="M206 0v1434h268v-1183h534v-251h-802z" />
<glyph unicode="M" horiz-adv-x="1851" d="M206 0v1434h307l413 -513l412 513h308v-1434h-267v1078l-453 -544l-454 546v-1080h-266z" />
<glyph unicode="N" horiz-adv-x="1640" d="M206 0v1434h307l655 -1016v1016h266v-1434h-307l-655 1017v-1017h-266z" />
<glyph unicode="O" horiz-adv-x="1810" d="M164 717q0 151 59 287.5t159 234.5t236.5 155.5t286.5 57.5t286.5 -57.5t236.5 -155.5t159 -234.5t59 -287.5t-59 -287.5t-159 -234.5t-236.5 -155.5t-286.5 -57.5t-286.5 57.5t-236.5 155.5t-159 234.5t-59 287.5zM432 717q0 -198 137.5 -336.5t335.5 -138.5 t336.5 138.5t138.5 336.5t-138.5 336.5t-336.5 138.5t-335.5 -138.5t-137.5 -336.5z" />
<glyph unicode="P" horiz-adv-x="1351" d="M208 0v1436h507h4q227 0 347 -124q122 -126 122 -338q0 -100 -28 -182.5t-84 -146t-147 -98.5t-210 -35h-247v-512h-264zM474 772h227q108 0 164.5 57.5t56.5 146.5q0 84 -63.5 141.5t-155.5 57.5h-229v-403z" />
<glyph unicode="Q" horiz-adv-x="1814" d="M164 717q0 151 59 287.5t159 234.5t236.5 155.5t286.5 57.5t286.5 -57.5t236.5 -155.5t159 -234.5t59 -287.5q0 -230 -128 -415l132 -131l-188 -189l-133 132q-190 -132 -424 -132q-150 0 -286.5 57.5t-236.5 155.5t-159 234.5t-59 287.5zM432 717q0 -198 137.5 -336.5 t335.5 -138.5t336.5 138.5t138.5 336.5t-138.5 336.5t-336.5 138.5t-335.5 -138.5t-137.5 -336.5z" />
<glyph unicode="R" horiz-adv-x="1415" d="M206 0v1436h533q219 0 333 -120t114 -316q0 -161 -80.5 -273t-234.5 -147l380 -580h-312l-367 564h-102v-564h-264zM472 823h255q94 0 143.5 50t49.5 127q0 74 -55.5 125.5t-135.5 51.5h-257v-354z" />
<glyph unicode="S" horiz-adv-x="1144" d="M103 203l160 189q155 -158 309 -158h8q89 0 147 52t58 123q0 137 -195 203l-115 42q-329 116 -329 372q0 98 35 180t95 136t138 83q73 27 154 27h11q214 -7 379 -172l-160 -180q-109 98 -206 98h-13q-70 -3 -114.5 -50.5t-44.5 -112.5q0 -66 41.5 -102t136.5 -69l116 -38 q59 -17 114 -50.5t105 -83.5t80 -123.5t30 -159.5q0 -191 -134 -309q-132 -117 -323 -116h-6q-122 3 -245.5 57.5t-231.5 161.5z" />
<glyph unicode="T" horiz-adv-x="1206" d="M101 1185v249h1004v-247h-368v-1187h-266v1185h-370z" />
<glyph unicode="U" horiz-adv-x="1615" d="M206 549v885h268v-849q0 -145 99 -245t240 -100q143 0 241.5 100t98.5 245v849h269v-885q0 -111 -44 -213.5t-121.5 -181t-193.5 -125.5t-250 -47t-249 47t-192.5 125.5t-121.5 181.5t-44 213z" />
<glyph unicode="V" horiz-adv-x="1601" d="M102 1434h274l424 -1072l425 1072h276l-557 -1434h-286z" />
<glyph unicode="W" horiz-adv-x="2240" d="M101 1434h275l305 -974l301 974h277l300 -974l304 974h276l-435 -1434h-289l-295 979l-297 -979h-286z" />
<glyph unicode="X" horiz-adv-x="1505" d="M102 0l478 750l-437 684h301l311 -495l309 495h300l-435 -689l476 -745h-302l-350 556l-352 -556h-299z" />
<glyph unicode="Y" horiz-adv-x="1474" d="M101 1434h291l345 -606l346 606h290l-503 -862v-572h-267v570z" />
<glyph unicode="Z" horiz-adv-x="1200" d="M103 0v249l698 938h-679v247h975v-249l-696 -938h697v-247h-995z" />
<glyph unicode="[" horiz-adv-x="595" d="M102 -287v1823h392v-251h-133v-1321h133v-251h-392z" />
<glyph unicode="\" horiz-adv-x="1120" d="M102 1434h271l645 -1434h-270z" />
<glyph unicode="]" horiz-adv-x="595" d="M102 -36h134v1321h-134v251h392v-1823h-392v251z" />
<glyph unicode="^" horiz-adv-x="1187" d="M102 586l425 774h137l422 -774h-292l-200 404l-200 -404h-292z" />
<glyph unicode="_" horiz-adv-x="1181" d="M102 -82h978v-250h-978v250z" />
<glyph unicode="`" horiz-adv-x="669" d="M102 1434h300l166 -304h-235z" />
<glyph unicode="a" horiz-adv-x="1120" d="M104 331q0 147 106 237q102 87 279 86h16q112 -3 247 -47q0 85 -65.5 140t-179.5 55q-160 0 -272 -67l-89 201q152 106 395 106q115 0 207 -36t149.5 -98t87.5 -140t30 -166v-602h-229v76q-33 -35 -123.5 -63.5t-187.5 -28.5q-107 0 -189 36t-132 115.5t-50 195.5z M361 323q0 -87 145 -87q94 0 247 48v98q-145 39 -246 39q-76 -1 -111 -30.5t-35 -67.5z" />
<glyph unicode="b" horiz-adv-x="1241" d="M165 0v1434h258v-478q92 79 239 82h7q62 0 122 -16q63 -17 123.5 -57.5t105.5 -100.5q44 -60 71 -156q25 -89 25 -198v-16q-2 -115 -29.5 -205t-71 -146.5t-103 -93t-120.5 -51t-128 -14.5q-79 0 -152 29t-116 77v-90h-231zM423 309q47 -51 97 -70.5t111 -19.5 q112 0 167.5 75t55.5 200q0 79 -22.5 146t-74 112.5t-124.5 45.5q-115 0 -210 -67v-422z" />
<glyph unicode="c" horiz-adv-x="1101" d="M125 512q0 145 72 266.5t194 191.5t266 70q187 0 330 -114l-182 -182q-68 44 -148 44q-115 0 -194.5 -80t-79.5 -196t79.5 -196t194.5 -80q80 0 148 44l182 -182q-143 -114 -330 -114q-144 0 -266 69.5t-194 191t-72 267.5z" />
<glyph unicode="d" horiz-adv-x="1241" d="M125 494v16q0 108 25 198q27 96 71.5 156t105 100.5t123.5 57.5q60 16 122 16h7q147 -3 239 -82v478h258v-1434h-231v90q-43 -48 -116 -77t-152 -29q-67 0 -128 14.5t-120.5 51t-103 93t-71 146.5t-29.5 205zM387 494q0 -125 55.5 -200t167.5 -75q61 0 111 19.5t97 70.5 v422q-95 67 -210 67q-73 0 -124.5 -45.5t-74 -112.5t-22.5 -146z" />
<glyph unicode="e" horiz-adv-x="1253" d="M125 512q0 143 70.5 264.5t192 192.5t265.5 71q209 0 351 -137q106 -102 131 -233q6 -32 6 -61q0 -81 -48 -134q-52 -59 -151 -59h-520q0 -91 74 -140.5t179 -49.5q120 0 203 55l184 -182q-143 -115 -375 -115q-107 1 -205 33.5t-179 95t-129.5 166t-48.5 233.5zM424 653 h372q34 0 48 14q11 10 11 24q1 5 -1 11q-6 20 -29 41q-62 62 -172 62q-98 0 -163 -49.5t-66 -102.5z" />
<glyph unicode="f" horiz-adv-x="854" d="M102 781v243h149v97q0 163 118 247t317 84h65v-223h-65q-176 0 -176 -108v-97h240v-243h-240v-781h-259v781h-149z" />
<glyph unicode="g" horiz-adv-x="1243" d="M125 530q2 115 29.5 205.5t71 146.5t103.5 92.5t120.5 51t127.5 14.5q79 0 152 -29t116 -77v90h233v-894q0 -247 -112 -376q-106 -121 -335 -121h-25q-173 7 -370 69v209q227 -53 350 -53h20q110 4 160.5 53t59.5 151q-39 -43 -100 -58.5t-147 -17.5q-67 0 -129.5 16.5 t-123 57t-105 101t-71.5 155.5q-25 89 -25 198v16zM387 530q0 -79 22.5 -146t74 -112t124.5 -45q114 0 210 68v420q-47 51 -97 70.5t-111 19.5q-112 0 -167.5 -75t-55.5 -200z" />
<glyph unicode="h" horiz-adv-x="1314" d="M175 0v1434h252v-491q134 95 290 95h10q69 -1 131 -22t117.5 -65.5t95.5 -110t63.5 -161.5t23.5 -214v-465h-258v467q0 173 -64.5 254.5t-175.5 81.5q-107 0 -223 -69v-734h-262z" />
<glyph unicode="i" horiz-adv-x="591" d="M155 1264q0 61 43.5 104.5t104.5 43.5t105 -43.5t44 -104.5t-44 -105t-105 -44t-104.5 44t-43.5 105zM179 0v1024h251v-1024h-251z" />
<glyph unicode="j" horiz-adv-x="843" d="M165 -145h40q115 0 158.5 63.5t43.5 195.5v910h250v-910q-1 -116 -25 -204t-76.5 -153.5t-140.5 -98.5q-83 -30 -196 -30h-14h-40v227zM383 1264q0 61 43.5 104.5t104.5 43.5q62 0 105.5 -43.5t43.5 -104.5t-43.5 -105t-105.5 -44q-61 0 -104.5 44t-43.5 105z" />
<glyph unicode="k" horiz-adv-x="1216" d="M175 0v1434h260v-703l267 293h340l-341 -376l433 -648h-304l-307 453l-88 -95v-358h-260z" />
<glyph unicode="l" horiz-adv-x="579" d="M175 0v1434h251v-1434h-251z" />
<glyph unicode="m" horiz-adv-x="2023" d="M165 0v1024h252v-81q116 86 262 95q14 1 27 1q93 0 175 -36q94 -41 160 -131q181 163 379 166h11q83 0 157 -30q78 -32 142.5 -98t101.5 -180.5t37 -264.5v-465h-259v467q0 173 -64 255q-62 81 -166 81h-5q-120 0 -255 -99q28 -100 28 -216v-23v-465h-259v467 q0 176 -65 257q-63 79 -171 79h-5q-108 -3 -221 -69v-734h-262z" />
<glyph unicode="n" horiz-adv-x="1304" d="M165 0v1024h252v-81q133 96 290 96q14 0 27 -1q85 -5 158 -40t131 -102t91.5 -177.5t33.5 -253.5v-465h-259v467q0 175 -65 257q-63 80 -170 79h-8q-105 -3 -219 -69v-734h-262z" />
<glyph unicode="o" horiz-adv-x="1314" d="M125 512q0 145 72 266.5t194 191.5t266 70t266 -70t194 -191.5t72 -266.5q0 -146 -72 -267.5t-194 -191t-266 -69.5t-266 69.5t-194 191t-72 267.5zM383 512q0 -116 79.5 -196t194.5 -80t194.5 80t79.5 196t-79.5 196t-194.5 80t-194.5 -80t-79.5 -196z" />
<glyph unicode="p" horiz-adv-x="1241" d="M165 -406v1430h231v-90q43 48 116 77t152 29q67 0 127.5 -14.5t120.5 -51t103.5 -92.5t71 -146.5t29.5 -205.5v-16q0 -109 -25 -198q-27 -95 -71.5 -155.5t-105 -101t-123 -57t-129.5 -16.5q-142 3 -239 82v-474h-258zM423 293q97 -67 210 -67q73 0 124.5 45.5t74 112.5 t22.5 146q0 125 -55.5 200t-167.5 75q-61 0 -111 -19.5t-97 -70.5v-422z" />
<glyph unicode="q" horiz-adv-x="1241" d="M125 530q2 115 29.5 205.5t71 146.5t103.5 92.5t120.5 51t127.5 14.5q79 0 152 -29t116 -77v90h231v-1430h-258v474q-97 -79 -239 -82q-67 0 -129.5 16.5t-123 57t-105 101t-71.5 155.5q-25 89 -25 198v16zM387 530q0 -79 22.5 -146t74 -112.5t124.5 -45.5q113 0 210 67 v422q-47 51 -97 70.5t-111 19.5q-112 0 -167.5 -75t-55.5 -200z" />
<glyph unicode="r" horiz-adv-x="1071" d="M165 0v1024h252v-151q51 73 136 119t181 46q141 0 255 -106l-185 -187q-67 62 -145 62h-7q-109 -3 -225 -144v-663h-262z" />
<glyph unicode="s" horiz-adv-x="944" d="M102 189l160 163q50 -49 113.5 -83t110.5 -35q41 0 66 17t30 44q6 25 -2.5 45t-33 36.5t-49.5 27.5t-67 26q-48 17 -78.5 30t-72 38.5t-66 54t-42 73t-17.5 99.5q0 133 93.5 224.5t225.5 91.5h7q102 0 168 -30q68 -31 162 -112l-164 -166q-68 53 -140 57q-33 1 -57.5 -10 t-32.5 -30q-11 -25 9.5 -49.5t76.5 -43.5q181 -61 260.5 -141.5t79.5 -216.5q0 -143 -99.5 -231t-254.5 -88q-70 0 -134 21t-112 55.5t-81 66t-59 66.5z" />
<glyph unicode="t" horiz-adv-x="849" d="M102 781v243h146v254h260v-254h240v-243h-242v-466q0 -108 177 -108h65v-225h-65q-198 0 -316.5 85t-118.5 248v466h-146z" />
<glyph unicode="u" horiz-adv-x="1304" d="M156 559v465h259v-465q1 -175 65 -257q63 -81 172 -81h5q100 3 221 72v731h263v-1024h-253v83q-133 -98 -292 -98q-14 0 -27 1q-67 4 -127 26.5t-113 68t-91 110.5t-60 159t-22 209z" />
<glyph unicode="v" horiz-adv-x="1212" d="M83 1024h250l275 -701l272 701h250l-398 -1024h-251z" />
<glyph unicode="w" horiz-adv-x="1685" d="M83 1024h250l192 -617l191 617h253l191 -617l191 617h251l-318 -1024h-251l-191 619l-191 -617h-251z" />
<glyph unicode="x" horiz-adv-x="1212" d="M83 0l359 522l-359 502h315l223 -313l196 313h313l-359 -522l359 -502h-313l-223 313l-198 -313h-313z" />
<glyph unicode="y" horiz-adv-x="1155" d="M86 573v451h258v-451q0 -173 64.5 -253.5t175.5 -80.5q101 0 223 66v719h262v-896q-1 -243 -133 -374q-124 -122 -366 -122q-17 0 -34 1q-168 6 -370 69v209q216 -53 355 -53h15q129 1 195.5 48.5t83.5 145.5l3 43q-127 -92 -279 -95h-11q-85 0 -159 30q-79 32 -143.5 98 t-102 180.5t-37.5 264.5z" />
<glyph unicode="z" horiz-adv-x="962" d="M102 0v219l421 562h-392v243h719v-223l-418 -558h429v-243h-759z" />
<glyph unicode="{" horiz-adv-x="870" d="M102 498v253h11q95 3 158 62t63 141v426q0 68 42.5 112t102.5 44h289v-243h-112q-64 0 -64 -63v-372q0 -79 -45 -142t-119 -91q74 -28 119 -91.5t45 -142.5v-371q0 -64 64 -64h112v-243h-289q-60 0 -102.5 44t-42.5 112v426q0 82 -63 141t-158 62h-11z" />
<glyph unicode="|" horiz-adv-x="464" d="M102 -123v1557h261v-1557h-261z" />
<glyph unicode="}" horiz-adv-x="870" d="M102 -44h113q64 0 64 64v371q0 79 44.5 142.5t118.5 91.5q-74 28 -118.5 91t-44.5 142v371q0 64 -64 64h-113v243h290q60 0 102.5 -44t42.5 -112v-426q0 -82 63 -141t158 -62h10v-253h-10q-95 -3 -158 -62t-63 -141v-426q0 -68 -42.5 -112t-102.5 -44h-290v243z" />
<glyph unicode="~" horiz-adv-x="956" d="M102 383v267l72 73q93 93 258 -2l125 -73q29 -17 49 -25.5t46.5 -13.5t52.5 5t51 34l98 98v-269l-70 -70q-37 -37 -83 -45.5t-85.5 4.5t-87.5 41l-127 74q-35 21 -68.5 30t-68 3t-59.5 -31z" />
<glyph unicode="&#xa1;" d="M102 974q0 62 44 105t105 43t105 -43t44 -105q0 -61 -44 -105t-105 -44t-105 44t-44 105zM121 -334v1049h258v-1049h-258z" />
<glyph unicode="&#xa2;" horiz-adv-x="1071" d="M105 512q0 195 126 341t314 179v199h140v-193q157 -14 282 -112l-181 -182q-42 29 -101 39v-542q57 10 100 39l182 -182q-121 -96 -282 -112v-187h-140v193q-188 33 -314 178.5t-126 341.5zM363 512q0 -90 50.5 -160.5t131.5 -98.5v519q-81 -28 -131.5 -99t-50.5 -161z " />
<glyph unicode="&#xa3;" horiz-adv-x="1263" d="M112 -1v249q143 1 194.5 72t30.5 192l-15 92h-210v245h170l-21 121q-17 102 0.5 184.5t59.5 136t103 90t127 52t135 15.5q245 0 436 -154l-162 -162q-127 78 -245 63q-43 -5 -73 -19.5t-53.5 -44.5t-32.5 -83t-3 -128l9 -71h269v-246h-230l11 -66q32 -197 -57 -289h605 v-249h-1048z" />
<glyph unicode="&#xa4;" horiz-adv-x="1228" />
<glyph unicode="&#xa5;" horiz-adv-x="1587" d="M53 1434h293l447 -536l448 536h294l-401 -479h193v-250h-373l-29 -48v-41h402v-250h-406v-366h-258v366h-402v250h400v41l-29 48h-371v250h191z" />
<glyph unicode="&#xa6;" horiz-adv-x="462" d="M102 -123v700h259v-700h-259zM102 733v701h259v-701h-259z" />
<glyph unicode="&#xa7;" horiz-adv-x="1040" d="M103 10l90 176q137 -67 291 -67q61 0 90 20t29 52q0 64 -92 97l-195 72q-100 37 -151 108t-51 156q0 100 63 177q-29 35 -45 86t-16 99q0 122 105 207t271 85q237 0 434 -136l-98 -203q-58 40 -151 61t-148 21q-121 0 -121 -41q0 -12 9 -22t32 -20.5t36 -15.5t47 -17 l160 -58q117 -43 181.5 -126t64.5 -184q0 -98 -54 -177q52 -80 52 -169q0 -136 -104 -233t-265 -97q-248 0 -464 149zM392 624q0 -30 46 -47l129 -46q8 -3 22.5 -8t20.5 -7q10 37 7 56q-11 42 -61 60l-110 41q-54 -3 -54 -49z" />
<glyph unicode="&#xa8;" horiz-adv-x="1017" d="M102 1286q0 61 44 104.5t105 43.5q62 0 105.5 -43.5t43.5 -104.5t-43.5 -105t-105.5 -44q-61 0 -105 44t-44 105zM618 1286q0 61 44 104.5t105 43.5q62 0 105.5 -43.5t43.5 -104.5t-43.5 -105t-105.5 -44q-61 0 -105 44t-44 105z" />
<glyph unicode="&#xa9;" horiz-adv-x="1675" d="M102 717q0 150 58.5 286t157 234.5t234.5 156.5t286 58q200 0 369 -98.5t267.5 -267.5t98.5 -369t-98.5 -369t-267.5 -267.5t-369 -98.5q-150 0 -286 58t-234.5 156.5t-157 234.5t-58.5 286zM339 717q0 -206 146.5 -352.5t352.5 -146.5t352 146.5t146 352.5 q0 134 -66.5 249t-181.5 182t-250 67t-250 -67t-182 -182t-67 -249zM461 715q0 155 111 266t266 111q138 0 246 -90l-176 -174q-34 15 -60 15q-54 0 -91 -37t-37 -91t37 -91t91 -37q29 0 58 13l176 -176q-110 -88 -244 -88q-155 0 -266 111t-111 268z" />
<glyph unicode="&#xaa;" horiz-adv-x="741" d="M34 1002q0 107 79.5 161t195.5 54q70 0 127 -17q-21 76 -121 76q-63 0 -112.5 -19t-70.5 -43l-76 171q104 83 280 83q153 0 239.5 -87.5t86.5 -208.5v-397h-202v23q-75 -34 -165 -34q-112 0 -186.5 62.5t-74.5 175.5zM253 997q0 -21 13 -33t49 -12q78 0 124 35v32 q-71 25 -123 25q-63 -1 -63 -47z" />
<glyph unicode="&#xab;" horiz-adv-x="1247" d="M102 470v214l500 330v-267l-306 -170l306 -169v-267zM646 470v214l498 330v-267l-305 -170l307 -169v-267z" />
<glyph unicode="&#xac;" horiz-adv-x="1179" d="M102 495v251h976v-497h-251v246h-725z" />
<glyph unicode="&#xad;" horiz-adv-x="907" d="M102 491v251h702v-251h-702z" />
<glyph unicode="&#xae;" horiz-adv-x="1675" d="M102 717q0 150 58.5 286t157 234.5t234.5 156.5t286 58q200 0 369 -98.5t267.5 -267.5t98.5 -369t-98.5 -369t-267.5 -267.5t-369 -98.5q-150 0 -286 58t-234.5 156.5t-157 234.5t-58.5 286zM339 717q0 -206 146.5 -352.5t352.5 -146.5t352 146.5t146 352.5 q0 134 -66.5 249t-181.5 182t-250 67t-250 -67t-182 -182t-67 -249zM566 376v712h282q115 0 180 -66.5t65 -163.5q0 -66 -32.5 -121t-93.5 -84l182 -277h-223l-131 252h-24v-252h-205zM773 814h71q41 0 41 44q0 21 -11.5 32.5t-29.5 11.5h-71v-88z" />
<glyph unicode="&#xaf;" horiz-adv-x="874" d="M102 1228v206h671v-206h-671z" />
<glyph unicode="&#xb0;" horiz-adv-x="870" d="M102 1122q0 137 97.5 233.5t234.5 96.5q138 0 236 -96t98 -234q0 -139 -97.5 -234.5t-236.5 -95.5q-137 0 -234.5 95.5t-97.5 234.5zM357 1122q0 -33 23 -56t56 -23q32 0 54.5 23t22.5 56t-22.5 56t-54.5 23q-33 0 -56 -23t-23 -56z" />
<glyph unicode="&#xb1;" horiz-adv-x="1181" d="M102 0v253h978v-253h-978zM102 646v251h363v260h252v-260h363v-251h-363v-260h-252v260h-363z" />
<glyph unicode="&#xb2;" horiz-adv-x="602" d="M64 1340q96 99 224 107q117 6 188 -65q30 -29 47.5 -72t15.5 -88q-7 -111 -127 -173q-6 -3 -20.5 -10.5t-19 -10t-15 -8.5t-14 -9l-10.5 -9t-9 -10.5t-5 -11t-4 -14t-1 -16.5h213v-207h-448v140q0 71 16 123.5t51 87.5t56.5 49.5t65.5 37.5q6 3 9 5q35 14 35 38 q0 15 -14 27q-11 8 -26 8q-40 -2 -81 -46z" />
<glyph unicode="&#xb3;" horiz-adv-x="583" d="M63 815l127 127q39 -24 63 -24q16 0 27.5 11.5t11.5 25.5q0 42 -61 49l-16 1v182l14 1q62 4 62 45q0 14 -10.5 24t-23.5 9q-29 2 -67 -28l-127 126q109 84 231 84q100 0 163 -50.5t63 -137.5q0 -63 -36.5 -105.5t-97.5 -54.5q61 -7 98 -55.5t37 -126.5q0 -86 -63.5 -136 t-163.5 -50q-123 0 -231 83z" />
<glyph unicode="&#xb4;" horiz-adv-x="669" d="M102 1130l166 304h300l-231 -304h-235z" />
<glyph unicode="&#xb6;" horiz-adv-x="1423" d="M53 1024q0 219 122.5 314.5t377.5 95.5h768v-251h-78v-1517h-259v1517h-177v-1517h-258v965q-241 0 -368.5 104t-127.5 289z" />
<glyph unicode="&#xb7;" d="M102 647q0 61 44 105t105 44t105 -44t44 -105q0 -62 -44 -105.5t-105 -43.5t-105 43.5t-44 105.5z" />
<glyph unicode="&#xb8;" horiz-adv-x="595" d="M89 -313h208q39 0 39 47q0 24 -10.5 37.5t-28.5 13.5h-121v227h151v-92h7q75 0 123.5 -53.5t48.5 -130.5q0 -86 -57.5 -143.5t-134.5 -57.5h-225v152z" />
<glyph unicode="&#xb9;" horiz-adv-x="432" d="M102 741v693h227v-693h-227z" />
<glyph unicode="&#xba;" horiz-adv-x="802" d="M39 1117q0 146 108.5 252.5t254.5 106.5t254 -106.5t108 -252.5q0 -147 -108 -253t-254 -106t-254.5 106t-108.5 253zM260 1117q0 -61 41.5 -102.5t100.5 -41.5t100 41.5t41 102.5t-41 102t-100 41q-60 0 -101 -41t-41 -102z" />
<glyph unicode="&#xbb;" horiz-adv-x="1247" d="M102 141v267l307 169l-307 170v267l500 -330v-214zM646 141v267l304 169l-304 170v267l500 -330v-212z" />
<glyph unicode="&#xbc;" horiz-adv-x="1566" d="M102 741v693h227v-693h-227zM258 0l645 1434h270l-645 -1434h-270zM904 139v212l280 341h228v-355h53v-198h-53v-139h-227v139h-281zM1098 337h87v109z" />
<glyph unicode="&#xbd;" horiz-adv-x="1589" d="M102 741v693h227v-693h-227zM255 0l646 1434h270l-645 -1434h-271zM1012 597q90 93 207 106q127 14 205 -64q66 -63 63 -156q-5 -112 -127 -176q-6 -3 -20.5 -10.5t-19 -10t-15 -8.5t-14 -9l-10.5 -9t-9 -10.5t-5 -11t-4 -14t-1 -16.5h213v-208h-448v140q0 71 17 124.5 t49 86.5t58.5 51t63.5 37q6 3 9 4q36 14 36 38q0 14 -13 27q-15 12 -36 7q-36 -6 -72 -45z" />
<glyph unicode="&#xbe;" horiz-adv-x="1720" d="M102 815l127 127q39 -24 63 -24q16 0 27.5 11.5t11.5 25.5q0 20 -16 33t-44 16l-16 1v182l13 1q63 4 63 45q0 14 -11 24t-24 9q-29 2 -67 -28l-127 126q109 84 231 84q100 0 163.5 -50.5t63.5 -137.5q0 -63 -37 -105.5t-98 -54.5q61 -7 98 -55.5t37 -126.5 q0 -86 -63.5 -136t-163.5 -50q-123 0 -231 83zM411 0l645 1434h270l-645 -1434h-270zM1056 139v212l280 341h228v-355h53v-198h-53v-139h-227v139h-281zM1250 337h87v109z" />
<glyph unicode="&#xbf;" horiz-adv-x="1048" d="M103 64q-3 106 51.5 197t171.5 150q29 14 43 21.5t34 20t28.5 23.5t20 28.5t15.5 39t7 50t3 66.5h266q0 -101 -15.5 -170t-54 -119.5t-86 -83t-128.5 -72.5q-101 -51 -101 -148q0 -58 37 -100q23 -28 65.5 -44.5t93.5 -15.5q126 3 219 102l174 -174q-167 -152 -381 -165 q-210 -13 -346 123q-52 50 -83.5 121.5t-33.5 149.5zM458 991q0 62 44 105.5t105 43.5q62 0 105.5 -43.5t43.5 -105.5q0 -61 -43.5 -104.5t-105.5 -43.5q-61 0 -105 43.5t-44 104.5z" />
<glyph unicode="&#xc0;" horiz-adv-x="1607" d="M101 0l561 1434h283l561 -1434h-281l-129 330h-585l-129 -330h-281zM453 1843h300l164 -303h-235zM616 597h375l-187 510z" />
<glyph unicode="&#xc1;" horiz-adv-x="1607" d="M102 0l560 1434h283l561 -1434h-281l-129 330h-585l-129 -330h-280zM616 597h375l-187 510zM688 1540l164 303h300l-229 -303h-235z" />
<glyph unicode="&#xc2;" horiz-adv-x="1607" d="M102 0l560 1434h283l561 -1434h-281l-129 330h-585l-129 -330h-280zM403 1540l281 303h241l281 -303h-279l-122 153l-123 -153h-279zM616 597h375l-187 510z" />
<glyph unicode="&#xc3;" horiz-adv-x="1607" d="M102 0l560 1434h283l561 -1434h-281l-129 330h-585l-129 -330h-280zM495 1560v228l57 58q26 26 62 33t71 -2t71 -31l98 -59q33 -19 52.5 -26.5t49 -4t55.5 29.5l79 80v-230l-54 -55q-31 -30 -67.5 -36t-67.5 3.5t-70 32.5l-99 59q-100 58 -157 1zM616 597h375l-187 510z " />
<glyph unicode="&#xc4;" horiz-adv-x="1607" d="M102 0l560 1434h283l561 -1434h-281l-129 330h-585l-129 -330h-280zM399 1695q0 61 43.5 105t105.5 44q61 0 105 -44t44 -105t-44 -105t-105 -44q-62 0 -105.5 44t-43.5 105zM616 597h375l-187 510zM915 1695q0 61 43 105t105 44q61 0 105 -44t44 -105t-44 -105t-105 -44 q-62 0 -105 44t-43 105z" />
<glyph unicode="&#xc5;" horiz-adv-x="1607" d="M102 0l560 1434h1q-50 34 -78.5 87t-28.5 116q0 103 72.5 175t176.5 72q103 0 175.5 -72t72.5 -175q0 -64 -29 -117t-79 -87l561 -1433h-281l-129 330h-585l-129 -330h-280zM616 597h375l-187 510zM753 1637q0 -22 14.5 -36.5t36.5 -14.5t37 14.5t15 36.5t-15 37t-37 15 t-36.5 -15t-14.5 -37z" />
<glyph unicode="&#xc6;" horiz-adv-x="1767" d="M102 0l562 1434h982v-247h-573v-333h553v-246h-553v-361h592v-247h-858v330h-294l-129 -330h-282zM618 597h185v507z" />
<glyph unicode="&#xc7;" horiz-adv-x="1468" d="M166 717q0 151 59 287.5t159 234.5t236.5 155.5t286.5 57.5q260 0 459 -162l-184 -183q-124 85 -275 85q-198 0 -335.5 -138.5t-137.5 -336.5q0 -130 62.5 -239.5t171.5 -173.5t239 -64q148 0 275 87l184 -186q-180 -143 -406 -158l-25 -1v-66h12q73 0 120.5 -51.5 t47.5 -128.5q0 -86 -56 -142.5t-132 -56.5h-222v146h204q19 0 31 13.5t12 37.5t-12 38.5t-31 14.5h-117v203q-175 27 -317.5 128.5t-225.5 259t-83 339.5z" />
<glyph unicode="&#xc8;" horiz-adv-x="1167" d="M206 0v1434h838v-247h-572v-333h553v-246h-553v-361h592v-247h-858zM384 1843h299l164 -303h-235z" />
<glyph unicode="&#xc9;" horiz-adv-x="1167" d="M206 0v1434h838v-247h-572v-333h553v-246h-553v-361h592v-247h-858zM476 1540l164 303h299l-228 -303h-235z" />
<glyph unicode="&#xca;" horiz-adv-x="1167" d="M206 0v1434h838v-247h-572v-333h553v-246h-553v-361h592v-247h-858zM214 1540l281 303h241l281 -303h-279l-122 153l-123 -153h-279z" />
<glyph unicode="&#xcb;" horiz-adv-x="1171" d="M210 0v1434h838v-247h-572v-333h553v-246h-553v-361h592v-247h-858zM214 1695q0 61 43.5 105t105.5 44q61 0 105 -44t44 -105t-44 -105t-105 -44q-62 0 -105.5 44t-43.5 105zM730 1695q0 61 43 105t105 44q61 0 105 -44t44 -105t-44 -105t-105 -44q-62 0 -105 44t-43 105 z" />
<glyph unicode="&#xcc;" horiz-adv-x="882" d="M308 1843h300l164 -303h-235zM412 0v1434h266v-1434h-266z" />
<glyph unicode="&#xcd;" horiz-adv-x="677" d="M110 1540l164 303h300l-229 -303h-235zM206 0v1434h266v-1434h-266z" />
<glyph unicode="&#xce;" horiz-adv-x="679" d="M-59 1540l280 303h241l281 -303h-279l-122 153l-123 -153h-278zM212 0v1434h266v-1434h-266z" />
<glyph unicode="&#xcf;" horiz-adv-x="677" d="M-68 1695q0 61 43.5 105t105.5 44q61 0 105 -44t44 -105t-44 -105t-105 -44q-62 0 -105.5 44t-43.5 105zM208 0v1434h266v-1434h-266zM448 1695q0 61 43.5 105t105.5 44q61 0 105 -44t44 -105t-44 -105t-105 -44q-62 0 -105.5 44t-43.5 105z" />
<glyph unicode="&#xd0;" horiz-adv-x="1724" d="M62 591v251h218v592h540q200 0 370.5 -96.5t270.5 -262t100 -358.5t-100 -358.5t-270.5 -262t-370.5 -96.5h-540v591h-218zM546 260h274q196 0 334 135.5t138 321.5t-138 321t-334 135h-274v-331h218v-251h-218v-331z" />
<glyph unicode="&#xd1;" horiz-adv-x="1640" d="M206 0v1434h307l655 -1016v1016h267v-1434h-308l-655 1017v-1017h-266zM535 1560v228l58 58q26 26 61.5 33t70.5 -2t71 -31l98 -59q33 -19 52.5 -26.5t49 -4t55.5 29.5l79 80v-230l-54 -55q-31 -30 -67 -36t-67 3.5t-70 32.5l-100 59q-100 58 -157 1z" />
<glyph unicode="&#xd2;" horiz-adv-x="1810" d="M164 717q0 151 59 287.5t159 234.5t236.5 155.5t286.5 57.5t286.5 -57.5t236.5 -155.5t159 -234.5t59 -287.5t-59 -287.5t-159 -234.5t-236.5 -155.5t-286.5 -57.5t-286.5 57.5t-236.5 155.5t-159 234.5t-59 287.5zM432 717q0 -198 137.5 -336.5t335.5 -138.5 t336.5 138.5t138.5 336.5t-138.5 336.5t-336.5 138.5t-335.5 -138.5t-137.5 -336.5zM569 1843h300l164 -303h-235z" />
<glyph unicode="&#xd3;" horiz-adv-x="1810" d="M164 717q0 151 59 287.5t159 234.5t236.5 155.5t286.5 57.5t286.5 -57.5t236.5 -155.5t159 -234.5t59 -287.5t-59 -287.5t-159 -234.5t-236.5 -155.5t-286.5 -57.5t-286.5 57.5t-236.5 155.5t-159 234.5t-59 287.5zM432 717q0 -198 137.5 -336.5t335.5 -138.5 t336.5 138.5t138.5 336.5t-138.5 336.5t-336.5 138.5t-335.5 -138.5t-137.5 -336.5zM779 1540l164 303h300l-229 -303h-235z" />
<glyph unicode="&#xd4;" horiz-adv-x="1810" d="M164 717q0 151 59 287.5t159 234.5t236.5 155.5t286.5 57.5t286.5 -57.5t236.5 -155.5t159 -234.5t59 -287.5t-59 -287.5t-159 -234.5t-236.5 -155.5t-286.5 -57.5t-286.5 57.5t-236.5 155.5t-159 234.5t-59 287.5zM432 717q0 -198 137.5 -336.5t335.5 -138.5 t336.5 138.5t138.5 336.5t-138.5 336.5t-336.5 138.5t-335.5 -138.5t-137.5 -336.5zM504 1540l280 303h242l280 -303h-279l-122 153l-123 -153h-278z" />
<glyph unicode="&#xd5;" horiz-adv-x="1810" d="M164 717q0 151 59 287.5t159 234.5t236.5 155.5t286.5 57.5t286.5 -57.5t236.5 -155.5t159 -234.5t59 -287.5t-59 -287.5t-159 -234.5t-236.5 -155.5t-286.5 -57.5t-286.5 57.5t-236.5 155.5t-159 234.5t-59 287.5zM432 717q0 -198 137.5 -336.5t335.5 -138.5 t336.5 138.5t138.5 336.5t-138.5 336.5t-336.5 138.5t-335.5 -138.5t-137.5 -336.5zM611 1562v228l58 58q26 26 62 33t71 -2t71 -31l97 -60q32 -18 52 -26t49.5 -4t55.5 30l80 80v-230l-55 -55q-31 -30 -67 -36t-67 3.5t-70 32.5l-100 59q-99 58 -156 1z" />
<glyph unicode="&#xd6;" horiz-adv-x="1810" d="M164 717q0 151 59 287.5t159 234.5t236.5 155.5t286.5 57.5t286.5 -57.5t236.5 -155.5t159 -234.5t59 -287.5t-59 -287.5t-159 -234.5t-236.5 -155.5t-286.5 -57.5t-286.5 57.5t-236.5 155.5t-159 234.5t-59 287.5zM432 717q0 -198 137.5 -336.5t335.5 -138.5 t336.5 138.5t138.5 336.5t-138.5 336.5t-336.5 138.5t-335.5 -138.5t-137.5 -336.5zM499 1695q0 61 43.5 105t105.5 44q61 0 105 -44t44 -105t-44 -105t-105 -44q-62 0 -105.5 44t-43.5 105zM1015 1695q0 61 43.5 105t105.5 44q61 0 105 -44t44 -105t-44 -105t-105 -44 q-62 0 -105.5 44t-43.5 105z" />
<glyph unicode="&#xd7;" horiz-adv-x="1075" d="M102 364l257 256l-257 257l178 177l257 -256l255 256l180 -177l-257 -257l257 -256l-180 -177l-255 255l-257 -255z" />
<glyph unicode="&#xd8;" horiz-adv-x="1810" d="M164 717q0 151 59 287.5t159 234.5t236.5 155.5t286.5 57.5q96 0 183 -22l48 106h270l-93 -205q153 -100 243 -262t90 -352q0 -151 -59 -287.5t-159 -234.5t-236.5 -155.5t-286.5 -57.5q-102 0 -188 23l-48 -107h-270l93 208q-151 100 -239.5 261t-88.5 350zM432 717 q0 -109 45 -204t125 -162l376 835q-36 6 -73 6q-198 0 -335.5 -138.5t-137.5 -336.5zM826 248q37 -6 79 -6q198 0 336.5 138.5t138.5 336.5q0 111 -47 207.5t-129 162.5z" />
<glyph unicode="&#xd9;" horiz-adv-x="1615" d="M206 549v885h268v-849q0 -145 99 -245t240 -100q143 0 241.5 100t98.5 245v849h269v-885q0 -111 -44 -213.5t-121.5 -181t-193.5 -125.5t-250 -47t-249 47t-192.5 125.5t-121.5 181.5t-44 213zM485 1846h299l164 -304h-235z" />
<glyph unicode="&#xda;" horiz-adv-x="1615" d="M206 549v885h268v-849q0 -145 99 -245t240 -100q143 0 241.5 100t98.5 245v849h269v-885q0 -111 -44 -213.5t-121.5 -181t-193.5 -125.5t-250 -47t-249 47t-192.5 125.5t-121.5 181.5t-44 213zM665 1540l164 303h300l-229 -303h-235z" />
<glyph unicode="&#xdb;" horiz-adv-x="1615" d="M206 549v885h268v-849q0 -145 99 -245t240 -100q143 0 241.5 100t98.5 245v849h269v-885q0 -111 -44 -213.5t-121.5 -181t-193.5 -125.5t-250 -47t-249 47t-192.5 125.5t-121.5 181.5t-44 213zM411 1540l281 303h241l281 -303h-279l-122 153l-123 -153h-279z" />
<glyph unicode="&#xdc;" horiz-adv-x="1615" d="M206 549v885h268v-849q0 -145 99 -245t240 -100q143 0 241.5 100t98.5 245v849h269v-885q0 -111 -44 -213.5t-121.5 -181t-193.5 -125.5t-250 -47t-249 47t-192.5 125.5t-121.5 181.5t-44 213zM413 1695q0 61 43.5 105t105.5 44q61 0 104.5 -44t43.5 -105t-43.5 -105 t-104.5 -44q-62 0 -105.5 44t-43.5 105zM929 1695q0 61 43 105t105 44q61 0 105 -44t44 -105t-44 -105t-105 -44q-62 0 -105 44t-43 105z" />
<glyph unicode="&#xdd;" horiz-adv-x="1474" d="M102 1434h290l345 -606l346 606h290l-503 -862v-572h-267v570zM613 1540l164 303h300l-229 -303h-235z" />
<glyph unicode="&#xde;" horiz-adv-x="1347" d="M206 0v1434h266v-239h282q209 1 319.5 -113t110.5 -305q0 -188 -107 -303t-319 -115h-286v-359h-266zM474 617h270q84 0 128.5 45.5t44.5 114.5q0 65 -50 111t-123 46h-270v-317z" />
<glyph unicode="&#xdf;" horiz-adv-x="1400" d="M108 0v1056q0 185 133 289.5t374 104.5q252 0 389 -111t137 -283q0 -169 -128 -297q85 -62 135 -153.5t50 -195.5q0 -171 -122 -290.5t-296 -119.5h-277v258h219q84 0 139 46.5t55 124.5q0 80 -57 126t-170 46v274q94 0 132.5 39.5t38.5 119.5q0 159 -239 159 q-128 0 -187.5 -40t-59.5 -119v-1034h-266z" />
<glyph unicode="&#xe0;" horiz-adv-x="1120" d="M104 331q0 146 106 236.5t295 86.5q112 -3 247 -47q0 85 -65.5 140t-179.5 55q-160 0 -272 -67l-89 201q152 106 394 106q115 0 207.5 -36t149.5 -98t87.5 -140t30.5 -166v-602h-229v76q-33 -35 -123.5 -63.5t-187.5 -28.5q-107 0 -189 36t-132 115.5t-50 195.5z M280 1435h300l164 -303h-235zM361 323q0 -87 145 -87q93 0 246 48v98q-145 39 -245 39q-76 -1 -111 -30.5t-35 -67.5z" />
<glyph unicode="&#xe1;" horiz-adv-x="1120" d="M104 331q0 146 106 236.5t295 86.5q112 -3 247 -47q0 85 -65.5 140t-179.5 55q-160 0 -272 -67l-89 201q152 106 394 106q115 0 207.5 -36t149.5 -98t87.5 -140t30.5 -166v-602h-229v76q-33 -35 -123.5 -63.5t-187.5 -28.5q-107 0 -189 36t-132 115.5t-50 195.5zM361 323 q0 -87 145 -87q93 0 246 48v98q-145 39 -245 39q-76 -1 -111 -30.5t-35 -67.5zM384 1132l164 303h299l-228 -303h-235z" />
<glyph unicode="&#xe2;" horiz-adv-x="1120" d="M104 331q0 146 106 236.5t295 86.5q112 -3 247 -47q0 86 -65 140.5t-180 54.5q-160 0 -272 -67l-89 201q152 106 395 106q115 0 207 -36t149.5 -98t87.5 -140t30 -166v-602h-229v76q-33 -35 -123.5 -63.5t-187.5 -28.5q-107 0 -189 36t-132 115.5t-50 195.5zM138 1132 l281 303h241l281 -303h-279l-123 153l-122 -153h-279zM361 323q0 -87 145 -87q94 0 247 48v98q-145 39 -246 39q-76 -1 -111 -30.5t-35 -67.5z" />
<glyph unicode="&#xe3;" horiz-adv-x="1120" d="M104 331q0 146 106 236.5t295 86.5q112 -3 247 -47q0 86 -65 140.5t-180 54.5q-160 0 -272 -67l-89 201q152 106 395 106q115 0 207 -36t149.5 -98t87.5 -140t30 -166v-602h-229v76q-33 -35 -123.5 -63.5t-187.5 -28.5q-107 0 -189 36t-132 115.5t-50 195.5zM264 1154 v228l57 58q26 26 62 33t71 -2.5t71 -31.5l98 -59q32 -18 52 -26t49.5 -4t55.5 30l79 80v-230l-55 -55q-31 -30 -67 -36t-67 3.5t-70 32.5l-99 59q-100 58 -157 1zM361 323q0 -87 145 -87q94 0 247 48v98q-145 39 -246 39q-76 -1 -111 -30.5t-35 -67.5z" />
<glyph unicode="&#xe4;" horiz-adv-x="1120" d="M104 331q0 146 106 236.5t295 86.5q112 -3 247 -47q0 85 -65.5 140t-179.5 55q-160 0 -272 -67l-89 201q152 106 394 106q115 0 207.5 -36t149.5 -98t87.5 -140t30.5 -166v-602h-229v76q-33 -35 -123.5 -63.5t-187.5 -28.5q-107 0 -189 36t-132 115.5t-50 195.5z M151 1287q0 61 43.5 105t105.5 44q61 0 105 -44t44 -105t-44 -105t-105 -44q-62 0 -105.5 44t-43.5 105zM361 323q0 -87 145 -87q93 0 246 48v98q-145 39 -245 39q-76 -1 -111 -30.5t-35 -67.5zM667 1287q0 61 43.5 105t105.5 44q61 0 104.5 -44t43.5 -105t-43.5 -105 t-104.5 -44q-62 0 -105.5 44t-43.5 105z" />
<glyph unicode="&#xe5;" horiz-adv-x="1120" d="M104 331q0 146 106 236.5t295 86.5q112 -3 247 -47q0 86 -65 140.5t-180 54.5q-160 0 -272 -67l-89 201q152 106 394 106q115 0 207.5 -36t149.5 -98t87.5 -140t30.5 -166v-602h-229v76q-33 -35 -123.5 -63.5t-187.5 -28.5q-107 0 -189 36t-132 115.5t-50 195.5z M343 1376q0 103 72.5 175t176.5 72t176.5 -72t72.5 -175q0 -104 -72.5 -175.5t-176.5 -71.5t-176.5 71.5t-72.5 175.5zM361 323q0 -87 145 -87q93 0 246 48v98q-145 39 -245 39q-76 -1 -111 -30.5t-35 -67.5zM541 1376q0 -22 14.5 -36.5t36.5 -14.5t36.5 14.5t14.5 36.5 t-14.5 36.5t-36.5 14.5t-36.5 -14.5t-14.5 -36.5z" />
<glyph unicode="&#xe6;" horiz-adv-x="1908" d="M104 331q0 146 106 236.5t295 86.5q112 -3 247 -47q0 85 -65.5 140t-179.5 55q-160 0 -272 -67l-89 201q152 106 394 106q131 0 228.5 -45.5t156.5 -125.5q73 79 172.5 124t211.5 45q209 0 351 -137q106 -102 131 -233q23 -123 -42 -195q-52 -59 -151 -59h-520 q0 -91 74 -140.5t179 -49.5q121 0 203 55l184 -182q-143 -115 -375 -115q-184 0 -328 94v-78h-229v76q-33 -35 -123.5 -63.5t-187.5 -28.5q-107 0 -189 36t-132 115.5t-50 195.5zM361 323q0 -87 145 -87q93 0 246 48v98q-145 39 -245 39q-76 -1 -111 -30.5t-35 -67.5z M1080 653h372q34 0 48.5 14t9 34.5t-28.5 41.5q-62 62 -172 62q-98 0 -163 -49.5t-66 -102.5z" />
<glyph unicode="&#xe7;" horiz-adv-x="1101" d="M125 512q0 145 72 266.5t194 191.5t266 70q187 0 330 -114l-182 -182q-68 44 -148 44q-115 0 -194.5 -80t-79.5 -196t79.5 -196t194.5 -80q80 0 148 44l182 -182q-111 -89 -260 -110q-44 -4 -66 -4v-48h11q73 0 120.5 -51.5t47.5 -128.5q0 -86 -56 -142.5t-132 -56.5 h-222v147h205q19 0 31 13t12 37q0 25 -12 40t-31 15h-117v193q-172 46 -282.5 186.5t-110.5 323.5z" />
<glyph unicode="&#xe8;" horiz-adv-x="1253" d="M125 512q0 143 70.5 264.5t192 192.5t265.5 71q209 0 351 -137q106 -102 131 -233q23 -123 -42 -195q-52 -59 -151 -59h-520q0 -91 74 -140.5t179 -49.5q120 0 203 55l184 -182q-143 -115 -375 -115q-107 1 -205 33.5t-179 95t-129.5 166t-48.5 233.5zM406 1435h300 l164 -303h-235zM424 653h372q50 0 57.5 28t-27.5 59q-26 27 -71 46t-102 19q-98 0 -163 -49.5t-66 -102.5z" />
<glyph unicode="&#xe9;" horiz-adv-x="1253" d="M125 512q0 143 70.5 264.5t192 192.5t265.5 71q209 0 351 -137q106 -102 131 -233q23 -123 -42 -195q-52 -59 -151 -59h-520q0 -91 74 -140.5t179 -49.5q120 0 203 55l184 -182q-143 -115 -375 -115q-107 1 -205 33.5t-179 95t-129.5 166t-48.5 233.5zM406 1132l164 303 h300l-229 -303h-235zM424 653h372q50 0 57.5 28.5t-27.5 59.5q-26 27 -71 45.5t-102 18.5q-98 0 -163 -49.5t-66 -102.5z" />
<glyph unicode="&#xea;" horiz-adv-x="1253" d="M125 512q0 143 70.5 264.5t192 192.5t265.5 71q209 0 351 -137q106 -102 131 -233q23 -123 -42 -195q-52 -59 -151 -59h-520q0 -91 74 -140.5t179 -49.5q120 0 203 55l184 -182q-143 -115 -375 -115q-107 1 -205 33.5t-179 95t-129.5 166t-48.5 233.5zM237 1132l280 303 h242l280 -303h-278l-123 153l-122 -153h-279zM424 653h372q50 0 57.5 28.5t-27.5 60.5q-25 27 -70.5 45t-102.5 18q-98 0 -163 -49.5t-66 -102.5z" />
<glyph unicode="&#xeb;" horiz-adv-x="1253" d="M125 512q0 143 70.5 264.5t192 192.5t265.5 71q209 0 351 -137q106 -102 131 -233q23 -123 -42 -195q-52 -59 -151 -59h-520q0 -91 74 -140.5t179 -49.5q120 0 203 55l184 -182q-143 -115 -375 -115q-107 1 -205 33.5t-179 95t-129.5 166t-48.5 233.5zM232 1287 q0 61 43.5 105t105.5 44q61 0 105 -44t44 -105t-44 -105t-105 -44q-62 0 -105.5 44t-43.5 105zM424 653h372q50 0 57.5 28.5t-27.5 60.5q-25 27 -70.5 45t-102.5 18q-98 0 -163 -49.5t-66 -102.5zM748 1287q0 61 43.5 105t105.5 44q61 0 105 -44t44 -105t-44 -105t-105 -44 q-62 0 -105.5 44t-43.5 105z" />
<glyph unicode="&#xec;" horiz-adv-x="815" d="M175 1434h300l164 -304h-236zM396 0v1024h251v-1024h-251z" />
<glyph unicode="&#xed;" horiz-adv-x="595" d="M75 1130l164 304h300l-229 -304h-235zM179 0v1024h250v-1024h-250z" />
<glyph unicode="&#xee;" horiz-adv-x="1142" d="M175 1131l280 303h242l280 -303h-278l-123 152l-122 -152h-279zM458 0v1024h250v-1024h-250z" />
<glyph unicode="&#xef;" horiz-adv-x="1153" d="M175 1286q0 61 43.5 104.5t105.5 43.5q61 0 105 -43.5t44 -104.5t-44 -105t-105 -44q-62 0 -105.5 44t-43.5 105zM462 0v1024h251v-1024h-251zM691 1286q0 61 43 104.5t105 43.5q61 0 105 -43.5t44 -104.5t-44 -105t-105 -44q-62 0 -105 44t-43 105z" />
<glyph unicode="&#xf0;" horiz-adv-x="1202" d="M163 527q0 109 24 200t64.5 153.5t95 106t115 64t124.5 21.5q100 0 183 -52q-49 104 -137 167l-138 -102l-107 135l59 43q-76 19 -162 19v252q217 0 397 -98l124 91l107 -135l-83 -61q290 -266 241 -804q-24 -254 -142.5 -398.5t-313.5 -144.5q-110 0 -196.5 41t-142 114 t-84 171.5t-28.5 216.5zM424 527q0 -141 49 -216t142 -75q84 0 138.5 75t56.5 218q0 292 -195 292q-94 0 -142.5 -75t-48.5 -219z" />
<glyph unicode="&#xf1;" horiz-adv-x="1304" d="M165 0v1024h252v-81q144 104 317 95q85 -5 158 -40t131 -102t91.5 -177.5t33.5 -253.5v-465h-259v467q0 174 -65 256.5t-178 79.5q-105 -3 -219 -69v-734h-262zM374 1155v228l57 58q26 26 62 33t71 -2t71 -31l98 -59q33 -19 52.5 -26.5t49 -4t55.5 29.5l79 80v-230 l-54 -55q-31 -30 -67.5 -36t-67.5 3.5t-70 32.5l-99 59q-100 58 -157 1z" />
<glyph unicode="&#xf2;" horiz-adv-x="1314" d="M125 512q0 145 72 266.5t194 191.5t266 70t266 -70t194 -191.5t72 -266.5q0 -146 -72 -267.5t-194 -191t-266 -69.5t-266 69.5t-194 191t-72 267.5zM383 512q0 -116 79.5 -196t194.5 -80t194.5 80t79.5 196t-79.5 196t-194.5 80t-194.5 -80t-79.5 -196zM405 1434h300 l164 -304h-235z" />
<glyph unicode="&#xf3;" horiz-adv-x="1314" d="M125 512q0 145 72 266.5t194 191.5t266 70t266 -70t194 -191.5t72 -266.5q0 -146 -72 -267.5t-194 -191t-266 -69.5t-266 69.5t-194 191t-72 267.5zM383 512q0 -116 79.5 -196t194.5 -80t194.5 80t79.5 196t-79.5 196t-194.5 80t-194.5 -80t-79.5 -196zM460 1130l164 304 h300l-229 -304h-235z" />
<glyph unicode="&#xf4;" horiz-adv-x="1314" d="M125 512q0 145 72 266.5t194 191.5t266 70t266 -70t194 -191.5t72 -266.5q0 -146 -72 -267.5t-194 -191t-266 -69.5t-266 69.5t-194 191t-72 267.5zM256 1131l280 303h242l280 -303h-279l-122 152l-123 -152h-278zM383 512q0 -116 79.5 -196t194.5 -80t194.5 80t79.5 196 t-79.5 196t-194.5 80t-194.5 -80t-79.5 -196z" />
<glyph unicode="&#xf5;" horiz-adv-x="1314" d="M125 512q0 145 72 266.5t194 191.5t266 70t266 -70t194 -191.5t72 -266.5q0 -146 -72 -267.5t-194 -191t-266 -69.5t-266 69.5t-194 191t-72 267.5zM383 512q0 -116 79.5 -196t194.5 -80t194.5 80t79.5 196t-79.5 196t-194.5 80t-194.5 -80t-79.5 -196zM383 1151v227 l57 58q26 26 62 33t71 -2t71 -31l98 -59q33 -19 52.5 -26.5t48.5 -3.5t55 30l80 79v-229l-55 -55q-31 -30 -67 -36t-67 3.5t-70 32.5l-100 59q-98 58 -156 0z" />
<glyph unicode="&#xf6;" horiz-adv-x="1314" d="M125 512q0 145 72 266.5t194 191.5t266 70t266 -70t194 -191.5t72 -266.5q0 -146 -72 -267.5t-194 -191t-266 -69.5t-266 69.5t-194 191t-72 267.5zM252 1286q0 61 43 104.5t105 43.5q61 0 105 -43.5t44 -104.5t-44 -105t-105 -44q-62 0 -105 44t-43 105zM383 512 q0 -116 79.5 -196t194.5 -80t194.5 80t79.5 196t-79.5 196t-194.5 80t-194.5 -80t-79.5 -196zM767 1286q0 61 43.5 104.5t105.5 43.5q61 0 105 -43.5t44 -104.5t-44 -105t-105 -44q-62 0 -105.5 44t-43.5 105z" />
<glyph unicode="&#xf7;" horiz-adv-x="1052" d="M102 404v251h848v-251h-848zM380 184q0 62 43.5 105.5t104.5 43.5t105 -43.5t44 -105.5q0 -61 -44 -104t-105 -43t-104.5 43t-43.5 104zM382 874q0 62 43.5 105.5t104.5 43.5t105 -43.5t44 -105.5q0 -61 -44 -104t-105 -43t-104.5 43t-43.5 104z" />
<glyph unicode="&#xf8;" horiz-adv-x="1314" d="M125 512q0 145 72 266.5t194 191.5t266 70q54 0 95 -8l42 94h271l-87 -193q98 -74 154.5 -184t56.5 -237q0 -146 -72 -267.5t-194 -191t-266 -69.5q-53 0 -102 9l-43 -95h-270l88 196q-96 73 -150.5 182t-54.5 236zM383 512q0 -95 58 -171l201 446q-110 -6 -184.5 -84.5 t-74.5 -190.5zM664 236q112 3 189.5 82.5t77.5 193.5q0 99 -63 177z" />
<glyph unicode="&#xf9;" horiz-adv-x="1304" d="M156 559v465h259v-465q0 -175 64.5 -257.5t177.5 -80.5q100 3 221 72v731h263v-1024h-253v83q-144 -106 -319 -97q-67 4 -127 26.5t-113 68t-91 110.5t-60 159t-22 209zM347 1435h300l164 -303h-235z" />
<glyph unicode="&#xfa;" horiz-adv-x="1304" d="M156 559v465h259v-465q0 -175 64.5 -257.5t177.5 -80.5q100 3 221 72v731h263v-1024h-253v83q-144 -106 -319 -97q-67 4 -127 26.5t-113 68t-91 110.5t-60 159t-22 209zM496 1132l164 303h300l-229 -303h-235z" />
<glyph unicode="&#xfb;" horiz-adv-x="1304" d="M156 559v465h259v-465q0 -175 64.5 -257.5t177.5 -80.5q100 3 221 72v731h263v-1024h-253v83q-144 -106 -319 -97q-67 4 -127 26.5t-113 68t-91 110.5t-60 159t-22 209zM244 1132l281 303h241l281 -303h-279l-122 153l-123 -153h-279z" />
<glyph unicode="&#xfc;" horiz-adv-x="1304" d="M156 559v465h259v-465q0 -175 64.5 -257.5t177.5 -80.5q100 3 221 72v731h263v-1024h-253v83q-144 -106 -319 -97q-67 4 -127 26.5t-113 68t-91 110.5t-60 159t-22 209zM242 1279q0 61 43.5 105t105.5 44q61 0 105 -44t44 -105t-44 -105t-105 -44q-62 0 -105.5 44 t-43.5 105zM758 1279q0 61 43 105t105 44q61 0 105 -44t44 -105t-44 -105t-105 -44q-62 0 -105 44t-43 105z" />
<glyph unicode="&#xfd;" horiz-adv-x="1155" d="M86 573v451h258v-451q0 -173 64.5 -253.5t175.5 -80.5q101 0 223 66v719h262v-896q-1 -243 -133.5 -373.5t-399.5 -121.5q-168 6 -370 69v209q228 -56 370 -53q129 1 195 48t83 146l4 43q-127 -92 -279 -95q-91 -2 -170 30t-143.5 98t-102 180.5t-37.5 264.5zM403 1130 l164 304h299l-228 -304h-235z" />
<glyph unicode="&#xfe;" horiz-adv-x="1241" d="M165 -410v1844h231v-500q43 48 116 77t152 29q67 0 127.5 -14.5t120.5 -51t103.5 -92.5t71 -146.5t29.5 -205.5q2 -118 -25 -213.5t-71.5 -156t-105 -101t-123 -57t-129.5 -16.5q-142 3 -239 82v-478h-258zM423 293q97 -67 210 -67q73 0 124.5 45.5t74 112.5t22.5 146 q0 125 -55.5 200t-167.5 75q-61 0 -111 -19.5t-97 -70.5v-422z" />
<glyph unicode="&#xff;" horiz-adv-x="1155" d="M86 573v451h258v-451q0 -173 64.5 -253.5t175.5 -80.5q101 0 223 66v719h262v-896q-1 -243 -133.5 -373.5t-399.5 -121.5q-168 6 -370 69v209q228 -56 370 -53q129 1 195 48t83 146l4 43q-127 -92 -279 -95q-91 -2 -170 30t-143.5 98t-102 180.5t-37.5 264.5zM166 1286 q0 61 43.5 104.5t105.5 43.5q61 0 105 -43.5t44 -104.5t-44 -105t-105 -44q-62 0 -105.5 44t-43.5 105zM682 1286q0 61 43.5 104.5t105.5 43.5q61 0 105 -43.5t44 -104.5t-44 -105t-105 -44q-62 0 -105.5 44t-43.5 105z" />
<glyph unicode="&#x152;" horiz-adv-x="2193" d="M164 717q0 151 59 287.5t159 234.5t236.5 155.5t286.5 57.5q173 0 328 -75v57h859v-259h-592v-315h592v-258h-592v-344h592v-258h-859v57q-155 -75 -328 -75q-150 0 -286.5 57.5t-236.5 155.5t-159 234.5t-59 287.5zM432 717q0 -198 137.5 -336.5t335.5 -138.5 q194 0 328 132v685q-135 133 -328 133q-198 0 -335.5 -138.5t-137.5 -336.5z" />
<glyph unicode="&#x153;" horiz-adv-x="2062" d="M125 512q0 145 71.5 266.5t194 191.5t266.5 70q119 0 223.5 -49.5t178.5 -137.5q73 87 177.5 137t222.5 50q210 0 352 -137q106 -102 131 -233q23 -123 -41 -195q-53 -59 -152 -59h-520q0 -75 72.5 -126.5t175.5 -53.5q147 0 210 46l182 -181q-142 -117 -392 -117 q-124 0 -233 50t-183 137q-74 -88 -179.5 -137.5t-224.5 -49.5q-145 0 -267 69.5t-193.5 191t-71.5 267.5zM383 512q0 -116 79.5 -196t194.5 -80t194.5 80t79.5 196t-79.5 196t-194.5 80t-194.5 -80t-79.5 -196zM1231 668h372q58 0 59 31q0 30 -51 59q-63 34 -152 34 q-88 0 -157.5 -38t-70.5 -86z" />
<glyph unicode="&#x178;" horiz-adv-x="1474" d="M101 1434h291l345 -606l346 606h290l-503 -862v-572h-267v570zM332 1695q0 61 43.5 105t105.5 44q61 0 104.5 -44t43.5 -105t-43.5 -105t-104.5 -44q-62 0 -105.5 44t-43.5 105zM847 1695q0 61 43.5 105t105.5 44q61 0 105 -44t44 -105t-44 -105t-105 -44 q-62 0 -105.5 44t-43.5 105z" />
<glyph unicode="&#x2c6;" horiz-adv-x="1007" d="M102 1131l281 303h241l281 -303h-279l-122 152l-123 -152h-279z" />
<glyph unicode="&#x2dc;" horiz-adv-x="800" d="M102 1110v227l58 58q26 26 61.5 33t70.5 -2t70 -31l99 -59q32 -18 52 -26t49.5 -4t55.5 30l80 79v-230l-57 -54q-76 -76 -202 0l-100 59q-98 58 -156 0z" />
<glyph unicode="&#x2000;" horiz-adv-x="942" />
<glyph unicode="&#x2001;" horiz-adv-x="1884" />
<glyph unicode="&#x2002;" horiz-adv-x="942" />
<glyph unicode="&#x2003;" horiz-adv-x="1884" />
<glyph unicode="&#x2004;" horiz-adv-x="628" />
<glyph unicode="&#x2005;" horiz-adv-x="471" />
<glyph unicode="&#x2006;" horiz-adv-x="314" />
<glyph unicode="&#x2007;" horiz-adv-x="314" />
<glyph unicode="&#x2008;" horiz-adv-x="235" />
<glyph unicode="&#x2009;" horiz-adv-x="376" />
<glyph unicode="&#x200a;" horiz-adv-x="104" />
<glyph unicode="&#x2010;" horiz-adv-x="907" d="M102 491v251h702v-251h-702z" />
<glyph unicode="&#x2011;" horiz-adv-x="907" d="M102 491v251h702v-251h-702z" />
<glyph unicode="&#x2012;" horiz-adv-x="907" d="M102 491v251h702v-251h-702z" />
<glyph unicode="&#x2013;" horiz-adv-x="1112" d="M102 421v250h907v-250h-907z" />
<glyph unicode="&#x2014;" horiz-adv-x="1380" d="M102 421v250h1177v-250h-1177z" />
<glyph unicode="&#x2018;" d="M102 1176q1 33 8.5 67t27.5 72t50.5 67t81.5 48.5t116 19.5q-78 -57 -115 -129q55 -8 92 -48.5t37 -96.5q0 -62 -44 -105.5t-105 -43.5t-105 43.5t-44 105.5z" />
<glyph unicode="&#x2019;" d="M103 1305q0 61 43.5 105t104.5 44t105 -44t44 -105q0 -20 -4 -45.5t-21 -69t-45 -77t-84 -59t-130 -25.5q78 57 115 129q-55 8 -91.5 49.5t-36.5 97.5z" />
<glyph unicode="&#x201a;" d="M103 128q0 61 43.5 105t104.5 44t105 -44t44 -105q-1 -33 -8.5 -67t-27.5 -72.5t-50.5 -68t-81.5 -49t-116 -19.5q81 60 115 129q-55 8 -91.5 49.5t-36.5 97.5z" />
<glyph unicode="&#x201c;" horiz-adv-x="872" d="M102 1178q0 20 4 45.5t21 69t45 77t84 59t130 25.5q-80 -59 -115 -130q55 -8 92 -49t37 -97q0 -61 -44 -105t-105 -44t-105 44t-44 105zM472 1178q0 20 4 45.5t21 69t45 77t84 59t130 25.5q-80 -59 -115 -130q55 -8 92 -49t37 -97q0 -61 -44 -105t-105 -44t-105 44 t-44 105z" />
<glyph unicode="&#x201d;" horiz-adv-x="888" d="M103 1305q0 61 43.5 105t104.5 44t105 -44t44 -105q0 -20 -4 -45.5t-21 -69t-45 -77t-84 -59t-130 -25.5q81 60 115 129q-55 8 -91.5 49.5t-36.5 97.5zM472 1305q0 61 44 105t105 44t105 -44t44 -105q0 -20 -4 -45.5t-21 -69t-45 -77t-84 -59t-130 -25.5q81 60 115 129 q-55 8 -92 49.5t-37 97.5z" />
<glyph unicode="&#x201e;" horiz-adv-x="872" d="M103 130q0 61 43.5 104.5t104.5 43.5t105 -43.5t44 -104.5q0 -20 -4 -45.5t-21 -69t-45 -77t-84 -59t-130 -25.5q80 59 115 130q-55 8 -91.5 49t-36.5 97zM472 130q0 61 44 104.5t105 43.5t105 -43.5t44 -104.5q0 -20 -4 -45.5t-21 -69t-45 -77t-84 -59t-130 -25.5 q80 59 115 130q-55 8 -92 49t-37 97z" />
<glyph unicode="&#x2022;" horiz-adv-x="870" d="M122 582q0 130 91 222t222 92q130 0 222 -92t92 -222q0 -131 -92 -223t-222 -92q-131 0 -222 92t-91 223z" />
<glyph unicode="&#x2026;" horiz-adv-x="1454" d="M102 128q0 61 44 105t105 44t105 -44t44 -105q0 -62 -44 -105t-105 -43t-105 43t-44 105zM578 128q0 61 44 105t105 44t104.5 -44t43.5 -105q0 -62 -43.5 -105t-104.5 -43t-105 43t-44 105zM1053 128q0 61 44 105t105 44t105 -44t44 -105q0 -62 -44 -105t-105 -43 t-105 43t-44 105z" />
<glyph unicode="&#x202f;" horiz-adv-x="376" />
<glyph unicode="&#x2039;" horiz-adv-x="704" d="M102 470v214l500 330v-267l-306 -170l306 -169v-267z" />
<glyph unicode="&#x203a;" horiz-adv-x="704" d="M102 141v267l307 169l-307 170v267l500 -330v-214z" />
<glyph unicode="&#x205f;" horiz-adv-x="471" />
<glyph unicode="&#x20ac;" horiz-adv-x="1679" d="M38 479l171 168h171q-4 46 -4 70q0 14 2 42h-339l170 169h198q70 231 266 377.5t444 146.5q260 0 459 -162l-183 -183q-124 85 -276 85q-156 0 -271 -65.5t-166 -198.5h782l-166 -169h-650q-1 -14 -1 -42q0 -32 5 -70h534l-167 -168h-310q62 -109 171 -174t239 -65 q149 0 276 87l183 -186q-199 -159 -459 -159q-240 0 -432.5 138t-268.5 359h-378z" />
<glyph unicode="&#x2122;" horiz-adv-x="1937" d="M102 1181v253h628v-251h-183v-581h-260v579h-185zM793 602v832h289l233 -290l232 290h288v-832h-259v492l-261 -313l-262 313v-492h-260z" />
<glyph unicode="&#x25fc;" horiz-adv-x="1024" d="M0 0v1024h1024v-1024h-1024z" />
</font>
</defs>
</svg>
