<?xml version="1.0" standalone="no"?>
<!DOCTYPE svg PUBLIC "-//W3C//DTD SVG 1.1//EN" "http://www.w3.org/Graphics/SVG/1.1/DTD/svg11.dtd" >
<svg xmlns="http://www.w3.org/2000/svg">
<metadata></metadata>
<defs>
<font id="bauframedium" horiz-adv-x="1544" >
<font-face units-per-em="2048" ascent="1536" descent="-512" />
<missing-glyph horiz-adv-x="804" />
<glyph unicode="&#xfb01;" horiz-adv-x="1091" d="M102 902v122h168v185q0 110 79.5 176t202.5 66h111v-114h-111q-63 0 -108.5 -34.5t-45.5 -93.5v-185h245v-122h-245v-902h-128v902h-168zM754 1262q0 33 23.5 57t56.5 24t57 -24t24 -57t-24 -57t-57 -24t-56.5 24t-23.5 57zM772 0v1024h125v-1024h-125z" />
<glyph unicode="&#xfb02;" horiz-adv-x="1073" d="M102 902v122h168v185q0 110 79.5 176t202.5 66h111v-114h-111q-63 0 -108.5 -34.5t-45.5 -93.5v-185h245v-122h-245v-902h-128v902h-168zM789 0v1434h125v-1434h-125z" />
<glyph horiz-adv-x="2048" />
<glyph horiz-adv-x="2048" />
<glyph unicode="&#xd;" horiz-adv-x="2048" />
<glyph unicode=" "  horiz-adv-x="804" />
<glyph unicode="&#x09;" horiz-adv-x="804" />
<glyph unicode="&#xa0;" horiz-adv-x="804" />
<glyph unicode="!" horiz-adv-x="374" d="M102 64q0 35 25.5 60.5t60.5 25.5t60 -25.5t25 -60.5q0 -36 -24.5 -60t-60.5 -24t-61 24t-25 60zM124 327v1109h128v-1109h-128z" />
<glyph unicode="&#x22;" horiz-adv-x="624" d="M105 1366q0 35 25 60.5t60 25.5t60 -25.5t25 -60.5q0 -14 -3 -30.5t-13.5 -41t-27 -43.5t-49 -33t-74.5 -14q49 36 69 79q-31 5 -51.5 28t-20.5 55zM353 1366q0 35 25.5 60.5t60.5 25.5t60 -25.5t25 -60.5q0 -14 -3 -30.5t-13.5 -41t-27 -43.5t-49 -33t-74.5 -14 q47 35 68 79q-31 5 -51.5 28t-20.5 55z" />
<glyph unicode="#" horiz-adv-x="1378" d="M102 429l27 124h262l59 277h-262l28 124h260l103 480h128l-103 -480h273l103 480h128l-103 -480h272l-27 -124h-271l-59 -277h271l-26 -124h-271l-91 -429h-128l91 429h-273l-91 -429h-128l91 429h-263zM519 553h273l59 277h-273z" />
<glyph unicode="$" horiz-adv-x="1079" d="M114 149l82 93q51 -59 133.5 -91.5t162.5 -39.5v585l-28 9q-159 49 -249.5 138t-90.5 220q0 76 22.5 139.5t59 105.5t85.5 73t99 46t102 20v89h80v-90q86 -7 168 -35t134 -78l-82 -90q-69 63 -220 75v-521l34 -11q367 -101 367 -423q0 -163 -112.5 -265t-288.5 -115v-96 h-80v96q-103 9 -207.5 50.5t-170.5 115.5zM259 1067q0 -164 233 -241v487q-31 -5 -60 -15t-61.5 -30t-56.5 -46t-39.5 -66.5t-15.5 -88.5zM572 112q119 13 195.5 82t76.5 169q0 118 -63 189t-209 117v-557z" />
<glyph unicode="%" horiz-adv-x="1462" d="M118 1173q0 115 82 197t197 82t197 -82t82 -197t-82 -197t-197 -82t-197 82t-82 197zM225 1173q0 -76 48 -125t124 -49t124.5 49t48.5 125t-48.5 124.5t-124.5 48.5t-124 -48.5t-48 -124.5zM252 0l833 1434h120l-833 -1434h-120zM787 261q0 115 81.5 197t197.5 82 t197.5 -82t81.5 -197t-81.5 -197t-197.5 -82t-197.5 82t-81.5 197zM894 261q0 -76 48.5 -125.5t123.5 -49.5q76 0 124.5 49.5t48.5 125.5t-48.5 124.5t-124.5 48.5t-124 -48.5t-48 -124.5z" />
<glyph unicode="&#x26;" horiz-adv-x="1447" d="M106 394q0 71 19.5 132t50.5 106t80.5 87t96.5 71t111 62q-109 128 -143 208.5t-30 155.5q6 107 101.5 171.5t243.5 64.5q144 0 241.5 -75t97.5 -202q0 -39 -10.5 -73.5t-40 -79.5t-94.5 -95t-162 -100l360 -426q22 55 28 117h137q-13 -120 -72 -228l245 -290h-171 l-154 184q-76 -90 -191.5 -144t-257.5 -58q-110 2 -203 38t-154 94.5t-95 131t-34 148.5zM235 396q0 -120 99.5 -205t257.5 -88q126 3 220 50.5t148 125.5l-408 484q-64 -35 -101.5 -57.5t-84 -58.5t-71.5 -69t-42.5 -80.5t-17.5 -101.5zM420 1193q-2 -52 32 -115t123 -167 q93 48 152 88t84 72.5t32 54t7 49.5q0 71 -59 115t-152 44q-100 -1 -158.5 -40.5t-60.5 -100.5z" />
<glyph unicode="'" horiz-adv-x="376" d="M105 1365q0 35 25 60.5t60 25.5t60 -25.5t25 -60.5q0 -14 -3 -30.5t-13.5 -41t-27 -43.5t-49 -33t-74.5 -14q49 36 69 79q-31 5 -51.5 28t-20.5 55z" />
<glyph unicode="(" horiz-adv-x="743" d="M102 612q0 135 29 265t78.5 233t112.5 187t131.5 138t135.5 75l50 -67q-74 -36 -145.5 -112t-131 -182t-96 -247t-36.5 -290t36.5 -289t97 -245t132 -181t145.5 -115l-52 -69q-85 32 -170 111.5t-156.5 193t-116 270t-44.5 324.5z" />
<glyph unicode=")" horiz-adv-x="743" d="M102 -218q74 39 145.5 115t132 181t97 245t36.5 289t-36.5 290t-96 247t-131 182t-144.5 112l50 67q85 -27 170 -106t156 -193.5t115.5 -272.5t44.5 -326t-44.5 -324.5t-115.5 -270t-156 -193t-170 -111.5z" />
<glyph unicode="*" horiz-adv-x="958" d="M102 1172l60 113l252 -105v287h128v-288l256 106l59 -113l-274 -117l185 -239l-99 -81l-185 240l-185 -240l-100 81l183 236z" />
<glyph unicode="+" horiz-adv-x="1103" d="M102 569v125h387v387h126v-387h387v-125h-387v-387h-126v387h-387z" />
<glyph unicode="," horiz-adv-x="376" d="M105 63q0 35 25 60t60 25t60 -25t25 -60q0 -14 -3 -31t-13.5 -41.5t-27 -43.5t-49 -33t-74.5 -14q47 35 69 79q-31 5 -51.5 28.5t-20.5 55.5z" />
<glyph unicode="-" horiz-adv-x="790" d="M102 515v125h586v-125h-586z" />
<glyph unicode="." horiz-adv-x="374" d="M102 64q0 35 25.5 60.5t60.5 25.5t60 -25.5t25 -60.5q0 -36 -24.5 -60t-60.5 -24t-61 24t-25 60z" />
<glyph unicode="/" horiz-adv-x="983" d="M102 0l646 1434h132l-645 -1434h-133z" />
<glyph unicode="0" horiz-adv-x="1382" d="M164 669q0 203 68.5 364t188 249t268.5 88t270 -88t190.5 -249t69.5 -364q0 -189 -69 -345t-191 -245.5t-270 -89.5q-149 0 -269.5 89.5t-188 245t-67.5 345.5zM296 669q0 -158 48 -283t138 -197t207 -72q176 0 287.5 155.5t111.5 396.5q0 257 -110.5 414.5t-288.5 157.5 t-285.5 -158t-107.5 -414z" />
<glyph unicode="1" horiz-adv-x="516" d="M192 0v1351h131v-1351h-131z" />
<glyph unicode="2" horiz-adv-x="1140" d="M114 1v107q3 115 32.5 210.5t73 160t112 121t130.5 91t147 72.5q54 23 81.5 35.5t67 36t58.5 44.5t34 52.5t15 68.5q1 110 -76 179t-210 71q-195 2 -339 -124l-89 89q185 155 422 158q185 2 302 -104q118 -104 117 -269q0 -65 -23 -116.5t-71 -92t-97.5 -68.5t-127.5 -63 q-77 -35 -129.5 -64t-111.5 -75.5t-94.5 -98.5t-60 -128t-26.5 -169h741v-124h-878z" />
<glyph unicode="3" horiz-adv-x="1122" d="M114 138l96 94q68 -57 156 -88.5t181 -31.5q137 -1 222.5 68t85.5 192q0 117 -88.5 189t-248.5 76h-152v119l134 2q162 1 250.5 65t88.5 182q0 111 -82.5 176t-206.5 65q-199 0 -340 -119l-94 92q196 156 446 156q176 0 293 -95.5t117 -259.5q0 -123 -69 -206t-184 -112 q122 -28 195.5 -120.5t73.5 -231.5q0 -173 -120 -270.5t-308 -97.5q-250 0 -446 156z" />
<glyph unicode="4" horiz-adv-x="1110" d="M94 366v133l661 852h137v-861h102v-125h-102v-365h-128v366h-670zM234 490h530v684z" />
<glyph unicode="5" horiz-adv-x="1124" d="M122 133q88 -69 201 -109t230 -40q182 -1 304.5 116.5t122.5 287.5q0 67 -14 129t-47 120.5t-81 101.5t-121 69t-163 26h-242v395h604v122h-730v-641h348q83 0 146 -24.5t100 -69t55 -100.5t18 -124q0 -124 -85.5 -204t-216.5 -79q-174 0 -339 117z" />
<glyph unicode="6" horiz-adv-x="1138" d="M113 447q-34 243 48 444.5t253 326.5q208 152 482 152v-126q-236 0 -408 -120q-96 -69 -157.5 -172t-77.5 -231q45 86 128.5 137.5t196.5 51.5q194 -1 316 -134t122 -329q0 -89 -29 -170.5t-83 -147.5t-141.5 -105.5t-195.5 -39.5q-188 0 -307 131t-147 332zM242 449 q17 -148 104 -244t220 -96q151 0 236 99.5t85 238.5q0 89 -35 164.5t-109.5 124.5t-176.5 49q-77 0 -140 -27.5t-102.5 -74.5t-60.5 -107t-21 -127z" />
<glyph unicode="7" horiz-adv-x="1013" d="M102 1227v124h826l-606 -1351h-140l549 1227h-629z" />
<glyph unicode="8" horiz-adv-x="1157" d="M134 360q0 120 71.5 215t190.5 130q-112 40 -170.5 122.5t-58.5 201.5q0 76 28 138t72 100t100.5 63.5t109 35t102.5 9.5q48 0 99.5 -8.5t109 -33.5t102 -62t73.5 -100t29 -142q0 -120 -57 -202.5t-169 -121.5q119 -36 188.5 -130t69.5 -215q0 -94 -36.5 -168t-99.5 -119 t-141.5 -68t-168.5 -23q-88 0 -166.5 23t-141 68t-99.5 119t-37 168zM274 366q0 -60 20.5 -107t51.5 -75t73 -47t81 -26t79 -7q54 0 104 13t97.5 41t76 81.5t28.5 126.5q0 112 -80.5 184.5t-222.5 74.5q-149 -1 -228.5 -73.5t-79.5 -185.5zM300 1018q0 -108 75 -170.5 t204 -64.5q129 2 204.5 65t75.5 170q0 108 -74.5 170t-205.5 65q-37 0 -73 -7t-74 -24t-66.5 -43t-47 -67.5t-18.5 -93.5z" />
<glyph unicode="9" horiz-adv-x="1191" d="M146 907q0 89 29 170.5t83.5 147.5t142 105.5t195.5 39.5q126 0 224.5 -63.5t154.5 -166.5t74 -233q34 -243 -48 -444.5t-253 -326.5q-207 -152 -482 -152v125q216 0 382 107q104 69 172 175.5t89 241.5q-45 -86 -128 -138t-196 -52q-194 0 -316.5 134t-122.5 330z M275 907q0 -139 85 -239t236 -100q153 0 239 98t86 239q-17 148 -104.5 243.5t-220.5 95.5q-151 0 -236 -99.5t-85 -237.5z" />
<glyph unicode=":" horiz-adv-x="374" d="M102 66q0 35 25.5 60t60.5 25t60 -25t25 -60q0 -36 -25 -60.5t-60 -24.5q-36 0 -61 24.5t-25 60.5zM102 621q0 35 25.5 60t60.5 25t60 -25t25 -60q0 -36 -25 -61t-60 -25t-60.5 25t-25.5 61z" />
<glyph unicode=";" horiz-adv-x="376" d="M103 618q0 35 25.5 60t60.5 25t60 -25t25 -60q0 -36 -25 -60.5t-60 -24.5q-36 0 -61 24.5t-25 60.5zM105 64q0 35 25 60.5t60 25.5t60 -25.5t25 -60.5q0 -14 -3 -30.5t-13.5 -41t-27 -43.5t-49 -33t-74.5 -14q48 36 69 78q-31 5 -51.5 28.5t-20.5 55.5z" />
<glyph unicode="&#x3c;" horiz-adv-x="921" d="M128 644v86l666 402v-147l-495 -299l495 -298v-147z" />
<glyph unicode="=" horiz-adv-x="1103" d="M102 412v125h900v-125h-900zM102 744v125h900v-125h-900z" />
<glyph unicode="&#x3e;" horiz-adv-x="870" d="M102 241v147l495 298l-495 299v147l666 -402v-86z" />
<glyph unicode="?" horiz-adv-x="1044" d="M102 1294q181 152 415 157q175 5 293 -92q61 -47 96 -117.5t36 -156.5q1 -121 -65 -192t-195 -129q-43 -19 -67 -32t-54 -36.5t-45 -50.5t-26 -70t-11 -98h-134q0 72 14.5 128.5t36.5 93.5t61.5 69.5t74.5 52t91 44.5q36 16 60.5 28.5t51.5 32t43 40.5t26.5 51.5 t10.5 66.5q0 116 -87 182q-79 64 -204 62q-191 -2 -333 -124zM329 64q0 36 24.5 61t60.5 25q35 0 60 -25.5t25 -60.5q0 -36 -24.5 -60t-60.5 -24t-60.5 24t-24.5 60z" />
<glyph unicode="@" horiz-adv-x="1794" d="M140 544q0 97 9 179.5t32 165t60 148t95.5 123t136.5 95.5t185 59.5t238 21.5q109 0 201 -13.5t163 -37t128.5 -60t98 -78t70.5 -97t48.5 -110.5t29.5 -124t15 -133t4 -141v-314q0 -108 -74 -175.5t-193 -67.5q-116 0 -194 60t-89 156q-104 -72 -236 -72q-176 0 -284 118 t-108 310q0 200 107 313t285 113q137 0 236 -68v56h111v-728q1 -71 44.5 -108.5t124.5 -37.5q73 0 109.5 41.5t36.5 115.5v287q-1 87 -6.5 153.5t-22.5 139t-45 125t-75.5 102t-113 80t-159.5 49t-212 18.5q-112 0 -202.5 -18t-156 -50t-114 -80.5t-78.5 -102.5t-48.5 -124 t-25.5 -138.5t-7 -151.5t7 -152t25 -139.5t47 -126t76.5 -104.5t110.5 -81.5t151 -51t196 -18.5q86 0 113 3l115 -116q-75 -15 -231 -15q-126 0 -230 22t-179 61t-132.5 97.5t-93.5 124.5t-58.5 149.5t-31.5 167t-9 180.5zM599 556q0 -144 75 -225t207 -81q56 0 116.5 19 t93.5 49v487q-34 27 -92 41t-118 14q-134 0 -208 -79t-74 -225z" />
<glyph unicode="A" d="M90 0l609 1434h147l609 -1434h-139l-193 447h-701l-193 -447h-139zM475 578h595l-297 700z" />
<glyph unicode="B" horiz-adv-x="1320" d="M217 0v1434h515q175 0 294 -104t119 -269q0 -107 -53 -187.5t-144 -125.5q119 -40 191.5 -135t72.5 -222q0 -169 -122 -280t-298 -111h-575zM351 127h419q130 0 217.5 75.5t87.5 196.5t-87.5 196t-217.5 75h-419v-543zM351 798h354q133 0 218 68t85 187t-86 186.5 t-217 67.5h-354v-509z" />
<glyph unicode="C" horiz-adv-x="1495" d="M189 717q0 150 58.5 286.5t157.5 234.5t235.5 156t286.5 58q257 0 459 -162l-91 -90q-162 123 -368 123q-165 0 -304.5 -81t-220.5 -220.5t-81 -304.5t81 -305t220.5 -221t304.5 -81q205 0 365 121l94 -87q-205 -162 -459 -162q-150 0 -286.5 58t-235.5 156t-157.5 234.5 t-58.5 286.5z" />
<glyph unicode="D" horiz-adv-x="1648" d="M217 0v1434h504q150 0 286.5 -57t235.5 -153t157.5 -229t58.5 -278t-58.5 -278t-157.5 -229t-235.5 -153t-286.5 -57h-504zM349 128h372q165 0 304.5 79t220.5 214.5t81 295.5t-81 295.5t-220.5 214.5t-304.5 79h-372v-1178z" />
<glyph unicode="E" horiz-adv-x="1183" d="M217 0v1434h851v-124h-719v-504h711v-123h-711v-560h727v-123h-859z" />
<glyph unicode="F" horiz-adv-x="1171" d="M217 0v1434h847v-124h-715v-539h700v-123h-700v-648h-132z" />
<glyph unicode="G" horiz-adv-x="1562" d="M164 717q0 200 99 369.5t268.5 267.5t369.5 98q258 0 460 -162l-91 -90q-162 123 -369 123q-165 0 -304.5 -81t-220 -220.5t-80.5 -304.5q0 -124 47.5 -236.5t128.5 -193.5t193 -129t236 -48q179 0 326 98v476h132v-543q-202 -159 -458 -159q-200 0 -369.5 98 t-268.5 267.5t-99 369.5z" />
<glyph unicode="H" horiz-adv-x="1486" d="M217 0v1434h132v-621h790v621h131v-1434h-131v685h-790v-685h-132z" />
<glyph unicode="I" horiz-adv-x="565" d="M217 0v1434h132v-1434h-132z" />
<glyph unicode="J" horiz-adv-x="968" d="M90 -18v130h51h3q211 0 342 122q133 124 133 357v843h133v-843q0 -195 -81.5 -334.5t-218.5 -207.5q-134 -67 -307 -67h-5h-50z" />
<glyph unicode="K" horiz-adv-x="1308" d="M217 0v1434h132v-722l630 722h156l-481 -551l566 -883h-156l-499 781l-216 -247v-534h-132z" />
<glyph unicode="L" horiz-adv-x="1132" d="M217 0v1434h132v-1309h694v-125h-826z" />
<glyph unicode="M" horiz-adv-x="1851" d="M217 0v1434h148l561 -713l560 713h148v-1434h-131v1252l-577 -723l-577 723v-1252h-132z" />
<glyph unicode="N" horiz-adv-x="1527" d="M217 0v1434h148l815 -1222v1222h131v-1433h-148l-814 1223v-1224h-132z" />
<glyph unicode="O" horiz-adv-x="1802" d="M164 717q0 200 99 369.5t268.5 267.5t369.5 98q150 0 286.5 -58t235.5 -156t157.5 -234.5t58.5 -286.5t-58.5 -286.5t-157.5 -234.5t-235.5 -156t-286.5 -58q-200 0 -369.5 98t-268.5 267.5t-99 369.5zM296 717q0 -124 47.5 -236.5t128.5 -193.5t193 -129t236 -48 t236.5 48t193.5 129t129 193.5t48 236.5q0 165 -81 304.5t-221 220.5t-305 81t-304.5 -81t-220 -220.5t-80.5 -304.5z" />
<glyph unicode="P" horiz-adv-x="1298" d="M218 0v1434h474h3q199 0 319 -114q122 -116 122 -308q0 -190 -120 -306.5t-322 -116.5h-346v-589h-130zM349 718h338q143 0 230.5 80.5t87.5 213.5q0 131 -90.5 212.5t-227.5 81.5h-338v-588z" />
<glyph unicode="Q" horiz-adv-x="1804" d="M164 717q0 200 99 369.5t268.5 267.5t369.5 98q150 0 286.5 -58t235.5 -156t157.5 -234.5t58.5 -286.5q0 -266 -171 -471l171 -169l-92 -93l-171 170q-204 -172 -475 -172q-200 0 -369.5 98t-268.5 267.5t-99 369.5zM296 717q0 -124 47.5 -236.5t128.5 -193.5t193 -129 t236 -48t236.5 48t193.5 129t129 193.5t48 236.5q0 165 -81 304.5t-221 220.5t-305 81t-304.5 -81t-220 -220.5t-80.5 -304.5z" />
<glyph unicode="R" horiz-adv-x="1353" d="M218 0v1434h483q196 0 315 -109.5t119 -290.5q0 -161 -97.5 -267t-260.5 -127l413 -640h-154l-407 633h-281v-633h-130zM348 761h351q135 0 220 75t85 198q0 122 -87 197t-217 75h-352v-545z" />
<glyph unicode="S" horiz-adv-x="1071" d="M110 148l82 94q63 -71 152 -104q79 -29 162 -29h20q130 5 222 76t92 187q0 112 -60 179t-191 113l-92 32q-177 47 -277 141.5t-100 237.5q0 92 35 166t94.5 119t133 69t154.5 24q95 0 183.5 -31t149.5 -89l-82 -90q-48 43 -114 65q-61 20 -125 19h-12q-118 -3 -200 -67.5 t-82 -180.5q0 -99 71 -165.5t216 -108.5l102 -32q159 -51 242 -148.5t83 -252.5q0 -119 -63 -208.5t-161.5 -134t-216.5 -47.5h-11q-113 0 -219 40q-111 42 -188 126z" />
<glyph unicode="T" horiz-adv-x="1183" d="M90 1310v124h1003v-124h-436v-1310h-131v1310h-436z" />
<glyph unicode="U" d="M218 528v906h134v-892q0 -180 124.5 -305.5t303.5 -125.5t304.5 125.5t125.5 305.5v892h134v-906q0 -146 -72.5 -271t-203 -200t-288.5 -75q-119 0 -224 44t-179 118t-116.5 174.5t-42.5 209.5z" />
<glyph unicode="V" horiz-adv-x="1529" d="M90 1434h135l540 -1265l540 1265h136l-602 -1434h-147z" />
<glyph unicode="W" horiz-adv-x="2185" d="M90 1434h136l416 -1226l375 1226h152l374 -1226l416 1226h137l-479 -1434h-146l-378 1227l-379 -1227h-145z" />
<glyph unicode="X" horiz-adv-x="1329" d="M90 0l492 749l-450 685h148l388 -592l383 592h147l-448 -689l490 -745h-148l-427 652l-429 -652h-146z" />
<glyph unicode="Y" horiz-adv-x="1372" d="M90 1434h145l451 -709l452 709h145l-532 -833v-601h-131v600z" />
<glyph unicode="Z" horiz-adv-x="1179" d="M109 0v124l807 1186h-781v124h930v-124l-807 -1187h813v-123h-962z" />
<glyph unicode="[" horiz-adv-x="464" d="M102 -287v1823h261v-125h-133v-1573h133v-125h-261z" />
<glyph unicode="\" horiz-adv-x="983" d="M102 1434h133l645 -1434h-132z" />
<glyph unicode="]" horiz-adv-x="464" d="M102 -162h134v1573h-134v125h261v-1823h-261v125z" />
<glyph unicode="^" horiz-adv-x="1091" d="M102 695l402 665h85l401 -665h-146l-298 494l-297 -494h-147z" />
<glyph unicode="_" horiz-adv-x="1103" d="M102 -131h900v-125h-900v125z" />
<glyph unicode="`" horiz-adv-x="516" d="M102 1434h172l140 -257h-121z" />
<glyph unicode="a" horiz-adv-x="1132" d="M128 346q0 160 110 256q109 95 309 94h4q175 -2 320 -79q-4 147 -86.5 226t-234.5 79q-210 0 -325 -86l-51 100q141 106 389 106q209 0 322 -118t115 -324v-600h-116v108q-53 -54 -155 -89t-202 -35h-4q-184 0 -289 93q-106 94 -106 269zM256 343q0 -112 71 -172.5 t212 -60.5q78 0 174 30.5t158 78.5v282q-127 76 -319 76q-148 -1 -222 -64t-74 -170z" />
<glyph unicode="b" horiz-adv-x="1212" d="M176 0v1434h128v-481q126 85 289 86h3q225 0 347.5 -132.5t122.5 -397.5q0 -525 -472 -525q-84 0 -165 27.5t-136 74.5v-86h-117zM304 202q48 -47 124 -73t152 -26q190 0 272.5 100t82.5 302q0 412 -354 412q-172 0 -277 -80v-635z" />
<glyph unicode="c" horiz-adv-x="1144" d="M148 513q0 144 71.5 265.5t193.5 192t265 70.5q186 0 330 -115l-91 -90q-105 80 -239 80q-167 0 -284.5 -117.5t-117.5 -285.5t117.5 -285.5t284.5 -117.5q133 0 238 79l90 -90q-145 -114 -328 -114q-143 0 -265 70t-193.5 192t-71.5 266z" />
<glyph unicode="d" horiz-adv-x="1212" d="M148 509q0 265 122.5 397.5t347.5 132.5h3q162 -1 288 -86v481h128v-1434h-117v86q-55 -47 -135.5 -74.5t-164.5 -27.5q-472 0 -472 525zM278 505q0 -202 82.5 -302t272.5 -100q76 0 152 26t124 73v635q-105 80 -276 80q-355 0 -355 -412z" />
<glyph unicode="e" horiz-adv-x="1290" d="M148 512q0 143 71 264.5t192.5 192.5t265.5 71q207 0 346 -130q103 -95 125 -215q5 -28 5 -52q0 -76 -49 -123t-137 -47h-674q0 -157 117 -262t281 -105q190 0 291 94l92 -89q-136 -127 -379 -127q-144 1 -268 65t-201.5 186.5t-77.5 276.5zM295 591h622q71 -1 89 53 q6 17 6 36q0 38 -26 81q-37 67 -117.5 113.5t-191.5 46.5q-154 0 -263 -97t-119 -233z" />
<glyph unicode="f" horiz-adv-x="765" d="M102 902v122h168v185q0 110 79.5 176t202.5 66h111v-114h-111q-63 0 -108.5 -34.5t-45.5 -93.5v-185h245v-122h-245v-902h-128v902h-168z" />
<glyph unicode="g" horiz-adv-x="1214" d="M270 914q121 126 350 126q84 0 164.5 -27.5t135.5 -74.5v86h118v-907q-1 -250 -100 -359q-97 -106 -323 -106h-13q-117 2 -206 22.5t-174 68.5l16 103q88 -45 172 -64q76 -16 171 -16h21q115 1 179 30.5t95 100.5t36 200q-107 -101 -291 -103q-228 0 -351 129 q-122 128 -122 392q0 272 122 399zM278 519q0 -195 84 -298.5t271 -103.5q72 0 146 26.5t130 74.5v604q-48 47 -124 73t-152 26q-190 0 -272.5 -100t-82.5 -302z" />
<glyph unicode="h" horiz-adv-x="1255" d="M187 0v1434h125v-504q66 50 153 80q84 30 171 29h6q229 -1 338 -136t109 -410v-493h-129v494q0 220 -78.5 323t-266.5 103q-75 0 -155.5 -28t-143.5 -71v-821h-129z" />
<glyph unicode="i" horiz-adv-x="489" d="M170 1262q0 33 24 57t57 24t57 -24t24 -57t-24 -57t-57 -24t-57 24t-24 57zM189 0v1024h125v-1024h-125z" />
<glyph unicode="j" horiz-adv-x="714" d="M183 -241h49q80 0 122 50.5t42 137.5v1077h125v-1077q-1 -140 -75 -222q-73 -81 -211 -81h-3h-49v115zM377 1262q0 33 24 57t57 24q34 0 57.5 -24t23.5 -57t-23.5 -57t-57.5 -24q-33 0 -57 24t-24 57z" />
<glyph unicode="k" horiz-adv-x="1142" d="M187 0v1434h128v-874l468 464h171l-381 -387l476 -637h-152l-413 542l-169 -167v-375h-128z" />
<glyph unicode="l" horiz-adv-x="477" d="M187 0v1434h125v-1434h-125z" />
<glyph unicode="m" horiz-adv-x="2017" d="M176 0v1024h126v-94q63 48 145.5 78t169.5 31h12q256 0 365 -170q81 72 191.5 120.5t212.5 49.5h3q229 1 339 -133t111 -413v-493h-128v494q-1 220 -79 324q-78 103 -260 102h-4q-81 0 -177 -41t-168 -95q44 -111 44 -291v-493h-130v494q0 221 -79 324q-78 102 -262 102 h-4q-75 -1 -155.5 -28.5t-142.5 -70.5v-821h-130z" />
<glyph unicode="n" horiz-adv-x="1245" d="M177 0v1024h125v-94q67 50 156 80q86 29 175 29h6q227 -4 333.5 -138.5t106.5 -407.5v-493h-130v494q0 221 -78 324q-77 102 -263 102h-4q-75 -1 -154.5 -28.5t-143.5 -70.5v-821h-129z" />
<glyph unicode="o" horiz-adv-x="1355" d="M148 512q0 144 71.5 265.5t193.5 192t265 70.5t265 -70.5t193.5 -192t71.5 -265.5t-71.5 -266t-193.5 -192t-265 -70t-265 70t-193.5 192t-71.5 266zM277 512q0 -168 117 -285t284 -117t284 117t117 285t-117 285t-284 117t-284 -117t-117 -285z" />
<glyph unicode="p" horiz-adv-x="1212" d="M176 -364v1388h117v-86q55 47 136 74.5t165 27.5q229 0 350 -126q122 -127 122 -399q0 -265 -122 -397q-124 -134 -351 -134q-157 1 -289 92v-440h-128zM304 192q49 -39 125 -62t152 -23q354 0 354 412q0 202 -82.5 302t-272.5 100q-76 0 -152 -26t-124 -73v-630z" />
<glyph unicode="q" horiz-adv-x="1212" d="M270 914q121 126 350 126q84 0 164.5 -27.5t135.5 -74.5v86h117v-1388h-128v440q-132 -91 -288 -92q-227 0 -351 134q-122 132 -122 397q0 272 122 399zM278 519q0 -412 355 -412q76 0 151.5 23t124.5 62v630q-48 47 -124 73t-152 26q-190 0 -272.5 -100t-82.5 -302z" />
<glyph unicode="r" horiz-adv-x="999" d="M176 0v1024h126v-169q70 83 166.5 133t199.5 51h6q123 0 232 -80l-91 -92q-82 55 -174 55h-6q-177 -3 -329 -183v-739h-130z" />
<glyph unicode="s" horiz-adv-x="843" d="M102 122l83 84q115 -97 231 -99q83 0 138.5 46t57.5 114v15q0 69 -42 115q-48 51 -164 86q-141 38 -211 106.5t-70 182.5q0 119 87 194t207 76h7q73 0 132 -21q62 -22 130 -70l-86 -85q-83 50 -170 50q-69 0 -121 -36.5t-55 -97.5v-12q0 -56 35 -96q39 -44 140 -73 q167 -48 239 -126t72 -207q0 -125 -93 -206t-233 -81q-166 0 -314 141z" />
<glyph unicode="t" horiz-adv-x="745" d="M102 902v122h148v260h129v-260h264v-122h-265v-677q0 -59 45.5 -93.5t108.5 -34.5h111v-114h-111q-123 0 -202.5 66t-79.5 176v677h-148z" />
<glyph unicode="u" horiz-adv-x="1263" d="M167 531v493h129v-493q0 -222 75 -325q74 -102 254 -102h3q83 1 169.5 35t159.5 97v788l130 -1v-1023h-126v125q-157 -141 -360 -141h-8q-220 4 -323 139t-103 408z" />
<glyph unicode="v" horiz-adv-x="1144" d="M95 1024h124l353 -871l353 871h125l-413 -1024h-130z" />
<glyph unicode="w" horiz-adv-x="1699" d="M95 1024h124l286 -836l279 836h133l279 -836l286 836h124l-345 -1024h-132l-279 837l-278 -836h-132z" />
<glyph unicode="x" horiz-adv-x="1030" d="M95 0l341 516l-341 508h153l276 -415l260 415h152l-339 -520l339 -504h-152l-274 411l-263 -411h-152z" />
<glyph unicode="y" horiz-adv-x="1185" d="M139 546v478h129v-478q0 -221 78.5 -323t265.5 -102q74 0 154.5 27.5t144.5 69.5v806h130v-933q-6 -233 -115 -338q-105 -101 -330 -101h-17q-117 2 -206.5 23t-173.5 68l15 103q85 -44 170 -62q81 -18 184 -18h11q174 1 249 65.5t88 229.5v48q-65 -48 -149 -78t-173 -31 h-3q-230 0 -341 134t-111 412z" />
<glyph unicode="z" horiz-adv-x="913" d="M102 0v112l541 789h-514v123h674v-115l-540 -788h549v-121h-710z" />
<glyph unicode="{" horiz-adv-x="739" d="M102 562v125h11q95 3 158 63t63 147v483q0 68 42.5 112t102.5 44h159v-122h-88q-38 0 -63 -26t-25 -68v-462q0 -79 -45 -142t-119 -91q74 -29 119 -92t45 -142v-462q0 -42 25 -68t63 -26h88v-122h-159q-60 0 -102.5 44t-42.5 112v484q0 86 -63 145.5t-158 63.5h-11z" />
<glyph unicode="|" horiz-adv-x="333" d="M102 -123v1557h129v-1557h-129z" />
<glyph unicode="}" horiz-adv-x="739" d="M102 -165h89q38 0 63 26t25 68v462q0 79 44.5 142t118.5 92q-74 28 -118.5 91t-44.5 142v462q0 42 -25 68t-63 26h-89v122h159q60 0 102.5 -44t42.5 -112v-484q0 -86 63.5 -146t158.5 -63h10v-125h-10q-95 -4 -158.5 -63.5t-63.5 -145.5v-484q0 -68 -42.5 -112 t-102.5 -44h-159v122z" />
<glyph unicode="~" horiz-adv-x="954" d="M102 461v142l72 72q33 33 78.5 41t89 -4t89.5 -39l125 -73q124 -74 198 -1l100 99v-142l-71 -70q-95 -95 -256 0l-126 74q-36 21 -69.5 30t-68.5 3t-60 -31z" />
<glyph unicode="&#xa1;" horiz-adv-x="374" d="M102 1037q0 36 25 60.5t61 24.5q35 0 60 -24.5t25 -60.5q0 -35 -25 -60t-60 -25t-60.5 25t-25.5 60zM123 -334v1109h128v-1109h-128z" />
<glyph unicode="&#xa2;" horiz-adv-x="1134" d="M140 513q0 199 131 347.5t325 175.5v195h81v-191q185 -4 323 -114l-91 -91q-99 76 -232 78v-800q131 2 230 77l91 -91q-133 -104 -321 -113v-187h-81v192q-194 26 -325 174.5t-131 347.5zM268 513q0 -147 93.5 -258t234.5 -135v786q-141 -24 -234.5 -135t-93.5 -258z" />
<glyph unicode="&#xa3;" horiz-adv-x="1280" d="M106 -11v125q157 9 207.5 106t17.5 292l-24 147h-201v123h181l-36 211q-17 102 1 182.5t60 130.5t104.5 83t127 46t135.5 13q246 0 436 -153l-83 -82q-156 113 -344 108q-37 -1 -69.5 -6t-66.5 -16.5t-60.5 -29.5t-50.5 -44.5t-35.5 -63t-17.5 -84t5 -107.5l31 -188h401 v-123h-381l23 -137q56 -321 -95 -408h806v-125h-1072z" />
<glyph unicode="&#xa4;" horiz-adv-x="1228" />
<glyph unicode="&#xa5;" horiz-adv-x="1327" d="M70 1434h146l446 -656l449 656h146l-380 -551h255v-124h-341l-61 -102v-41h402v-124h-406v-492h-128v492h-401v124h399v41l-61 102h-338v124h252z" />
<glyph unicode="&#xa6;" horiz-adv-x="331" d="M102 -123v673h128v-673h-128zM102 760v673h128v-673h-128z" />
<glyph unicode="&#xa7;" horiz-adv-x="931" d="M105 -50l47 92q111 -55 291 -55q111 0 169.5 43t58.5 115q0 61 -35.5 105.5t-131.5 79.5l-207 76q-97 35 -143.5 98t-46.5 140q0 114 87 185q-40 33 -63 84t-23 109q0 110 89 183t249 73q109 0 203.5 -25t151.5 -60l-51 -103q-46 28 -129 44.5t-160 16.5 q-103 0 -157.5 -35.5t-54.5 -95.5q0 -94 140 -144l190 -69q123 -46 187 -123.5t64 -172.5q0 -106 -67 -184q66 -79 66 -182q0 -124 -95.5 -205t-257.5 -81q-116 0 -214.5 28t-156.5 63zM243 644q0 -86 112 -127l180 -66q89 -38 100 -46q45 56 42 120q-3 115 -161 172 l-186 69q-38 -13 -62.5 -44.5t-24.5 -77.5z" />
<glyph unicode="&#xa8;" horiz-adv-x="804" d="M102 1360q0 35 25.5 60t60.5 25q36 0 60.5 -25t24.5 -60t-24.5 -60t-60.5 -25q-35 0 -60.5 25t-25.5 60zM531 1360q0 35 25 60t60 25q36 0 61 -25t25 -60t-25 -60t-61 -25q-35 0 -60 25t-25 60z" />
<glyph unicode="&#xa9;" horiz-adv-x="1675" d="M102 717q0 150 58.5 286t157 234.5t234.5 156.5t286 58q200 0 369 -98.5t267.5 -267.5t98.5 -369t-98.5 -369t-267.5 -267.5t-369 -98.5q-150 0 -286 58t-234.5 156.5t-157 234.5t-58.5 286zM222 717q0 -168 82.5 -309.5t224 -224t309.5 -82.5t309.5 82.5t224 224 t82.5 309.5q0 167 -82.5 309t-224 224.5t-309.5 82.5t-309.5 -82.5t-224 -224.5t-82.5 -309zM468 718q0 155 111.5 266.5t266.5 111.5q141 0 245 -90l-88 -87q-69 53 -154 53q-106 0 -179.5 -74t-73.5 -180t73.5 -179.5t179.5 -73.5q85 0 152 51l88 -88q-106 -88 -243 -88 q-155 0 -266.5 111t-111.5 267z" />
<glyph unicode="&#xaa;" horiz-adv-x="763" d="M71 1012q0 108 75.5 167t202.5 59q108 0 185 -40q-15 162 -183 162q-140 0 -209 -63l-44 86q92 75 261 75q137 0 212.5 -78t76.5 -210v-386h-104v53q-39 -29 -96.5 -46t-111.5 -17q-121 -1 -193 62t-72 176zM182 1010q0 -139 162 -139q48 0 105.5 19t86.5 49v163 q-69 45 -184 45q-86 0 -128 -36t-42 -101z" />
<glyph unicode="&#xab;" horiz-adv-x="907" d="M102 515v116l343 245v-139l-246 -165l246 -163v-139zM462 515v116l342 245v-139l-245 -165l246 -163v-139z" />
<glyph unicode="&#xac;" horiz-adv-x="1103" d="M102 569v125h899v-378h-125v253h-774z" />
<glyph unicode="&#xad;" horiz-adv-x="790" d="M102 515v125h586v-125h-586z" />
<glyph unicode="&#xae;" horiz-adv-x="1675" d="M102 717q0 150 58.5 286t157 234.5t234.5 156.5t286 58q200 0 369 -98.5t267.5 -267.5t98.5 -369t-98.5 -369t-267.5 -267.5t-369 -98.5q-150 0 -286 58t-234.5 156.5t-157 234.5t-58.5 286zM222 717q0 -168 82.5 -309.5t224 -224t309.5 -82.5t309.5 82.5t224 224 t82.5 309.5q0 167 -82.5 309t-224 224.5t-309.5 82.5t-309.5 -82.5t-224 -224.5t-82.5 -309zM598 362v732h255q102 0 166.5 -59.5t64.5 -151.5q0 -74 -44.5 -128t-117.5 -72l208 -321h-119l-186 309h-120v-309h-107zM706 770h146q55 0 89.5 30t34.5 83q0 52 -34.5 82 t-89.5 30h-146v-225z" />
<glyph unicode="&#xaf;" horiz-adv-x="831" d="M102 1327v107h626v-107h-626z" />
<glyph unicode="&#xb0;" horiz-adv-x="761" d="M102 1173q0 115 82 196.5t197 81.5q116 0 197.5 -81.5t81.5 -196.5q0 -116 -81.5 -196.5t-197.5 -80.5q-115 0 -197 80.5t-82 196.5zM230 1173q0 -63 44 -107t107 -44q62 0 106.5 44t44.5 107t-44.5 107.5t-106.5 44.5q-63 0 -107 -44.5t-44 -107.5z" />
<glyph unicode="&#xb1;" horiz-adv-x="1103" d="M102 0v126h900v-126h-900zM102 687v125h387v286h126v-286h387v-125h-387v-284h-126v284h-387z" />
<glyph unicode="&#xb2;" horiz-adv-x="630" d="M93 750v68q0 68 13.5 122t32.5 87t50 59.5t55.5 39.5t59.5 27q5 2 23 8t23.5 8.5t19.5 8.5t19 10t14.5 11.5t13 14.5t7 17t4.5 22q1 42 -28 68q-30 26 -84 26q-85 0 -150 -56l-67 67q98 87 222 90q100 3 163 -54q62 -54 58 -142q-1 -30 -12 -54.5t-24 -40t-40 -32 t-45 -25t-55 -24.5q-38 -16 -61 -30t-47 -38.5t-35 -61.5t-11 -89h327v-107h-446z" />
<glyph unicode="&#xb3;" horiz-adv-x="618" d="M87 818l67 67q65 -48 142 -48q51 -1 85.5 26t34.5 76q0 52 -33 81t-95 32h-67v98h65q57 1 89 29t32 76q0 46 -31 71.5t-78 24.5q-77 1 -144 -50l-66 66q102 80 224 80q92 0 152 -48.5t60 -132.5q0 -62 -35 -105t-93 -57q62 -11 99 -59t37 -121q0 -85 -59.5 -134 t-161.5 -52q-122 0 -224 80z" />
<glyph unicode="&#xb4;" horiz-adv-x="516" d="M102 1177l141 257h171l-191 -257h-121z" />
<glyph unicode="&#xb6;" horiz-adv-x="1228" d="M83 1024q0 219 122.5 314.5t377.5 95.5h544v-125h-78v-1643h-128v1643h-215v-1643h-128v965q-241 0 -368 104t-127 289z" />
<glyph unicode="&#xb7;" horiz-adv-x="374" d="M102 642q0 35 25.5 60t60.5 25t60 -25t25 -60q0 -36 -25 -60.5t-60 -24.5q-36 0 -61 24.5t-25 60.5z" />
<glyph unicode="&#xb8;" horiz-adv-x="530" d="M97 -303h169q37 0 56 20t19 46q0 30 -18 50.5t-57 20.5h-89v171h85v-92h19q72 0 112.5 -43.5t40.5 -105.5t-45 -107.5t-116 -45.5h-176v86z" />
<glyph unicode="&#xb9;" horiz-adv-x="319" d="M102 741v693h116v-693h-116z" />
<glyph unicode="&#xba;" horiz-adv-x="839" d="M74 1116q0 142 102 243.5t244 101.5t244.5 -101.5t102.5 -243.5t-102.5 -243.5t-244.5 -101.5q-141 0 -243.5 101.5t-102.5 243.5zM185 1116q0 -99 68.5 -167.5t166.5 -68.5t166.5 68.5t68.5 167.5t-68.5 167.5t-166.5 68.5t-166.5 -68.5t-68.5 -167.5z" />
<glyph unicode="&#xbb;" horiz-adv-x="907" d="M102 270v139l246 163l-246 165v139l343 -245v-116zM462 270v139l245 164l-245 164v139l343 -245v-115z" />
<glyph unicode="&#xbc;" horiz-adv-x="1331" d="M102 741v693h116v-693h-116zM206 0l645 1434h133l-645 -1434h-133zM721 167v108l328 417h129v-423h51v-102h-51v-167h-116v167h-341zM829 269h233v302z" />
<glyph unicode="&#xbd;" horiz-adv-x="1372" d="M102 741v693h116v-693h-116zM194 0l645 1434h133l-646 -1434h-132zM820 0v69q0 68 13.5 121.5t32.5 86.5t50 60t55 40t59 27q6 2 26.5 9t26.5 9.5t21.5 9.5t21 12.5t14 14.5t11.5 20t4 24q1 38 -22 63q-31 33 -94 31q-85 -3 -146 -55l-67 67q95 84 215 89q108 7 175 -57 q56 -53 53 -137q-1 -37 -14 -64.5t-41 -48.5t-51.5 -33t-68.5 -31q-38 -16 -61 -30t-47.5 -38.5t-35.5 -61.5t-11 -89h327v-108h-446z" />
<glyph unicode="&#xbe;" horiz-adv-x="1521" d="M102 818l67 67q65 -48 142 -48q51 -1 86 26t35 76q0 52 -33 81t-95 32h-67v98h65q57 1 89 29t32 76q0 46 -31 71.5t-79 24.5q-76 1 -143 -50l-67 66q102 80 225 80q92 0 152 -48.5t60 -132.5q0 -61 -35 -104.5t-94 -57.5q62 -11 99.5 -59t37.5 -121q0 -85 -59.5 -134 t-161.5 -52q-123 0 -225 80zM396 0l645 1434h133l-645 -1434h-133zM911 167v108l328 417h129v-423h51v-102h-51v-167h-116v167h-341zM1019 269h233v302z" />
<glyph unicode="&#xbf;" horiz-adv-x="1044" d="M102 34q-1 64 17.5 114t57 87.5t81 64t104.5 54.5q43 19 67 32t54.5 36.5t45.5 50.5t26 70t11 98h134q0 -72 -15 -128t-36.5 -93t-61.5 -69.5t-75 -51.5t-91 -45q-36 -16 -60.5 -28.5t-51.5 -32t-43 -40.5t-26.5 -51.5t-10.5 -66.5q0 -114 88 -182q79 -65 204 -63 q189 2 333 124l88 -89q-181 -152 -414 -157q-175 -5 -293 92q-61 46 -96.5 117t-36.5 157zM546 1054q0 36 25 60.5t60 24.5q36 0 60.5 -24.5t24.5 -60.5q0 -35 -24.5 -60t-60.5 -25q-35 0 -60 25t-25 60z" />
<glyph unicode="&#xc0;" d="M90 0l609 1434h147l609 -1434h-139l-193 447h-701l-193 -447h-139zM475 578h595l-297 700zM570 1843h172l139 -256h-121z" />
<glyph unicode="&#xc1;" d="M90 0l609 1434h147l609 -1434h-139l-193 447h-701l-193 -447h-139zM475 578h595l-297 700zM664 1587l140 256h171l-190 -256h-121z" />
<glyph unicode="&#xc2;" d="M90 0l609 1434h147l609 -1434h-139l-193 447h-701l-193 -447h-139zM456 1568l252 275h131l252 -275h-146l-172 195l-171 -195h-146zM475 578h595l-297 700z" />
<glyph unicode="&#xc3;" d="M90 0l609 1434h147l609 -1434h-139l-193 447h-701l-193 -447h-139zM475 578h595l-297 700zM485 1638v125l60 60q70 70 189 0l91 -54q93 -54 146 -1l74 73v-126l-47 -46q-27 -27 -63 -33.5t-67.5 2t-63.5 27.5l-92 54q-93 53 -141 5z" />
<glyph unicode="&#xc4;" d="M90 0l609 1434h147l609 -1434h-139l-193 447h-701l-193 -447h-139zM474 1770q0 35 24.5 60t60.5 25q35 0 60.5 -25t25.5 -60t-25.5 -60t-60.5 -25q-36 0 -60.5 25t-24.5 60zM475 578h595l-297 700zM903 1770q0 35 24.5 60t60.5 25q35 0 60 -25t25 -60t-25 -60t-60 -25 q-36 0 -60.5 25t-24.5 60z" />
<glyph unicode="&#xc5;" d="M90 0l607 1429q-59 23 -95.5 76t-36.5 120q0 85 60.5 145.5t147.5 60.5q86 0 147.5 -60.5t61.5 -145.5q0 -66 -37.5 -119.5t-96.5 -76.5l607 -1429h-139l-193 447h-701l-193 -447h-139zM475 578h595l-297 700zM669 1624q0 -44 30 -75t74 -31t74.5 31t30.5 75q0 42 -31 73 t-74 31q-44 0 -74 -30.5t-30 -73.5z" />
<glyph unicode="&#xc6;" horiz-adv-x="1724" d="M90 0l609 1434h908v-124h-719v-504h712v-123h-712v-560h727v-123h-858v447h-336l-193 -447h-138zM474 578h281v664z" />
<glyph unicode="&#xc7;" horiz-adv-x="1495" d="M189 717q0 150 58.5 286.5t157.5 234.5t235.5 156t286.5 58q257 0 459 -162l-91 -90q-162 123 -368 123q-165 0 -304.5 -81t-220.5 -220.5t-81 -304.5t81 -305t220.5 -221t304.5 -81q205 0 365 121l94 -87q-196 -156 -438 -162h-33v-71h20q71 0 111 -42.5t40 -104.5 t-44.5 -107t-114.5 -45h-174v83h167q37 0 57 21t20 47q0 30 -18.5 51t-58.5 21h-87v152q-179 23 -326.5 124.5t-232.5 261t-85 344.5z" />
<glyph unicode="&#xc8;" horiz-adv-x="1183" d="M217 0v1434h851v-124h-719v-504h711v-123h-711v-560h727v-123h-859zM477 1843h171l139 -256h-121z" />
<glyph unicode="&#xc9;" horiz-adv-x="1183" d="M217 0v1434h851v-124h-719v-504h711v-123h-711v-560h727v-123h-859zM514 1587l139 256h171l-189 -256h-121z" />
<glyph unicode="&#xca;" horiz-adv-x="1183" d="M217 0v1434h851v-124h-719v-504h711v-123h-711v-560h727v-123h-859zM314 1568l253 275h131l252 -275h-146l-172 195l-172 -195h-146z" />
<glyph unicode="&#xcb;" horiz-adv-x="1185" d="M219 0v1434h851v-124h-720v-504h712v-123h-712v-560h728v-123h-859zM334 1770q0 35 25 60t61 25q35 0 60 -25t25 -60t-25 -60t-60 -25q-36 0 -61 25t-25 60zM763 1770q0 35 24.5 60t60.5 25q35 0 60.5 -25t25.5 -60t-25.5 -60t-60.5 -25q-36 0 -60.5 25t-24.5 60z" />
<glyph unicode="&#xcc;" horiz-adv-x="604" d="M188 1843h172l139 -256h-121zM280 0v1434h131v-1434h-131z" />
<glyph unicode="&#xcd;" horiz-adv-x="565" d="M129 1587l139 256h172l-190 -256h-121zM217 0v1434h132v-1434h-132z" />
<glyph unicode="&#xce;" horiz-adv-x="567" d="M-34 1568l253 275h131l252 -275h-146l-172 195l-172 -195h-146zM220 0v1434h131v-1434h-131z" />
<glyph unicode="&#xcf;" horiz-adv-x="567" d="M-16 1770q0 35 25 60t61 25q35 0 60 -25t25 -60t-25 -60t-60 -25q-36 0 -61 25t-25 60zM219 0v1434h132v-1434h-132zM413 1770q0 35 25 60t61 25q35 0 60 -25t25 -60t-25 -60t-60 -25q-36 0 -61 25t-25 60z" />
<glyph unicode="&#xd0;" horiz-adv-x="1712" d="M74 664v125h220v645h504q150 0 286 -57t235 -153t157.5 -229t58.5 -278t-58.5 -278t-157.5 -229t-235 -153t-286 -57h-504v664h-220zM425 128h373q124 0 236 47t193 126t128.5 188t47.5 228t-47.5 228t-128.5 188t-193 126t-236 47h-373v-517h235v-125h-235v-536z" />
<glyph unicode="&#xd1;" horiz-adv-x="1527" d="M217 0v1434h148l815 -1223v1223h131v-1434h-148l-814 1224v-1224h-132zM489 1638v125l59 60q70 70 189 0l91 -54q93 -54 146 -1l74 73v-126l-47 -46q-27 -27 -63 -33.5t-67.5 2t-63.5 27.5l-92 54q-92 53 -140 5z" />
<glyph unicode="&#xd2;" horiz-adv-x="1802" d="M164 717q0 200 99 369.5t268.5 267.5t369.5 98q150 0 286.5 -58t235.5 -156t157.5 -234.5t58.5 -286.5t-58.5 -286.5t-157.5 -234.5t-235.5 -156t-286.5 -58q-200 0 -369.5 98t-268.5 267.5t-99 369.5zM296 717q0 -124 47.5 -236.5t128.5 -193.5t193 -129t236 -48 t236.5 48t193.5 129t129 193.5t48 236.5q0 165 -81 304.5t-221 220.5t-305 81t-304.5 -81t-220 -220.5t-80.5 -304.5zM705 1843h171l139 -256h-121z" />
<glyph unicode="&#xd3;" horiz-adv-x="1802" d="M164 717q0 200 99 369.5t268.5 267.5t369.5 98q150 0 286.5 -58t235.5 -156t157.5 -234.5t58.5 -286.5t-58.5 -286.5t-157.5 -234.5t-235.5 -156t-286.5 -58q-200 0 -369.5 98t-268.5 267.5t-99 369.5zM296 717q0 -124 47.5 -236.5t128.5 -193.5t193 -129t236 -48 t236.5 48t193.5 129t129 193.5t48 236.5q0 165 -81 304.5t-221 220.5t-305 81t-304.5 -81t-220 -220.5t-80.5 -304.5zM788 1587l140 256h171l-190 -256h-121z" />
<glyph unicode="&#xd4;" horiz-adv-x="1802" d="M164 717q0 200 99 369.5t268.5 267.5t369.5 98q150 0 286.5 -58t235.5 -156t157.5 -234.5t58.5 -286.5t-58.5 -286.5t-157.5 -234.5t-235.5 -156t-286.5 -58q-200 0 -369.5 98t-268.5 267.5t-99 369.5zM296 717q0 -124 47.5 -236.5t128.5 -193.5t193 -129t236 -48 t236.5 48t193.5 129t129 193.5t48 236.5q0 165 -81 304.5t-221 220.5t-305 81t-304.5 -81t-220 -220.5t-80.5 -304.5zM584 1568l252 275h131l252 -275h-146l-172 195l-171 -195h-146z" />
<glyph unicode="&#xd5;" horiz-adv-x="1802" d="M164 717q0 200 99 369.5t268.5 267.5t369.5 98q150 0 286.5 -58t235.5 -156t157.5 -234.5t58.5 -286.5t-58.5 -286.5t-157.5 -234.5t-235.5 -156t-286.5 -58q-200 0 -369.5 98t-268.5 267.5t-99 369.5zM296 717q0 -124 47.5 -236.5t128.5 -193.5t193 -129t236 -48 t236.5 48t193.5 129t129 193.5t48 236.5q0 165 -81 304.5t-221 220.5t-305 81t-304.5 -81t-220 -220.5t-80.5 -304.5zM625 1639v125l59 60q70 70 189 0l92 -55q92 -53 145 0l74 73v-126l-46 -47q-75 -73 -195 -3l-92 54q-92 53 -140 5z" />
<glyph unicode="&#xd6;" horiz-adv-x="1802" d="M164 717q0 200 99 369.5t268.5 267.5t369.5 98q150 0 286.5 -58t235.5 -156t157.5 -234.5t58.5 -286.5t-58.5 -286.5t-157.5 -234.5t-235.5 -156t-286.5 -58q-200 0 -369.5 98t-268.5 267.5t-99 369.5zM296 717q0 -124 47.5 -236.5t128.5 -193.5t193 -129t236 -48 t236.5 48t193.5 129t129 193.5t48 236.5q0 165 -81 304.5t-221 220.5t-305 81t-304.5 -81t-220 -220.5t-80.5 -304.5zM602 1770q0 35 24.5 60t60.5 25q35 0 60.5 -25t25.5 -60t-25.5 -60t-60.5 -25q-36 0 -60.5 25t-24.5 60zM1031 1770q0 35 24.5 60t60.5 25q35 0 60 -25 t25 -60t-25 -60t-60 -25q-36 0 -60.5 25t-24.5 60z" />
<glyph unicode="&#xd7;" horiz-adv-x="927" d="M102 358l274 274l-274 273l89 88l273 -273l273 273l89 -88l-273 -273l273 -274l-89 -88l-273 273l-273 -273z" />
<glyph unicode="&#xd8;" horiz-adv-x="1802" d="M164 717q0 200 99 369.5t268.5 267.5t369.5 98q120 0 233 -37l54 121h133l-76 -168q179 -94 286.5 -268t107.5 -383q0 -150 -58.5 -286.5t-157.5 -234.5t-235.5 -156t-286.5 -58q-135 0 -259 46l-59 -130h-132l82 182q-168 97 -268.5 266.5t-100.5 370.5zM296 717 q0 -162 78.5 -300t211.5 -219l494 1099q-87 26 -179 26q-165 0 -304.5 -81t-220 -220.5t-80.5 -304.5zM695 146q100 -36 206 -36q124 0 236.5 48t193.5 129t129 193.5t48 236.5q0 171 -86 312.5t-230 220.5z" />
<glyph unicode="&#xd9;" d="M218 528v906h134v-892q0 -180 124.5 -305.5t303.5 -125.5t304.5 125.5t125.5 305.5v892h134v-906q0 -146 -72.5 -271t-203 -200t-288.5 -75q-119 0 -224 44t-179 118t-116.5 174.5t-42.5 209.5zM560 1880h172l139 -257h-121z" />
<glyph unicode="&#xda;" d="M218 528v906h134v-892q0 -180 124.5 -305.5t303.5 -125.5t304.5 125.5t125.5 305.5v892h134v-906q0 -146 -72.5 -271t-203 -200t-288.5 -75q-119 0 -224 44t-179 118t-116.5 174.5t-42.5 209.5zM658 1587l139 256h172l-190 -256h-121z" />
<glyph unicode="&#xdb;" d="M218 528v906h134v-892q0 -180 124.5 -305.5t303.5 -125.5t304.5 125.5t125.5 305.5v892h134v-906q0 -146 -72.5 -271t-203 -200t-288.5 -75q-119 0 -224 44t-179 118t-116.5 174.5t-42.5 209.5zM462 1568l252 275h131l252 -275h-145l-172 195l-172 -195h-146z" />
<glyph unicode="&#xdc;" d="M218 528v906h134v-892q0 -180 124.5 -305.5t303.5 -125.5t304.5 125.5t125.5 305.5v892h134v-906q0 -146 -72.5 -271t-203 -200t-288.5 -75q-119 0 -224 44t-179 118t-116.5 174.5t-42.5 209.5zM483 1770q0 35 24.5 60t60.5 25q35 0 60 -25t25 -60t-25 -60t-60 -25 q-36 0 -60.5 25t-24.5 60zM911 1770q0 35 25 60t61 25q35 0 60 -25t25 -60t-25 -60t-60 -25q-36 0 -61 25t-25 60z" />
<glyph unicode="&#xdd;" horiz-adv-x="1372" d="M90 1434h145l451 -709l452 709h145l-532 -833v-601h-131v600zM573 1587l140 256h171l-189 -256h-122z" />
<glyph unicode="&#xde;" horiz-adv-x="1236" d="M217 0v1434h131v-263h298q192 1 309.5 -107t117.5 -287q0 -178 -116 -286t-309 -108h-299v-383h-132zM349 511h296q131 0 214 73t83 193q0 118 -85 191t-212 73h-296v-530z" />
<glyph unicode="&#xdf;" horiz-adv-x="1392" d="M178 0v1072q0 178 130.5 277t365.5 100q240 -1 372 -102.5t132 -274.5q0 -110 -60.5 -194t-164.5 -131q121 -46 194 -141.5t73 -220.5q0 -118 -63 -206t-167 -132.5t-234 -46.5h-319v128h295q157 2 254 69t97 195q0 126 -98.5 203t-257.5 75v133q146 4 229.5 72t83.5 188 q0 125 -93 191.5t-271 67.5q-182 -1 -274.5 -67.5t-92.5 -191.5v-1063h-131z" />
<glyph unicode="&#xe0;" horiz-adv-x="1132" d="M128 346q0 160 110 255.5t313 94.5q175 -2 320 -79q-4 147 -86.5 226t-234.5 79q-210 0 -325 -86l-51 100q141 106 390 106q209 0 321.5 -117.5t114.5 -324.5v-600h-116v108q-53 -54 -155 -89t-202 -35q-187 -1 -293 93t-106 269zM256 343q0 -112 71 -172.5t212 -60.5 q78 0 174 30.5t158 78.5v282q-125 75 -319 75q-148 -1 -222 -63.5t-74 -169.5zM381 1456h172l139 -257h-121z" />
<glyph unicode="&#xe1;" horiz-adv-x="1132" d="M128 346q0 160 110 255.5t313 94.5q175 -2 320 -79q-4 147 -86.5 226t-234.5 79q-210 0 -325 -86l-51 100q141 106 389 106q209 0 322 -118t115 -324v-600h-116v108q-53 -54 -155 -89t-202 -35q-187 -1 -293 93t-106 269zM256 343q0 -112 71 -172.5t212 -60.5 q78 0 174 30.5t158 78.5v282q-125 75 -319 75q-148 -1 -222 -63.5t-74 -169.5zM423 1199l139 257h171l-189 -257h-121z" />
<glyph unicode="&#xe2;" horiz-adv-x="1132" d="M128 346q0 160 110 255.5t313 94.5q175 -2 320 -79q-4 147 -86.5 226t-234.5 79q-210 0 -325 -86l-51 100q141 106 389 106q209 0 322 -118t115 -324v-600h-116v108q-53 -54 -155 -89t-202 -35q-187 -1 -293 93t-106 269zM230 1181l252 275h131l252 -275h-146l-172 195 l-171 -195h-146zM256 343q0 -112 71 -172.5t212 -60.5q78 0 174 30.5t158 78.5v282q-125 75 -319 75q-148 -1 -222 -63.5t-74 -169.5z" />
<glyph unicode="&#xe3;" horiz-adv-x="1132" d="M128 346q0 160 109.5 255t313.5 94q177 -2 320 -78q-4 148 -86.5 226.5t-234.5 78.5q-210 0 -325 -86l-51 100q141 106 389 106q209 0 322 -118t115 -324v-600h-116v108q-53 -54 -155 -89t-202 -35q-187 -1 -293 93t-106 269zM256 343q0 -112 71 -172.5t212 -60.5 q78 0 174 30.5t158 78.5v282q-125 75 -319 75q-148 -1 -222 -63.5t-74 -169.5zM285 1251v126l60 60q24 24 57.5 30.5t65.5 -2.5t66 -29l91 -54q93 -54 146 -1l74 74v-127l-47 -46q-74 -73 -194 -3l-92 54q-91 53 -140 4z" />
<glyph unicode="&#xe4;" horiz-adv-x="1132" d="M128 346q0 160 110 255.5t313 94.5q174 -2 319 -79q-4 147 -86 226t-234 79q-210 0 -325 -86l-51 100q141 106 389 106q209 0 322 -118t115 -324v-600h-116v108q-53 -54 -155.5 -89t-202.5 -35q-187 -1 -292.5 93t-105.5 269zM255 1382q0 35 25 60.5t61 25.5 q35 0 60 -25.5t25 -60.5t-25 -60t-60 -25q-36 0 -61 25t-25 60zM256 343q0 -112 71 -172.5t212 -60.5q78 0 174 30.5t158 78.5v282q-127 76 -319 76q-148 -1 -222 -64t-74 -170zM684 1382q0 36 24.5 61t60.5 25q35 0 60.5 -25.5t25.5 -60.5t-25.5 -60t-60.5 -25 q-36 0 -60.5 25t-24.5 60z" />
<glyph unicode="&#xe5;" horiz-adv-x="1132" d="M128 346q0 160 109.5 255t313.5 94q177 -2 320 -78q-4 148 -86.5 226.5t-234.5 78.5q-210 0 -325 -86l-51 100q141 106 389 106q209 0 322 -118t115 -324v-600h-116v108q-53 -54 -155 -89t-202 -35q-187 -1 -293 93t-106 269zM256 343q0 -112 71 -172.5t212 -60.5 q78 0 174 30.5t158 78.5v282q-125 75 -319 75q-148 -1 -222 -63.5t-74 -169.5zM389 1324q0 85 60 146t147 61q86 0 147.5 -61t61.5 -146q0 -87 -61 -148t-148 -61q-88 0 -147.5 60.5t-59.5 148.5zM492 1324q0 -44 30 -75t74 -31t75 31t31 75q0 42 -31.5 73t-74.5 31 q-44 0 -74 -30.5t-30 -73.5z" />
<glyph unicode="&#xe6;" horiz-adv-x="2023" d="M128 346q0 160 110 255.5t313 94.5q175 -2 320 -79q-4 147 -86.5 226t-234.5 79q-210 0 -325 -86l-51 100q142 107 390 107q157 0 257.5 -70.5t138.5 -206.5q63 124 184.5 199t266.5 75q207 0 347 -130q102 -95 125 -215q21 -113 -44 -175q-49 -47 -137 -47h-674 q0 -157 116.5 -262t280.5 -105q190 0 292 95l92 -90q-136 -127 -379 -127q-134 0 -249.5 64t-180.5 171v-219h-116v108q-53 -54 -155 -89t-202 -35q-187 -1 -293 93t-106 269zM256 343q0 -112 71 -172.5t212 -60.5q78 0 174 30.5t158 78.5v283q-125 75 -319 75 q-148 -1 -222 -64t-74 -170zM1029 591h623q71 0 89 53.5t-21 116.5q-37 67 -117.5 113.5t-191.5 46.5q-154 0 -263 -97t-119 -233z" />
<glyph unicode="&#xe7;" horiz-adv-x="1144" d="M148 513q0 144 71.5 265.5t193.5 192t265 70.5q186 0 330 -115l-91 -90q-105 80 -239 80q-167 0 -284.5 -117.5t-117.5 -285.5t117.5 -285.5t284.5 -117.5q133 0 238 79l90 -90q-133 -106 -300 -113q-28 -2 -55 0v-57h21q71 0 111 -42.5t40 -104.5t-44.5 -107t-114.5 -45 h-175v83h168q37 0 56.5 20.5t19.5 47.5q0 30 -18.5 51t-57.5 21h-87v144q-182 37 -302 181.5t-120 334.5z" />
<glyph unicode="&#xe8;" horiz-adv-x="1290" d="M148 512q0 143 71 264.5t192.5 192.5t265.5 71q207 0 346 -130q103 -95 125 -215q21 -113 -44 -175q-49 -47 -137 -47h-674q0 -157 117 -262t281 -105q190 0 291 94l92 -89q-136 -127 -379 -127q-144 1 -268 65t-201.5 186.5t-77.5 276.5zM295 591h622q61 0 83 40.5 t-2 93.5q-25 77 -110 136.5t-211 59.5q-154 0 -263 -97t-119 -233zM525 1456h171l140 -257h-121z" />
<glyph unicode="&#xe9;" horiz-adv-x="1290" d="M148 512q0 143 71 264.5t192.5 192.5t265.5 71q207 0 346 -130q103 -95 125 -215q21 -113 -44 -175q-49 -47 -137 -47h-674q0 -157 117 -262t281 -105q190 0 291 94l92 -89q-136 -127 -379 -127q-144 1 -268 65t-201.5 186.5t-77.5 276.5zM295 591h622q65 0 86 45t-8 101 q-30 74 -113.5 129t-204.5 55q-154 0 -263 -97t-119 -233zM525 1199l139 257h172l-190 -257h-121z" />
<glyph unicode="&#xea;" horiz-adv-x="1290" d="M148 512q0 143 71 264.5t192.5 192.5t265.5 71q207 0 346 -130q103 -95 125 -215q21 -113 -44 -175q-49 -47 -137 -47h-674q0 -157 117 -262t281 -105q190 0 291 94l92 -89q-136 -127 -379 -127q-144 1 -268 65t-201.5 186.5t-77.5 276.5zM295 591h622q69 0 88.5 50 t-15.5 110q-35 70 -116.5 120t-196.5 50q-154 0 -263 -97t-119 -233zM363 1181l252 275h131l252 -275h-146l-172 195l-171 -195h-146z" />
<glyph unicode="&#xeb;" horiz-adv-x="1290" d="M148 512q0 143 71 264.5t192.5 192.5t265.5 71q207 0 346 -130q103 -95 125 -215q21 -113 -44 -175q-49 -47 -137 -47h-674q0 -157 116.5 -262t280.5 -105q191 0 292 94l92 -89q-136 -127 -379 -127q-144 1 -268 65t-201.5 186.5t-77.5 276.5zM295 591h622 q67 0 87.5 48.5t-12.5 106.5q-33 72 -115 123.5t-200 51.5q-154 0 -263 -97t-119 -233zM381 1382q0 36 24.5 61t60.5 25q35 0 60.5 -25.5t25.5 -60.5t-25.5 -60t-60.5 -25q-36 0 -60.5 25t-24.5 60zM810 1382q0 36 24.5 61t60.5 25q35 0 60 -25.5t25 -60.5t-25 -60t-60 -25 q-36 0 -60.5 25t-24.5 60z" />
<glyph unicode="&#xec;" horiz-adv-x="677" d="M187 1434h171l139 -257h-121zM326 0v1024h124v-1024h-124z" />
<glyph unicode="&#xed;" horiz-adv-x="591" d="M147 1177l139 257h172l-190 -257h-121zM239 0v1024h124v-1024h-124z" />
<glyph unicode="&#xee;" horiz-adv-x="999" d="M187 1159l252 275h131l252 -275h-146l-171 195l-172 -195h-146zM445 0v1024h125v-1024h-125z" />
<glyph unicode="&#xef;" horiz-adv-x="962" d="M187 1360q0 35 25 60t60 25t60 -25t25 -60t-25 -60t-60 -25t-60 25t-25 60zM427 0v1024h125v-1024h-125zM616 1360q0 35 24.5 60t60.5 25q35 0 60.5 -25t25.5 -60t-25.5 -60t-60.5 -25q-36 0 -60.5 25t-24.5 60z" />
<glyph unicode="&#xf0;" horiz-adv-x="1286" d="M164 510q0 233 128.5 387.5t334.5 155.5q122 0 212 -63t138 -164q-16 137 -77 251.5t-155 190.5l-185 -136l-57 74l147 108q-153 97 -342 97v125q255 0 457 -137l156 114l57 -73l-134 -99q156 -136 229.5 -352t43.5 -483q-27 -236 -152.5 -379t-326.5 -143 q-114 0 -206 42.5t-149.5 115t-88 167t-30.5 201.5zM292 510q0 -174 91 -287.5t256 -113.5q146 0 239.5 109t110.5 292q0 116 -39.5 210t-120 151.5t-190.5 57.5q-109 0 -189.5 -58.5t-119 -152t-38.5 -208.5z" />
<glyph unicode="&#xf1;" horiz-adv-x="1245" d="M177 0v1024h125v-94q67 50 156 80t181 29q227 -4 333.5 -138.5t106.5 -407.5v-493h-130v494q0 221 -78 324t-267 102q-75 -1 -154.5 -28.5t-143.5 -70.5v-821h-129zM336 1240v125l59 60q24 24 57.5 30.5t65.5 -2.5t66 -29l91 -54q93 -54 146 -1l74 74v-127l-47 -46 q-74 -73 -194 -3l-92 54q-92 53 -140 5z" />
<glyph unicode="&#xf2;" horiz-adv-x="1355" d="M148 512q0 144 71.5 265.5t193.5 192t265 70.5t265 -70.5t193.5 -192t71.5 -265.5t-71.5 -266t-193.5 -192t-265 -70t-265 70t-193.5 192t-71.5 266zM277 512q0 -168 117 -285t284 -117t284 117t117 285t-117 285t-284 117t-284 -117t-117 -285zM513 1434h171l140 -257 h-121z" />
<glyph unicode="&#xf3;" horiz-adv-x="1355" d="M148 512q0 144 71.5 265.5t193.5 192t265 70.5t265 -70.5t193.5 -192t71.5 -265.5t-71.5 -266t-193.5 -192t-265 -70t-265 70t-193.5 192t-71.5 266zM277 512q0 -168 117 -285t284 -117t284 117t117 285t-117 285t-284 117t-284 -117t-117 -285zM535 1177l139 257h172 l-190 -257h-121z" />
<glyph unicode="&#xf4;" horiz-adv-x="1355" d="M148 512q0 144 71.5 265.5t193.5 192t265 70.5t265 -70.5t193.5 -192t71.5 -265.5t-71.5 -266t-193.5 -192t-265 -70t-265 70t-193.5 192t-71.5 266zM277 512q0 -168 117 -285t284 -117t284 117t117 285t-117 285t-284 117t-284 -117t-117 -285zM359 1159l252 275h131 l252 -275h-146l-172 195l-172 -195h-145z" />
<glyph unicode="&#xf5;" horiz-adv-x="1355" d="M148 512q0 144 71.5 265.5t193.5 192t265 70.5t265 -70.5t193.5 -192t71.5 -265.5t-71.5 -266t-193.5 -192t-265 -70t-265 70t-193.5 192t-71.5 266zM277 512q0 -168 117 -285t284 -117t284 117t117 285t-117 284.5t-284 116.5t-284 -116.5t-117 -284.5zM404 1228v126 l59 60q24 24 57.5 30.5t65.5 -2.5t66 -29l91 -54q93 -54 146 -1l74 74v-127l-47 -46q-74 -73 -194 -3l-92 54q-91 53 -140 4z" />
<glyph unicode="&#xf6;" horiz-adv-x="1355" d="M148 512q0 144 71.5 265.5t193.5 192t265 70.5t265 -70.5t193.5 -192t71.5 -265.5t-71.5 -266t-193.5 -192t-265 -70t-265 70t-193.5 192t-71.5 266zM277 512q0 -168 117 -285t284 -117t284 117t117 285t-117 285t-284 117t-284 -117t-117 -285zM382 1360q0 35 24.5 60 t60.5 25q35 0 60.5 -25t25.5 -60t-25.5 -60t-60.5 -25q-36 0 -60.5 25t-24.5 60zM811 1360q0 35 24.5 60t60.5 25q35 0 60 -25t25 -60t-25 -60t-60 -25q-36 0 -60.5 25t-24.5 60z" />
<glyph unicode="&#xf7;" horiz-adv-x="1052" d="M102 465v125h848v-125h-848zM442 182q0 36 25 60.5t61 24.5q35 0 60 -24.5t25 -60.5q0 -35 -25 -59.5t-60 -24.5t-60.5 24.5t-25.5 59.5zM444 871q0 36 25 60.5t61 24.5q35 0 60 -24.5t25 -60.5q0 -35 -25 -59.5t-60 -24.5t-60.5 24.5t-25.5 59.5z" />
<glyph unicode="&#xf8;" horiz-adv-x="1355" d="M148 512q0 144 71.5 265.5t193.5 192t265 70.5q77 0 152 -22l49 108h133l-70 -156q122 -70 194 -191.5t72 -266.5q0 -144 -71.5 -266t-193.5 -192t-265 -70q-88 0 -168 27l-51 -113h-132l73 164q-116 71 -184 190t-68 260zM277 512q0 -103 47.5 -191t128.5 -143l325 723 q-52 13 -100 13q-167 0 -284 -117t-117 -285zM562 127q57 -17 116 -17q167 0 284 117t117 285q0 107 -51.5 198t-138.5 144z" />
<glyph unicode="&#xf9;" horiz-adv-x="1263" d="M167 531v493h129v-493q0 -222 75 -325t257 -102q83 1 169.5 35t159.5 97v788l130 -1v-1023h-126v125q-160 -144 -368 -141q-220 4 -323 139t-103 408zM444 1456h171l139 -257h-121z" />
<glyph unicode="&#xfa;" horiz-adv-x="1263" d="M167 531v493h129v-493q0 -222 75 -325t257 -102q83 1 169.5 35t159.5 97v788l130 -1v-1023h-126v125q-160 -144 -368 -141q-220 4 -323 139t-103 408zM503 1199l139 257h172l-190 -257h-121z" />
<glyph unicode="&#xfb;" horiz-adv-x="1263" d="M167 531v493h129v-493q0 -222 75 -325t257 -102q83 1 169.5 35t159.5 97v788l130 -1v-1023h-126v125q-160 -144 -368 -141q-220 4 -323 139t-103 408zM308 1181l252 275h131l252 -275h-146l-171 195l-172 -195h-146z" />
<glyph unicode="&#xfc;" horiz-adv-x="1263" d="M167 531v493h129v-493q0 -222 75 -325t257 -102q83 1 169.5 35t159.5 97v788l130 -1v-1023h-126v125q-160 -144 -368 -141q-220 4 -323 139t-103 408zM327 1263q0 36 24.5 61t60.5 25q35 0 60.5 -25.5t25.5 -60.5t-25.5 -59.5t-60.5 -24.5q-36 0 -60.5 24.5t-24.5 59.5z M756 1263q0 36 24.5 61t60.5 25q35 0 60 -25.5t25 -60.5t-25 -59.5t-60 -24.5q-36 0 -60.5 24.5t-24.5 59.5z" />
<glyph unicode="&#xfd;" horiz-adv-x="1185" d="M139 546v478h129v-478q0 -221 78.5 -323t265.5 -102q74 0 154.5 27.5t144.5 69.5v806h130v-933q-6 -233 -115 -338t-347 -101q-117 2 -206.5 23t-173.5 68l15 103q85 -44 170 -62.5t195 -17.5q174 1 249 65.5t88 229.5v48q-65 -48 -149 -78t-173 -31 q-232 -1 -343.5 133.5t-111.5 412.5zM449 1177l139 257h171l-189 -257h-121z" />
<glyph unicode="&#xfe;" horiz-adv-x="1214" d="M176 -418v1852h117v-496q55 47 136 74.5t165 27.5q229 0 350 -126t122 -395q1 -268 -122.5 -401.5t-350.5 -133.5q-157 1 -289 92v-494h-128zM304 192q49 -39 125 -62t152 -23q355 0 355 412q0 202 -82.5 302t-272.5 100q-77 0 -153 -26t-124 -73v-630z" />
<glyph unicode="&#xff;" horiz-adv-x="1185" d="M139 546v478h129v-478q0 -221 78.5 -323t265.5 -102q74 0 154.5 27.5t144.5 69.5v806h130v-933q-6 -233 -115 -338t-347 -101q-117 2 -206.5 23t-173.5 68l15 103q85 -44 170 -62.5t195 -17.5q174 1 249 65.5t88 229.5v48q-65 -48 -149 -78t-173 -31 q-232 -1 -343.5 133.5t-111.5 412.5zM280 1360q0 35 24.5 60t60.5 25q35 0 60 -25t25 -60t-25 -60t-60 -25q-36 0 -60.5 25t-24.5 60zM708 1360q0 35 25 60t61 25q35 0 60 -25t25 -60t-25 -60t-60 -25q-36 0 -61 25t-25 60z" />
<glyph unicode="&#x152;" horiz-adv-x="2234" d="M164 717q0 200 99 369.5t268.5 267.5t369.5 98q197 0 366 -98v80h859v-128h-728v-497h728v-128h-728v-553h728v-128h-859v79q-167 -97 -366 -97q-200 0 -369.5 98t-268.5 267.5t-99 369.5zM296 717q0 -124 47.5 -236.5t128.5 -193.5t193 -129t236 -48q206 0 366 125v964 q-159 124 -366 124q-165 0 -304.5 -81t-220 -220.5t-80.5 -304.5z" />
<glyph unicode="&#x153;" horiz-adv-x="2240" d="M148 512q0 144 71 265.5t193 192t266 70.5q155 0 281.5 -84.5t184.5 -220.5q58 136 184.5 220.5t280.5 84.5q216 0 361 -131q105 -95 128 -215q22 -112 -43 -174q-49 -47 -137 -47h-693q0 -151 114.5 -256.5t276.5 -106.5q239 0 335 113l90 -91q-135 -148 -425 -148 q-158 0 -286 84t-186 220q-58 -136 -184.5 -220t-281.5 -84q-144 0 -266 70t-193 192t-71 266zM277 512q0 -168 117 -285t284 -117t284 117t117 285t-117 285t-284 117t-284 -117t-117 -285zM1227 597h641q75 0 91 57q17 58 -36 128q-71 93 -209 122q-50 11 -105 11 q-150 0 -261 -92.5t-121 -225.5z" />
<glyph unicode="&#x178;" horiz-adv-x="1372" d="M90 1434h145l451 -709l452 709h145l-532 -833v-601h-131v600zM386 1770q0 35 25 60t61 25q35 0 60 -25t25 -60t-25 -60t-60 -25q-36 0 -61 25t-25 60zM815 1770q0 35 24.5 60t60.5 25q35 0 60.5 -25t25.5 -60t-25.5 -60t-60.5 -25q-36 0 -60.5 25t-24.5 60z" />
<glyph unicode="&#x2c6;" horiz-adv-x="839" d="M102 1159l253 275h131l252 -275h-146l-172 195l-172 -195h-146z" />
<glyph unicode="&#x2dc;" horiz-adv-x="763" d="M102 1212v125l60 60q42 36 89.5 33.5t98.5 -33.5l92 -54q93 -54 146 -1l74 73v-126l-48 -47q-27 -27 -63 -33t-67.5 2.5t-62.5 27.5l-93 54q-92 53 -140 5z" />
<glyph unicode="&#x2000;" horiz-adv-x="940" />
<glyph unicode="&#x2001;" horiz-adv-x="1880" />
<glyph unicode="&#x2002;" horiz-adv-x="940" />
<glyph unicode="&#x2003;" horiz-adv-x="1880" />
<glyph unicode="&#x2004;" horiz-adv-x="626" />
<glyph unicode="&#x2005;" horiz-adv-x="470" />
<glyph unicode="&#x2006;" horiz-adv-x="313" />
<glyph unicode="&#x2007;" horiz-adv-x="313" />
<glyph unicode="&#x2008;" horiz-adv-x="235" />
<glyph unicode="&#x2009;" horiz-adv-x="376" />
<glyph unicode="&#x200a;" horiz-adv-x="104" />
<glyph unicode="&#x2010;" horiz-adv-x="790" d="M102 515v125h586v-125h-586z" />
<glyph unicode="&#x2011;" horiz-adv-x="790" d="M102 515v125h586v-125h-586z" />
<glyph unicode="&#x2012;" horiz-adv-x="790" d="M102 515v125h586v-125h-586z" />
<glyph unicode="&#x2013;" horiz-adv-x="1024" d="M102 487v124h820v-124h-820z" />
<glyph unicode="&#x2014;" horiz-adv-x="1339" d="M102 487v124h1135v-124h-1135z" />
<glyph unicode="&#x2018;" horiz-adv-x="376" d="M102 1288q0 25 8 50.5t25.5 52t52.5 43.5t82 17q-49 -36 -69 -79q31 -5 51.5 -28.5t20.5 -55.5q0 -36 -25 -60.5t-60 -24.5q-36 0 -61 24.5t-25 60.5z" />
<glyph unicode="&#x2019;" horiz-adv-x="376" d="M105 1367q0 35 25 60.5t60 25.5t60 -25.5t25 -60.5q0 -14 -3 -31t-13.5 -41.5t-27 -43.5t-49 -33t-74.5 -14q49 36 69 79q-31 5 -51.5 28.5t-20.5 55.5z" />
<glyph unicode="&#x201a;" horiz-adv-x="376" d="M105 63q0 35 25 60t60 25t60 -25t25 -60q0 -25 -8 -50.5t-25 -52t-52 -43.5t-82 -17q47 35 69 79q-31 5 -51.5 28.5t-20.5 55.5z" />
<glyph unicode="&#x201c;" horiz-adv-x="624" d="M102 1289q0 18 6 41t21.5 53t52 50t88.5 20q-48 -36 -69 -80q31 -5 51.5 -28.5t20.5 -55.5q0 -35 -25 -60t-60 -25t-60.5 25t-25.5 60zM351 1289q0 14 3 31t13.5 41.5t27 44t49 33.5t74.5 14q-46 -35 -68 -80q31 -5 51.5 -28.5t20.5 -55.5q0 -35 -25.5 -60t-60.5 -25 t-60 25t-25 60z" />
<glyph unicode="&#x201d;" horiz-adv-x="632" d="M105 1367q0 35 25 60.5t60 25.5t60 -25.5t25 -60.5q0 -14 -3 -31t-13.5 -41.5t-27 -43.5t-49 -33t-74.5 -14q48 36 69 80q-31 5 -51.5 28t-20.5 55zM353 1367q0 35 25.5 60.5t60.5 25.5t60 -25.5t25 -60.5q0 -14 -3 -31t-13.5 -41.5t-27 -43.5t-49 -33t-74.5 -14 q46 35 68 80q-31 5 -51.5 28t-20.5 55z" />
<glyph unicode="&#x201e;" horiz-adv-x="624" d="M105 67q0 35 25 60.5t60 25.5t60 -25.5t25 -60.5q0 -14 -3 -30.5t-13.5 -41t-27 -43.5t-49 -33t-74.5 -14q47 35 69 79q-31 5 -51.5 28t-20.5 55zM353 67q0 35 25.5 60.5t60.5 25.5t60 -25.5t25 -60.5q0 -14 -3 -30.5t-13.5 -41t-27 -43.5t-49 -33t-74.5 -14q46 34 68 79 q-31 5 -51.5 28t-20.5 55z" />
<glyph unicode="&#x2022;" horiz-adv-x="739" d="M361 616q0 7 9 7q8 0 8 -7q0 -8 -8 -8q-9 0 -9 8z" />
<glyph unicode="&#x2026;" horiz-adv-x="1173" d="M102 64q0 35 25.5 60.5t60.5 25.5t60 -25.5t25 -60.5q0 -36 -24.5 -60t-60.5 -24t-61 24t-25 60zM501 64q0 35 25.5 60.5t60.5 25.5t60 -25.5t25 -60.5q0 -36 -24.5 -60t-60.5 -24t-61 24t-25 60zM901 64q0 35 25 60.5t60 25.5t60 -25.5t25 -60.5q0 -36 -24.5 -60 t-60.5 -24t-60.5 24t-24.5 60z" />
<glyph unicode="&#x202f;" horiz-adv-x="376" />
<glyph unicode="&#x2039;" horiz-adv-x="546" d="M102 515v116l343 245v-139l-246 -165l246 -163v-139z" />
<glyph unicode="&#x203a;" horiz-adv-x="546" d="M102 270v139l246 163l-246 165v139l343 -245v-116z" />
<glyph unicode="&#x205f;" horiz-adv-x="470" />
<glyph unicode="&#x20ac;" horiz-adv-x="1755" d="M138 526l93 92h226q-7 56 -7 99q0 46 6 91h-315l95 91h237q62 241 261 397t454 156q257 0 459 -162l-90 -90q-162 123 -369 123q-208 0 -367 -115t-214 -309h882l-91 -91h-810q-5 -36 -5 -91q0 -54 7 -99h618l-91 -92h-504q60 -184 217.5 -300t357.5 -116q206 0 366 121 l90 -91q-199 -158 -456 -158q-253 0 -451 153t-262 391h-337z" />
<glyph unicode="&#x2122;" horiz-adv-x="1824" d="M102 1308v126h612v-126h-241v-706h-129v706h-242zM793 602v832h142l323 -412l324 412h141v-832h-129v659l-336 -420l-335 420v-659h-130z" />
<glyph unicode="&#x25fc;" horiz-adv-x="1024" d="M0 0v1024h1024v-1024h-1024z" />
</font>
</defs>
</svg>
