<?xml version="1.0" standalone="no"?>
<!DOCTYPE svg PUBLIC "-//W3C//DTD SVG 1.1//EN" "http://www.w3.org/Graphics/SVG/1.1/DTD/svg11.dtd" >
<svg xmlns="http://www.w3.org/2000/svg">
<metadata></metadata>
<defs>
<font id="bulolight" horiz-adv-x="1255" >
<font-face units-per-em="2048" ascent="1536" descent="-512" />
<missing-glyph horiz-adv-x="481" />
<glyph unicode="&#xfb01;" horiz-adv-x="1110" d="M109 889v84l110 14v137q0 164 81 244t222 80q74 0 140 -27l-21 -80q-74 19 -135 19q-124 0 -163 -63t-28 -203l7 -115h272v-90h-272v-889h-103v889h-110zM791 1286q0 74 71 74q74 0 74 -74q0 -76 -74 -76q-71 0 -71 76zM811 0v979h102v-979h-102z" />
<glyph unicode="&#xfb02;" horiz-adv-x="1107" d="M109 889v84l110 14v137q0 164 81 244t222 80q74 0 140 -27l-21 -80q-74 19 -135 19q-124 0 -163 -63t-28 -203l7 -115h272v-90h-272v-889h-103v889h-110zM811 0v1436l102 4v-1440h-102z" />
<glyph unicode="&#xfb03;" horiz-adv-x="1677" d="M109 889v84l110 14v137q0 164 81 244t222 80q74 0 140 -27l-21 -80q-74 19 -135 19q-124 0 -163 -63t-28 -203l7 -115h464v145q0 164 81.5 244t222.5 80q73 0 139 -27l-21 -80q-74 19 -135 19q-64 0 -105 -17t-60.5 -50.5t-25 -83.5t0.5 -115l6 -115h272v-90h-272v-889 h-103v889h-464v-889h-103v889h-110zM1358 1286q0 74 72 74q73 0 73 -74q0 -76 -73 -76q-72 0 -72 76zM1378 0v979h103v-979h-103z" />
<glyph unicode="&#xfb04;" horiz-adv-x="1675" d="M109 889v84l110 14v137q0 164 81 244t222 80q74 0 140 -27l-21 -80q-74 19 -135 19q-124 0 -163 -63t-28 -203l7 -115h464v145q0 164 81.5 244t222.5 80q73 0 139 -27l-21 -80q-74 19 -135 19q-64 0 -105 -17t-60.5 -50.5t-25 -83.5t0.5 -115l6 -115h272v-90h-272v-889 h-103v889h-464v-889h-103v889h-110zM1378 0v1436l103 4v-1440h-103z" />
<glyph horiz-adv-x="2048" />
<glyph horiz-adv-x="2048" />
<glyph unicode="&#xd;" horiz-adv-x="2048" />
<glyph unicode=" "  horiz-adv-x="481" />
<glyph unicode="&#x09;" horiz-adv-x="481" />
<glyph unicode="&#xa0;" horiz-adv-x="481" />
<glyph unicode="!" horiz-adv-x="665" d="M246 70q0 46 24 67t62 21q39 0 63.5 -21t24.5 -67q0 -44 -24.5 -65t-63.5 -21q-37 0 -61.5 21t-24.5 65zM264 1305v18h137v-18l-28 -1006h-78z" />
<glyph unicode="&#x22;" horiz-adv-x="608" d="M102 1305v18h138v-18l-29 -433h-78zM369 1305v18h137v-18l-29 -433h-78z" />
<glyph unicode="#" horiz-adv-x="1157" d="M117 356v90h188v441h-188v84h188v352h98v-352h320v352h98v-352h195v-84h-195v-441h195v-90h-195v-356h-98v356h-320v-356h-98v356h-188zM403 446h320v441h-320v-441z" />
<glyph unicode="$" horiz-adv-x="1105" d="M168 92l47 94q52 -31 88 -49t102 -36.5t132 -18.5q125 0 205.5 63t80.5 191q0 105 -50.5 160.5t-166.5 97.5l-112 41q-146 54 -223.5 139t-77.5 217q0 148 78 235.5t216 106.5v203h93v-197q178 -3 313 -79l-41 -99q-144 80 -297 80q-115 0 -183.5 -56.5t-68.5 -166.5 q0 -96 47.5 -159.5t153.5 -104.5l166 -64q137 -53 202.5 -133t65.5 -203q0 -156 -86 -251.5t-248 -114.5v-236h-92v232q-202 6 -344 108z" />
<glyph unicode="%" horiz-adv-x="1650" d="M205 965q0 197 58.5 285.5t174.5 88.5q118 0 175 -88t57 -286q0 -373 -232 -373q-119 0 -176 87.5t-57 285.5zM295 965q0 -160 30.5 -228.5t112.5 -68.5q81 0 110.5 66.5t29.5 230.5q0 160 -30 229.5t-110 69.5q-83 0 -113 -66.5t-30 -232.5zM416 0v25l743 1298h78v-25 l-745 -1298h-76zM965 352q0 197 58.5 286t174.5 89q118 0 175 -88t57 -287q0 -372 -232 -372q-119 0 -176 87.5t-57 284.5zM1055 352q0 -160 30.5 -228.5t112.5 -68.5q81 0 110 66t29 231q0 161 -29.5 230t-109.5 69q-83 0 -113 -66.5t-30 -232.5z" />
<glyph unicode="&#x26;" horiz-adv-x="1533" d="M147 307q0 260 314 400q-41 45 -65.5 75.5t-52 74t-40 89.5t-12.5 98q0 74 25 132t68.5 93t98.5 52.5t119 17.5q81 0 140 -17.5t120 -55.5l-47 -92q-105 67 -237 67q-181 0 -181 -190q0 -30 6.5 -59t22.5 -58.5t28 -50.5t38.5 -51.5t38.5 -44t42.5 -45t36.5 -37.5 q80 -89 342 -314q108 182 170 424h105v-22q-89 -287 -199 -465q259 -220 391 -303v-25h-133q-91 51 -319 240q-197 -256 -467 -256q-90 0 -160 27.5t-111 74t-61.5 102.5t-20.5 119zM256 346q-7 -132 69.5 -199t209.5 -67q194 0 358 223q-261 228 -373 340 q-54 -26 -93 -50.5t-80 -60.5t-64.5 -83t-26.5 -103z" />
<glyph unicode="'" horiz-adv-x="342" d="M102 1305v18h138v-18l-29 -433h-78z" />
<glyph unicode="(" horiz-adv-x="735" d="M225 565q0 245 31.5 424t93.5 290.5t146.5 169t197.5 69.5v-95q-68 -13 -122 -47t-91 -80.5t-64 -113.5t-42.5 -133.5t-24.5 -154t-11.5 -161.5t-2.5 -168t2.5 -168t11.5 -161.5t24.5 -154t42.5 -133.5t64 -113.5t91 -80.5t122 -47v-94q-159 16 -260.5 113t-155 304 t-53.5 535z" />
<glyph unicode=")" horiz-adv-x="735" d="M41 -293q68 13 122 47t91 80.5t64 113.5t42.5 133.5t24.5 154t11.5 161.5t2.5 168t-2.5 168t-11.5 161.5t-24.5 154t-42.5 133.5t-64 113.5t-91 80.5t-122 47v95q113 -12 197.5 -69.5t146.5 -169t93.5 -290.5t31.5 -424q0 -328 -53.5 -535t-155 -304t-260.5 -113v94z" />
<glyph unicode="*" horiz-adv-x="923" d="M82 1116v94l326 -8l-105 307l88 29l94 -311l260 196l56 -75l-266 -185l266 -186l-53 -76l-263 197l-94 -314l-90 29l109 311z" />
<glyph unicode="+" horiz-adv-x="1247" d="M164 469v90h405v420h101v-420h413v-90h-413v-469h-101v469h-405z" />
<glyph unicode="," horiz-adv-x="481" d="M106 -209q142 83 142 186v27h-19q-41 0 -62.5 15.5t-21.5 64.5q0 47 22 64.5t62 17.5q117 0 117 -150q0 -59 -21 -110.5t-54.5 -86t-67.5 -56.5t-66 -31z" />
<glyph unicode="-" horiz-adv-x="587" d="M102 467v88h383v-88h-383z" />
<glyph unicode="." horiz-adv-x="460" d="M143 70q0 46 24 67t62 21q39 0 63.5 -21t24.5 -67q0 -44 -24.5 -65t-63.5 -21q-37 0 -61.5 21t-24.5 65z" />
<glyph unicode="/" horiz-adv-x="980" d="M72 -487l745 2023h92v-25l-745 -2023h-92v25z" />
<glyph unicode="0" horiz-adv-x="1087" d="M143 659q0 353 99.5 516.5t302.5 163.5q209 0 304 -161.5t95 -518.5q0 -675 -399 -675q-210 0 -306 160t-96 515zM262 659q0 -304 62.5 -440.5t220.5 -136.5q159 0 218.5 130t59.5 447q0 307 -60.5 444.5t-217.5 137.5q-160 0 -221.5 -132.5t-61.5 -449.5z" />
<glyph unicode="1" horiz-adv-x="892" d="M133 1001v107q73 35 171 106.5t140 116.5h86v-1233h281v-98h-674v98h287v1082q-37 -43 -127 -99.5t-152 -79.5h-12z" />
<glyph unicode="2" horiz-adv-x="997" d="M106 1235q54 42 139.5 73t188.5 31q167 0 269 -89.5t102 -272.5q0 -66 -24.5 -134.5t-70.5 -135.5t-93.5 -122t-112.5 -120q-196 -196 -273 -365h623v-100h-745v78q59 128 137 233.5t180 212.5q54 58 78.5 84.5t67 80t62 90t36 87.5t16.5 99q0 81 -20.5 137t-59.5 85 t-83.5 41.5t-102.5 12.5q-80 0 -138.5 -20.5t-134.5 -67.5z" />
<glyph unicode="3" horiz-adv-x="954" d="M51 84l45 90q78 -45 145 -69.5t150 -24.5q143 0 217 75.5t74 209.5q0 128 -72 192.5t-223 73.5l-70 4v94l66 4q127 7 189.5 79t62.5 198q0 109 -64 170t-178 61q-75 0 -147 -26.5t-125 -69.5l-43 86q137 108 315 108q169 0 265 -84.5t96 -226.5q0 -133 -61 -219 t-161 -115v-4q130 -21 200.5 -104.5t70.5 -208.5q0 -88 -22.5 -156.5t-60.5 -112.5t-92.5 -72.5t-114.5 -40t-130 -11.5q-114 0 -188.5 26.5t-143.5 73.5z" />
<glyph unicode="4" horiz-adv-x="1044" d="M127 252v92q29 117 219 506q167 341 207 475h96v-22q-35 -130 -215 -498q-65 -131 -95 -194t-61.5 -141.5t-39.5 -125.5h424v350h106v-350h184v-92h-184v-252h-106v252h-535z" />
<glyph unicode="5" horiz-adv-x="925" d="M72 76l41 84q62 -36 137 -59t141 -23q132 0 211.5 75.5t79.5 229.5q0 158 -81 233t-257 86l-186 5l28 616h533v-100h-434l-21 -416l109 -4q66 -3 126 -17t116 -45t96.5 -75.5t65 -112t24.5 -150.5q0 -197 -108 -308t-302 -111q-89 0 -177.5 26t-141.5 66z" />
<glyph unicode="6" horiz-adv-x="1067" d="M143 659q0 680 506 680q115 0 209 -32l-27 -97q-104 31 -180 31q-132 0 -216.5 -53t-130.5 -180.5t-46 -337.5q55 60 134.5 98.5t166.5 38.5q381 0 381 -385q0 -129 -39 -225t-126 -154.5t-214 -58.5q-115 0 -197 46t-130 136t-69.5 210.5t-21.5 282.5zM260 580 q0 -500 301 -500q132 0 198 75.5t66 254.5q0 153 -64.5 221.5t-219.5 68.5q-87 0 -152 -32t-129 -88z" />
<glyph unicode="7" horiz-adv-x="815" d="M20 1223v100h730v-86q-77 -255 -279 -653q-154 -301 -229 -584h-105v18q17 79 44.5 160.5t72.5 181t69.5 149t82.5 165.5q167 331 235 549h-621z" />
<glyph unicode="8" horiz-adv-x="1038" d="M133 332q0 125 56 211t190 139q-221 94 -221 328q0 153 93 241t273 88q163 0 252.5 -84.5t89.5 -226.5q0 -120 -53 -202.5t-170 -141.5q143 -57 202.5 -137t59.5 -197q0 -77 -22 -141.5t-67.5 -115.5t-121.5 -80t-176 -29q-385 0 -385 348zM248 338q0 -45 7.5 -82.5 t26.5 -71.5t49 -57t78 -37t111 -14q125 0 196.5 61.5t71.5 190.5q0 62 -12.5 105.5t-46 82t-92.5 68t-152 57.5q-119 -43 -178 -112t-59 -191zM270 1018q0 -114 59 -181t220 -116q203 110 203 301q0 225 -240 225q-242 0 -242 -229z" />
<glyph unicode="9" horiz-adv-x="1067" d="M127 901q0 129 39 225t126 154.5t214 58.5q115 0 197 -46t130 -136t69.5 -210.5t21.5 -282.5q0 -680 -506 -680q-115 0 -209 32l27 97q104 -31 180 -31q132 0 216.5 53t130.5 180.5t46 337.5q-55 -60 -134.5 -98.5t-166.5 -38.5q-381 0 -381 385zM242 913 q0 -153 64.5 -221.5t219.5 -68.5q87 0 152 32t129 88q0 500 -301 500q-132 0 -198 -75.5t-66 -254.5z" />
<glyph unicode=":" horiz-adv-x="460" d="M143 70q0 46 24 67t62 21q39 0 63.5 -21t24.5 -67q0 -44 -24.5 -65t-63.5 -21q-37 0 -61.5 21t-24.5 65zM143 911q0 46 24 67t62 21q39 0 63.5 -21t24.5 -67q0 -44 -24.5 -65t-63.5 -21q-37 0 -61.5 21t-24.5 65z" />
<glyph unicode=";" horiz-adv-x="481" d="M106 -209q142 83 142 186v27h-19q-41 0 -62.5 15.5t-21.5 64.5q0 47 22 64.5t62 17.5q117 0 117 -150q0 -59 -21 -110.5t-54.5 -86t-67.5 -56.5t-66 -31zM156 911q0 46 24 67t62 21q39 0 63.5 -21t24.5 -67q0 -44 -24.5 -65t-63.5 -21q-37 0 -61.5 21t-24.5 65z" />
<glyph unicode="&#x3c;" horiz-adv-x="1148" d="M123 608v107l885 485h18v-92l-797 -438v-8l797 -439v-100h-18z" />
<glyph unicode="=" horiz-adv-x="1427" d="M266 416v92h895v-92h-895zM266 770v92h895v-92h-895z" />
<glyph unicode="&#x3e;" horiz-adv-x="1148" d="M123 123v100l797 439v8l-797 438v92h18l885 -485v-107l-885 -485h-18z" />
<glyph unicode="?" horiz-adv-x="962" d="M127 1243q50 38 131.5 67t161.5 29q166 0 252 -79.5t86 -233.5q0 -45 -11.5 -85t-25.5 -66t-42.5 -55t-45.5 -42l-51 -39q-83 -61 -107 -86q-64 -67 -73 -184q-1 -21 -1 -45v-117h-102v125q0 70 8.5 119t30.5 86t45.5 61t65.5 58q12 9 43.5 33t47 36.5t40 36.5t36.5 43.5 t21.5 48t9.5 58.5q0 117 -56 172t-177 55q-47 0 -97.5 -15.5t-78.5 -30.5t-70 -40zM279 70q0 46 24 67t62 21q39 0 63.5 -21t24.5 -67q0 -44 -24.5 -65t-63.5 -21q-37 0 -61.5 21t-24.5 65z" />
<glyph unicode="@" horiz-adv-x="1607" d="M127 426q0 177 56.5 326t157 251.5t243 160t311.5 57.5q284 0 436 -152.5t152 -409.5q0 -86 -17 -165t-54.5 -151t-92.5 -125t-137 -84.5t-181 -31.5q-48 0 -64 35.5t-11 120.5l2 43q-15 -27 -38 -57t-57.5 -64.5t-79 -57t-89.5 -22.5q-185 0 -185 289q0 238 94 373 t265 135q62 0 153 -27l13 39l69 -4l-57 -721q166 9 262 127.5t96 347.5q0 234 -131.5 350.5t-357.5 116.5q-192 0 -340 -81t-233 -240t-85 -375q0 -129 30 -230.5t94 -180t173 -120.5t258 -42q85 0 182.5 26.5t155.5 59.5l35 -76q-92 -62 -196.5 -83.5t-229.5 -21.5 q-122 0 -230 43t-191.5 124.5t-132 209.5t-48.5 287zM584 387q0 -205 98 -205q34 0 74.5 27t76 66.5t61 74t40.5 60.5l29 378q-90 31 -136 31q-56 0 -98 -21t-76 -69t-51.5 -134t-17.5 -208z" />
<glyph unicode="A" horiz-adv-x="1103" d="M66 0v18l419 1309h138l415 -1307v-20h-106l-129 401h-508l-127 -401h-102zM326 500h446l-223 706z" />
<glyph unicode="B" horiz-adv-x="1083" d="M215 0v1323h340q176 0 265 -89t89 -259q0 -102 -47.5 -175t-120.5 -106q102 -23 168 -100.5t66 -224.5q0 -182 -98 -275.5t-291 -93.5h-371zM322 98h266q274 0 274 267q0 137 -72.5 202.5t-201.5 65.5h-266v-535zM322 731h229q118 0 183 60t65 184q0 126 -65 188t-183 62 h-229v-494z" />
<glyph unicode="C" horiz-adv-x="1077" d="M127 662q0 181 39.5 313.5t112 211t167 115.5t213.5 37q183 0 328 -94l-43 -92q-77 44 -142.5 66t-142.5 22q-80 0 -143 -18t-115.5 -60t-87.5 -108t-54 -165t-19 -228q0 -580 415 -580q93 0 162.5 23t149.5 77l49 -78q-138 -120 -365 -120q-94 0 -172 23t-144 74.5 t-111.5 129t-71 192t-25.5 259.5z" />
<glyph unicode="D" horiz-adv-x="1232" d="M215 0v1323h338q95 0 175 -21t151 -70t120.5 -123.5t78 -188.5t28.5 -258t-28.5 -257.5t-78 -188.5t-120.5 -124.5t-151 -70.5t-175 -21h-338zM324 98h215q454 0 454 564q0 563 -454 563h-215v-1127z" />
<glyph unicode="E" horiz-adv-x="1069" d="M215 0v1323h758v-98h-651v-494h473v-98h-473v-535h673v-98h-780z" />
<glyph unicode="F" horiz-adv-x="974" d="M215 0v1323h735v-98h-628v-510h434v-99h-434v-616h-107z" />
<glyph unicode="G" horiz-adv-x="1234" d="M127 662q0 180 40 313t113.5 211.5t168.5 115.5t215 37q217 0 356 -96l-45 -92q-77 46 -149 68t-162 22q-100 0 -175.5 -29.5t-132.5 -95t-86.5 -179.5t-29.5 -275q0 -580 415 -580q103 0 173 28t135 78v344h-258v99h364v-647h-84l-8 120q-58 -62 -143.5 -91t-178.5 -29 q-118 0 -212 37.5t-166 116t-111 211.5t-39 313z" />
<glyph unicode="H" horiz-adv-x="1298" d="M215 0v1323h107v-588h655v588h106v-1323h-106v637h-655v-637h-107z" />
<glyph unicode="I" horiz-adv-x="544" d="M219 0v1323h107v-1323h-107z" />
<glyph unicode="J" horiz-adv-x="782" d="M33 12l22 90q72 -20 131 -20q90 0 147.5 20t90 66.5t45 109.5t12.5 160v885h107v-917q0 -101 -19.5 -175t-64.5 -131.5t-125.5 -86.5t-196.5 -29q-81 0 -149 28z" />
<glyph unicode="K" horiz-adv-x="1118" d="M215 0v1323h107v-676l649 676h121v-18l-543 -572l522 -715v-18h-123l-477 659l-149 -151v-508h-107z" />
<glyph unicode="L" horiz-adv-x="946" d="M215 0v1323h107v-1225h591v-98h-698z" />
<glyph unicode="M" horiz-adv-x="1603" d="M215 0v1323h172l418 -993l420 993h164v-1323h-101v1225l-446 -1030h-84l-443 1030v-1225h-100z" />
<glyph unicode="N" horiz-adv-x="1351" d="M215 0v1323h139l682 -1169v1169h101v-1323h-115l-707 1204v-1204h-100z" />
<glyph unicode="O" d="M127 662q0 150 26 267t70.5 193t108.5 125.5t136.5 70.5t158.5 21q110 0 197.5 -34.5t157.5 -111t108 -211t38 -320.5q0 -149 -26 -266t-70.5 -193.5t-109 -126.5t-137 -71t-158.5 -21q-110 0 -197.5 35t-157 111.5t-107.5 211t-38 320.5zM240 662q0 -580 387 -580 q196 0 292.5 137t96.5 443q0 579 -389 579q-197 0 -292 -136t-95 -443z" />
<glyph unicode="P" horiz-adv-x="1026" d="M215 0v1323h332q191 0 298 -95t107 -302q0 -206 -107.5 -302t-297.5 -96h-225v-528h-107zM322 627h223q154 0 224.5 74t70.5 225q0 152 -70.5 225.5t-224.5 73.5h-223v-598z" />
<glyph unicode="Q" d="M127 662q0 150 26 267t70.5 193t108.5 125.5t136.5 70.5t158.5 21q110 0 197.5 -34.5t157.5 -111t108 -211t38 -320.5q0 -158 -28 -279t-80 -199t-119 -124t-151 -64l266 -346v-19h-129l-258 353q-87 0 -160 21t-137.5 70.5t-109 126t-70 193.5t-25.5 267zM240 662 q0 -580 387 -580q196 0 292.5 137t96.5 443q0 579 -389 579q-197 0 -292 -136t-95 -443z" />
<glyph unicode="R" horiz-adv-x="1110" d="M215 0v1323h295q93 0 167.5 -21.5t132 -67t89 -123.5t31.5 -183q0 -144 -64 -233t-176 -128l338 -549v-18h-119l-327 543q-44 -6 -93 -6h-167v-537h-107zM322 635h186q157 0 233 72.5t76 220.5q0 150 -76.5 223.5t-232.5 73.5h-186v-590z" />
<glyph unicode="S" horiz-adv-x="985" d="M92 92l47 94q52 -31 88 -49t102 -36.5t132 -18.5q81 0 143.5 25t103 84t40.5 145q0 105 -51 160.5t-167 97.5l-112 41q-146 54 -223.5 139t-77.5 217q0 169 102 258.5t277 89.5q183 0 321 -79l-41 -99q-144 80 -297 80q-115 0 -183.5 -56.5t-68.5 -166.5 q0 -96 47.5 -159.5t153.5 -104.5l166 -64q137 -53 202.5 -133t65.5 -203q0 -174 -106 -272t-303 -98q-209 0 -361 108z" />
<glyph unicode="T" horiz-adv-x="921" d="M31 1225v98h860v-98h-379v-1225h-106v1225h-375z" />
<glyph unicode="U" horiz-adv-x="1263" d="M195 498v825h106v-791q0 -140 17.5 -227.5t60.5 -136t101.5 -65.5t152.5 -17q93 0 152 19t101 70t59.5 140t17.5 230v778h106v-805q0 -291 -102 -412.5t-334 -121.5q-157 0 -250.5 46.5t-140.5 159.5t-47 308z" />
<glyph unicode="V" horiz-adv-x="1112" d="M61 1305v18h107l389 -1188l387 1188h103v-18l-431 -1311h-124z" />
<glyph unicode="W" horiz-adv-x="1843" d="M84 1305v18h104l334 -1210l342 1210h109l348 -1208l332 1208h102v-18l-362 -1311h-148l-330 1157l-327 -1157h-142z" />
<glyph unicode="X" horiz-adv-x="1101" d="M45 0v18l434 664l-397 623v18h113l360 -557l371 557h112v-18l-415 -615l438 -672v-18h-123l-391 604l-391 -604h-111z" />
<glyph unicode="Y" horiz-adv-x="1028" d="M31 1305v18h108l377 -676l365 676h106v-18l-422 -770v-535h-106v535z" />
<glyph unicode="Z" horiz-adv-x="1044" d="M82 0v78l737 1147h-710v98h849v-78l-743 -1147h739v-98h-872z" />
<glyph unicode="[" horiz-adv-x="690" d="M215 -387v1905h393v-95h-286v-1716h286v-94h-393z" />
<glyph unicode="\" horiz-adv-x="980" d="M72 1511v25h92l745 -2023v-25h-92z" />
<glyph unicode="]" horiz-adv-x="690" d="M82 -293h287v1716h-287v95h393v-1905h-393v94z" />
<glyph unicode="^" horiz-adv-x="1159" d="M182 432v21l346 876h95l348 -876v-21h-82l-316 803l-311 -803h-80z" />
<glyph unicode="_" horiz-adv-x="1249" d="M102 0v88h1045v-88h-1045z" />
<glyph unicode="`" horiz-adv-x="690" d="M154 1294v113h24l359 -186v-70h-25z" />
<glyph unicode="a" horiz-adv-x="937" d="M94 233q0 57 19.5 101.5t49.5 73t78.5 51.5t94 35.5t108.5 25.5l197 39v111q0 129 -59.5 182t-173.5 53q-116 0 -240 -69l-37 77q136 82 303 82q149 0 229 -74.5t80 -222.5v-503q0 -85 25 -195l-92 -14q-23 77 -27 123q-122 -125 -303 -125q-117 0 -184.5 66t-67.5 183z M199 238q0 -166 188 -166q69 0 139.5 35.5t114.5 82.5v285l-186 -39q-143 -30 -199.5 -72t-56.5 -126z" />
<glyph unicode="b" horiz-adv-x="1046" d="M195 -10v1446l102 4v-580q45 64 113.5 99.5t152.5 35.5q89 0 155 -23.5t119 -79t80 -155t27 -243.5q0 -246 -107 -378t-315 -132q-150 0 -237 71l-9 -65h-81zM297 150q40 -37 102 -57.5t127 -20.5q167 0 237.5 102.5t70.5 310.5q0 222 -65 321t-220 99q-76 0 -142.5 -43 t-109.5 -112v-600z" />
<glyph unicode="c" horiz-adv-x="872" d="M102 489q0 113 22.5 201.5t60 145t91 93t112 51.5t126.5 15q161 0 277 -77l-46 -80q-106 69 -233 69q-161 0 -231 -97.5t-70 -320.5q0 -219 76.5 -316t234.5 -97q75 0 129.5 25t114.5 73l49 -65q-115 -125 -303 -125q-56 0 -105.5 10.5t-96.5 33.5t-84 63t-65.5 94 t-43.5 131.5t-15 172.5z" />
<glyph unicode="d" horiz-adv-x="1042" d="M102 479q0 265 104.5 390.5t309.5 125.5q121 0 229 -32v473l103 4v-1448h-84l-10 127q-43 -58 -116.5 -96.5t-160.5 -38.5q-65 0 -118 13.5t-102 48t-82.5 89.5t-53 142t-19.5 202zM211 489q0 -102 12.5 -174t42.5 -128.5t85.5 -84.5t137.5 -28q75 0 143 40.5t113 106.5 v639q-103 47 -239 47q-71 0 -120 -16t-91 -59.5t-63 -128.5t-21 -214z" />
<glyph unicode="e" horiz-adv-x="933" d="M102 489q0 111 23.5 202t71.5 159.5t126 106.5t181 38q160 0 234.5 -98t74.5 -266q0 -77 -6 -133h-600q0 -220 72.5 -320t244.5 -100q83 0 137.5 29t110.5 83l55 -61q-124 -145 -319 -145q-115 0 -196.5 38.5t-126 110t-64 158t-19.5 198.5zM211 584h500v51 q0 134 -51 204t-166 70q-129 0 -200.5 -83t-82.5 -242z" />
<glyph unicode="f" horiz-adv-x="616" d="M109 889v84l110 14v137q0 164 81 244t222 80q74 0 140 -27l-21 -80q-74 19 -135 19q-124 0 -163 -63q-30 -49 -30 -145q0 -27 2 -58l7 -115h272v-90h-272v-889h-103v889h-110z" />
<glyph unicode="g" horiz-adv-x="987" d="M68 -143q0 60 36.5 106t84.5 69t106 34q-74 36 -74 118q0 42 31 78t90 49q-115 30 -165 113.5t-50 220.5q0 163 85.5 256.5t248.5 93.5q45 0 75.5 -3.5t58 -9.5t36.5 -7h284v-86h-184q23 -36 37 -106t14 -142q0 -172 -88 -259t-237 -87q-33 -5 -60.5 -13.5t-52.5 -28.5 t-25 -46q0 -58 35.5 -79.5t120.5 -21.5h162q148 0 214.5 -52t66.5 -158q0 -98 -63.5 -162.5t-164.5 -91.5t-237 -27q-189 0 -287 54.5t-98 187.5zM166 -139q0 -91 71 -125.5t236 -34.5q68 0 125.5 8.5t108 28t79.5 55.5t29 86q0 73 -42.5 104t-129.5 31h-256 q-103 -12 -162 -46t-59 -107zM231 645q0 -142 55.5 -206t168.5 -64q123 0 175 62.5t52 207.5q0 154 -53 246q-74 24 -172 24q-123 0 -174.5 -62.5t-51.5 -207.5z" />
<glyph unicode="h" horiz-adv-x="1083" d="M195 0v1436l102 4v-639q49 102 116 148t181 46q160 0 232.5 -81.5t72.5 -260.5v-653h-102v649q0 135 -47 196.5t-170 61.5q-197 0 -283 -252v-655h-102z" />
<glyph unicode="i" horiz-adv-x="495" d="M176 1286q0 74 72 74q74 0 74 -74q0 -76 -74 -76q-72 0 -72 76zM197 0v979h102v-979h-102z" />
<glyph unicode="j" horiz-adv-x="495" d="M-141 -358l16 84q89 -23 139 -23q124 0 164 63q31 50 31 147q0 26 -2 56l-8 101v909h102v-1040q0 -176 -78.5 -250t-224.5 -74q-73 0 -139 27zM170 1286q0 74 72 74q73 0 73 -74q0 -76 -73 -76q-72 0 -72 76z" />
<glyph unicode="k" horiz-adv-x="946" d="M195 0v1436l102 4v-887l147 59l308 367h102v-18l-324 -396l367 -547v-18h-113l-340 512l-147 -55v-457h-102z" />
<glyph unicode="l" horiz-adv-x="491" d="M195 0v1436l102 4v-1440h-102z" />
<glyph unicode="m" horiz-adv-x="1656" d="M195 0v985h94l6 -186q88 196 285 196q128 0 198.5 -52t95.5 -163q85 215 293 215q160 0 233 -81.5t73 -260.5v-653h-103v641q0 140 -46.5 203t-162.5 63q-100 0 -171 -73t-105 -181v-653h-103v645q0 139 -45.5 200.5t-169.5 61.5q-93 0 -165 -73.5t-105 -178.5v-655h-102 z" />
<glyph unicode="n" horiz-adv-x="1069" d="M195 0v985h94l6 -186q88 196 280 196q161 0 235.5 -80.5t74.5 -257.5v-657h-103v625q0 154 -43.5 218t-171.5 64q-93 0 -165 -73.5t-105 -178.5v-655h-102z" />
<glyph unicode="o" horiz-adv-x="1003" d="M102 489q0 113 23 201.5t61 145t91 93t108 51.5t117 15q399 0 399 -506q0 -113 -23 -201.5t-61 -144.5t-90.5 -92.5t-107.5 -51.5t-117 -15q-89 0 -158.5 25t-125.5 81t-86 157t-30 242zM211 489q0 -219 71 -318t220 -99t220 99t71 318q0 220 -71 319t-220 99t-220 -99 t-71 -319z" />
<glyph unicode="p" horiz-adv-x="1044" d="M195 -369v1354h88l10 -129q97 139 262 139q110 0 185.5 -33t119.5 -99.5t63 -155t19 -211.5q0 -254 -107.5 -383t-310.5 -129q-144 0 -227 55v-408h-102zM297 150q78 -78 240 -78q84 0 143 30t91 88t46 130t14 169q0 220 -65.5 318t-216.5 98q-76 0 -143 -43.5 t-109 -111.5v-600z" />
<glyph unicode="q" horiz-adv-x="1042" d="M102 489q0 254 107.5 380t302.5 126q140 0 248 -53l8 53h80v-1364h-103v480q-47 -56 -119 -91.5t-153 -35.5q-85 0 -149.5 24.5t-116 80.5t-78.5 156.5t-27 243.5zM211 489q0 -205 60.5 -310t209.5 -105q153 0 264 135v643q-102 57 -241 57q-53 0 -94 -9.5t-79.5 -36.5 t-64 -73t-40.5 -122t-15 -179z" />
<glyph unicode="r" horiz-adv-x="681" d="M195 0v985h94l6 -194q42 99 111.5 151.5t150.5 52.5q58 0 94 -10l-14 -108q-41 8 -100 8q-78 0 -139 -58.5t-101 -169.5v-657h-102z" />
<glyph unicode="s" horiz-adv-x="831" d="M92 57l35 86q149 -71 272 -71q219 0 219 178q0 70 -37.5 107.5t-127.5 66.5l-105 33q-114 36 -176.5 97.5t-62.5 168.5q0 125 83 198.5t238 73.5q59 0 131.5 -16.5t116.5 -42.5l-37 -88q-125 59 -221 59q-209 0 -209 -168q0 -80 44.5 -119t152.5 -75l92 -29 q106 -32 165.5 -90.5t59.5 -155.5q0 -138 -89.5 -212t-244.5 -74q-90 0 -171 21t-128 52z" />
<glyph unicode="t" horiz-adv-x="698" d="M86 889v74l127 28l29 199l75 8v-219h285v-90h-289v-686q0 -79 34.5 -105t98.5 -26q73 0 148 71l47 -65q-90 -94 -223 -94q-98 0 -152.5 51t-54.5 147v707h-125z" />
<glyph unicode="u" horiz-adv-x="1062" d="M184 317v662h103v-645q0 -151 49.5 -207.5t157.5 -56.5q89 0 160 69.5t112 179.5v660h102v-991h-90l-8 192q-55 -102 -120.5 -149t-176.5 -47q-149 0 -219 80.5t-70 252.5z" />
<glyph unicode="v" horiz-adv-x="872" d="M53 963v16h101l284 -887l287 887h96v-16l-319 -969h-129z" />
<glyph unicode="w" horiz-adv-x="1419" d="M82 958v21h96l232 -885l245 824h107l256 -826l225 887h96v-21l-252 -964h-135l-247 805l-240 -805h-131z" />
<glyph unicode="x" horiz-adv-x="897" d="M53 0v16l324 494l-297 453v16h104l265 -401l268 401h98v-16l-309 -459l323 -488v-16h-110l-283 436l-284 -436h-99z" />
<glyph unicode="y" horiz-adv-x="866" d="M35 963v16h104l320 -834l248 834h100v-16l-348 -1123q-20 -64 -35 -100t-39 -67.5t-57.5 -44.5t-81.5 -13q-72 0 -133 25l22 86q65 -21 109 -21q37 0 64 26.5t46 90.5l54 172z" />
<glyph unicode="z" horiz-adv-x="849" d="M78 0v78l536 811h-520v90h645v-78l-542 -811h575v-90h-694z" />
<glyph unicode="{" horiz-adv-x="792" d="M143 512v106q30 4 46 6.5t42 9.5t40.5 16.5t32.5 25.5t27.5 38t16 54t6.5 72v397q0 148 81.5 214.5t275.5 66.5v-95q-141 0 -197.5 -43t-56.5 -163v-386q0 -59 -10.5 -103t-25 -69.5t-40.5 -45t-45.5 -27.5t-50.5 -17v-8q31 -9 50.5 -17t45.5 -27.5t40.5 -45t25 -69.5 t10.5 -103v-385q0 -120 57 -163.5t197 -43.5v-94q-194 0 -275.5 66.5t-81.5 214.5v397q0 40 -6.5 72t-16 53.5t-28 38t-32.5 25.5t-40.5 16t-42 9.5t-45.5 6.5z" />
<glyph unicode="|" horiz-adv-x="925" d="M410 -512v2048h106v-2048h-106z" />
<glyph unicode="}" horiz-adv-x="792" d="M82 -293q140 0 197 43.5t57 163.5v385q0 59 10.5 103t25 69.5t40.5 45t45.5 27.5t50.5 17v8q-31 9 -50.5 17t-45.5 27.5t-40.5 45t-25 69.5t-10.5 103v386q0 120 -56.5 163t-197.5 43v95q194 0 275 -66t81 -215v-397q0 -40 6.5 -72t16 -54t27.5 -38t32.5 -25.5 t40.5 -16.5t42 -9.5t46 -6.5v-106q-30 -4 -45.5 -6.5t-42 -9.5t-40.5 -16t-32.5 -25.5t-28 -38t-16 -53.5t-6.5 -72v-397q0 -149 -81 -215t-275 -66v94z" />
<glyph unicode="~" horiz-adv-x="1202" d="M100 410q86 215 285 215q55 0 116.5 -26.5t107.5 -57.5t107.5 -57.5t117.5 -26.5q118 0 204 157l64 -36q-31 -105 -106.5 -160.5t-174.5 -55.5q-59 0 -123 26t-110 57t-104 57t-107 26q-130 0 -211 -153z" />
<glyph unicode="&#xa1;" horiz-adv-x="587" d="M186 909q0 44 24.5 65t61.5 21q39 0 63.5 -21t24.5 -65q0 -46 -24.5 -67t-63.5 -21q-38 0 -62 21t-24 67zM205 -326l31 1006h77l29 -1006v-18h-137v18z" />
<glyph unicode="&#xa2;" horiz-adv-x="1105" d="M199 664q0 124 26 217.5t73.5 151t105.5 88.5t131 42v160h92v-154q150 -5 260 -77l-45 -80q-106 69 -234 69q-161 0 -231 -97t-70 -320q0 -219 76.5 -316.5t234.5 -97.5q75 0 129.5 25t114.5 73l49 -65q-102 -113 -268 -125v-158h-92v160q-76 8 -137 38t-110.5 87.5 t-77 154t-27.5 224.5z" />
<glyph unicode="&#xa3;" horiz-adv-x="1105" d="M59 0v80l131 16q89 160 146 588h-217l4 88h223q8 77 12 105q17 138 44.5 224t77.5 140.5t120 76t178 21.5q93 0 185 -39l-27 -86q-82 31 -168 31q-48 0 -79 -3.5t-65 -14.5t-55.5 -32.5t-41.5 -57t-33 -89.5t-21 -128l-18 -148h383l-4 -88h-390q-55 -423 -155 -592 q59 -5 210 -32t228 -27q38 0 68 7.5t60.5 26t52.5 57t32 95.5l86 -14q-19 -148 -97 -207t-216 -59q-109 0 -251.5 30.5t-223.5 30.5h-179z" />
<glyph unicode="&#xa4;" horiz-adv-x="1185" d="M143 276l138 138q-88 109 -88 252q0 145 88 254l-138 135l60 59l137 -135q106 86 252 86t252 -86l139 135l59 -59l-137 -135q86 -106 86 -254q0 -146 -86 -252l137 -138l-59 -59l-139 137q-109 -88 -252 -88t-252 88l-137 -137zM281 666q0 -131 90.5 -221.5t220.5 -90.5 t220.5 90.5t90.5 221.5q0 130 -90.5 220.5t-220.5 90.5t-220.5 -90.5t-90.5 -220.5z" />
<glyph unicode="&#xa5;" horiz-adv-x="1105" d="M74 1305v18h108l377 -676l365 676h106v-18l-377 -689h340v-88h-385v-129h385v-88h-385v-311h-106v311h-369v88h369v129h-369v88h324z" />
<glyph unicode="&#xa6;" horiz-adv-x="925" d="M410 449h106v-961h-106v961zM410 575v961h106v-961h-106z" />
<glyph unicode="&#xa7;" horiz-adv-x="995" d="M86 -211l45 84q150 -96 309 -96q120 0 195.5 59.5t75.5 183.5q0 98 -47.5 153t-153.5 93l-123 45q-128 48 -196 127.5t-68 202.5q0 120 57 199.5t160 107.5q-188 98 -188 295q0 160 95.5 247t264.5 87q179 0 311 -78l-39 -92q-56 32 -135 55t-155 23q-110 0 -173 -54 t-63 -163q0 -91 41.5 -149.5t146.5 -98.5l160 -62q127 -52 187.5 -126t60.5 -187q0 -121 -60.5 -202.5t-156.5 -116.5q186 -94 186 -285q0 -168 -103 -262t-294 -94q-96 0 -198 34.5t-142 69.5zM229 664q0 -91 42 -150.5t145 -97.5l114 -43q95 13 152 76t57 174 q0 101 -45.5 156t-152.5 91l-80 27q-100 -8 -166 -69.5t-66 -163.5z" />
<glyph unicode="&#xa8;" horiz-adv-x="794" d="M182 1266q0 77 74 77q76 0 76 -77q0 -78 -76 -78q-74 0 -74 78zM467 1266q0 77 74 77q75 0 75 -77q0 -78 -75 -78q-74 0 -74 78z" />
<glyph unicode="&#xa9;" horiz-adv-x="1630" d="M164 662q0 115 25 216t77.5 186t129 146t183.5 95t236 34t235.5 -34t183 -95t129 -146t78 -186t25.5 -216q0 -142 -41 -263.5t-119.5 -215t-204.5 -146.5t-286 -53q-161 0 -287 52.5t-204.5 145t-119 214.5t-40.5 266zM266 662q0 -278 143 -432t406 -154t406 154t143 432 t-143 431.5t-406 153.5t-406 -153.5t-143 -431.5zM506 659q0 102 26 178t72 119t102 63.5t123 20.5q109 0 195 -51l-29 -76q-81 43 -166 43q-110 0 -165.5 -67t-55.5 -230q0 -160 55.5 -228.5t165.5 -68.5q95 0 181 50l28 -66q-83 -67 -213 -67q-319 0 -319 380z" />
<glyph unicode="&#xaa;" horiz-adv-x="712" d="M59 803q0 49 19 84t56.5 57.5t75.5 35t95 24.5l137 26v74q0 86 -39.5 121t-117.5 35q-76 0 -170 -48l-23 64q96 59 215 59q109 0 167 -52.5t58 -158.5v-348q0 -71 19 -141l-82 -10q-15 46 -18 86q-85 -88 -209 -88q-84 0 -133.5 47.5t-49.5 132.5zM150 807 q0 -111 124 -111q46 0 92.5 22.5t75.5 53.5v193l-123 -27q-94 -19 -131.5 -47t-37.5 -84z" />
<glyph unicode="&#xab;" horiz-adv-x="765" d="M113 467v45l204 313h82v-20l-194 -311v-9l194 -311v-20h-82zM397 467v45l205 313h82v-20l-195 -311v-9l195 -311v-20h-82z" />
<glyph unicode="&#xac;" horiz-adv-x="1433" d="M164 571v93h1085v-664h-102v571h-983z" />
<glyph unicode="&#xad;" horiz-adv-x="714" d="M102 467v88h510v-88h-510z" />
<glyph unicode="&#xae;" horiz-adv-x="1630" d="M164 662q0 115 25 216t77.5 186t129 146t183.5 95t236 34t235.5 -34t183 -95t129 -146t78 -186t25.5 -216q0 -142 -41 -263.5t-119.5 -215t-204.5 -146.5t-286 -53q-161 0 -287 52.5t-204.5 145t-119 214.5t-40.5 266zM266 662q0 -278 143 -432t406 -154t406 154t143 432 t-143 431.5t-406 153.5t-406 -153.5t-143 -431.5zM596 303v741h205q119 0 186.5 -56t67.5 -171q0 -156 -135 -207l192 -295v-12h-106l-181 287h-37h-96v-287h-96zM692 674h96q83 0 123.5 34t40.5 109q0 74 -40.5 109t-123.5 35h-96v-287z" />
<glyph unicode="&#xaf;" horiz-adv-x="776" d="M154 1217v88h469v-88h-469z" />
<glyph unicode="&#xb0;" horiz-adv-x="778" d="M102 981q0 98 24.5 170t67 111t91 57t104.5 18q287 0 287 -356q0 -79 -16.5 -141.5t-44 -102t-65.5 -65.5t-77.5 -36.5t-83.5 -10.5q-287 0 -287 356zM197 981q0 -150 46.5 -215.5t145.5 -65.5t146 66t47 215q0 151 -47 217t-146 66t-145.5 -66t-46.5 -217z" />
<glyph unicode="&#xb1;" horiz-adv-x="1187" d="M258 0v76h674v-76h-674zM258 602v78h287v297h102v-297h285v-78h-285v-334h-102v334h-287z" />
<glyph unicode="&#xb2;" horiz-adv-x="567" d="M61 1288q27 21 77.5 36t109.5 15q99 0 158 -50t59 -154q0 -121 -154 -271q-108 -108 -147 -186h321v-76h-419v57q54 124 163 236q80 82 104 119q38 56 38 110q0 138 -138 138q-41 0 -71 -10t-70 -33z" />
<glyph unicode="&#xb3;" horiz-adv-x="567" d="M61 645l29 68q83 -45 160 -45q74 0 109.5 36.5t35.5 102.5q0 65 -38 96.5t-117 34.5l-35 2v72l33 2q131 6 131 137q0 54 -32 83.5t-89 29.5q-77 0 -144 -45l-28 67q72 53 178 53q92 0 147.5 -46t55.5 -128q0 -74 -32 -120t-87 -60v-2q72 -12 109.5 -56.5t37.5 -115.5 q0 -117 -66 -168t-173 -51q-110 0 -185 53z" />
<glyph unicode="&#xb4;" horiz-adv-x="690" d="M154 1151v70l358 186h25v-113l-359 -143h-24z" />
<glyph unicode="&#xb5;" horiz-adv-x="1083" d="M-145 -354l14 80q74 -19 141 -19q124 0 164 63.5t29 202.5l-8 101v905h102v-645q0 -151 49.5 -207.5t157.5 -56.5q89 0 160 69.5t112 179.5v660h103v-991h-91l-8 192q-55 -102 -120.5 -149t-176.5 -47q-119 0 -186 49v-90q0 -176 -78.5 -250t-224.5 -74q-73 0 -139 27z " />
<glyph unicode="&#xb6;" horiz-adv-x="1208" d="M143 659q0 461 367 461h549v-88h-98v-1032h-89v1032h-98v-1089q0 -176 -78.5 -250t-224.5 -74q-73 0 -139 27l14 80q74 -19 141 -19q124 0 164 63.5t29 202.5l-8 101v172h-195q-157 0 -245.5 109.5t-88.5 303.5z" />
<glyph unicode="&#xb7;" horiz-adv-x="382" d="M104 541q0 46 24 67t62 21q39 0 64 -21t25 -67q0 -44 -25 -65t-64 -21q-37 0 -61.5 21t-24.5 65z" />
<glyph unicode="&#xb8;" horiz-adv-x="733" d="M168 -344l39 53q70 -57 129 -57q110 0 110 92q0 53 -38 73t-113 25l47 168h78l-35 -114q70 -8 111 -45.5t41 -104.5q0 -74 -49 -123t-144 -49q-99 0 -176 82z" />
<glyph unicode="&#xb9;" horiz-adv-x="552" d="M82 1135v77q40 18 95.5 57t80.5 66h66v-657h147v-76h-385v76h152v545q-20 -22 -67 -48t-83 -40h-6z" />
<glyph unicode="&#xba;" horiz-adv-x="829" d="M72 981q0 98 24.5 170t66.5 111t90.5 57t104.5 18q287 0 287 -356q0 -79 -16.5 -141.5t-44 -102t-65.5 -65.5t-77.5 -36.5t-83.5 -10.5q-286 0 -286 356zM166 981q0 -150 46.5 -215.5t145.5 -65.5t146 66t47 215q0 151 -47 217t-146 66t-145.5 -66t-46.5 -217z" />
<glyph unicode="&#xbb;" horiz-adv-x="786" d="M82 154v20l194 311v9l-194 311v20h82l205 -313v-45l-205 -313h-82zM387 154v20l195 311v9l-195 311v20h82l205 -313v-45l-205 -313h-82z" />
<glyph unicode="&#xbc;" horiz-adv-x="1730" d="M262 1135v77q40 18 95.5 57t80.5 66h66v-657h147v-76h-385v76h152v545q-20 -22 -67 -48t-83 -40h-6zM508 0v25l743 1298h78v-25l-745 -1298h-76zM1006 133v68q16 70 116 272q89 187 109 256h78v-12q-14 -53 -115 -264q-92 -192 -102 -248h206v176h82v-176h97v-72h-97 v-133h-82v133h-292z" />
<glyph unicode="&#xbd;" horiz-adv-x="1824" d="M262 1135v77q40 18 95.5 57t80.5 66h66v-657h147v-76h-385v76h152v545q-20 -22 -67 -48t-83 -40h-6zM508 0v25l743 1298h78v-25l-745 -1298h-76zM1128 682q27 21 77.5 36t109.5 15q99 0 158 -50.5t59 -154.5q0 -120 -154 -270q-108 -108 -147 -186h321v-76h-419v57 q54 124 163 236q80 82 104 119q38 56 38 110q0 137 -138 137q-41 0 -71 -10t-70 -33z" />
<glyph unicode="&#xbe;" horiz-adv-x="1730" d="M258 641l29 68q83 -45 159 -45q74 0 110 36.5t36 102.5q0 65 -38.5 96.5t-117.5 34.5l-35 2v72l33 2q131 6 131 137q0 54 -32 83.5t-89 29.5q-75 0 -143 -46l-29 68q72 53 179 53q92 0 147 -46t55 -128q0 -74 -32 -120t-86 -60v-2q72 -12 109.5 -56.5t37.5 -115.5 q0 -117 -66.5 -168t-173.5 -51q-109 0 -184 53zM508 0v25l743 1298h78v-25l-745 -1298h-76zM1006 133v68q16 70 116 272q89 187 109 256h78v-12q-14 -53 -115 -264q-92 -192 -102 -248h206v176h82v-176h97v-72h-97v-133h-82v133h-292z" />
<glyph unicode="&#xbf;" horiz-adv-x="962" d="M205 -45q0 45 11.5 85t25.5 66t42.5 55t45.5 42l51 39q5 4 16 11q79 58 107 93q57 72 57 211v117h103v-125q0 -70 -8.5 -119t-30.5 -86t-45.5 -61t-65.5 -58q-12 -10 -43.5 -33.5t-47 -36t-40 -36.5t-37 -44t-22 -48t-9.5 -58q0 -117 56.5 -172t177.5 -55q47 0 97.5 15.5 t78.5 30.5t70 40l41 -90q-50 -38 -131.5 -67t-161.5 -29q-166 0 -252 79.5t-86 233.5zM510 911q0 44 24.5 65t63.5 21q37 0 61.5 -21t24.5 -65q0 -46 -24 -67t-62 -21q-39 0 -63.5 21t-24.5 67z" />
<glyph unicode="&#xc0;" horiz-adv-x="1103" d="M66 0v18l419 1309h138l415 -1307v-20h-106l-129 401h-508l-127 -401h-102zM326 500h446l-223 706zM340 1581v109h25l399 -174v-78h-25z" />
<glyph unicode="&#xc1;" horiz-adv-x="1103" d="M66 0v18l419 1309h138l415 -1307v-20h-106l-129 401h-508l-127 -401h-102zM326 500h446l-223 706zM362 1438v78l400 174h24v-109l-399 -143h-25z" />
<glyph unicode="&#xc2;" horiz-adv-x="1103" d="M66 0v18l419 1309h138l415 -1307v-20h-106l-129 401h-508l-127 -401h-102zM287 1438v78l248 167h36l248 -167v-78h-20l-246 147l-246 -147h-20zM326 500h446l-223 706z" />
<glyph unicode="&#xc3;" horiz-adv-x="1103" d="M66 0v18l419 1309h138l415 -1307v-20h-106l-129 401h-508l-127 -401h-102zM285 1479q23 73 62 109t106 36q35 0 111 -30.5t112 -30.5q19 0 33 6t25 20t16.5 24t15.5 32l70 -27q-26 -82 -62.5 -112.5t-105.5 -30.5q-45 0 -121 30.5t-105 30.5q-28 0 -51 -22.5t-37 -59.5z M326 500h446l-223 706z" />
<glyph unicode="&#xc4;" horiz-adv-x="1103" d="M66 0v18l419 1309h138l415 -1307v-20h-106l-129 401h-508l-127 -401h-102zM326 500h446l-223 706zM334 1550q0 40 21 59t55 19t55.5 -19t21.5 -59q0 -39 -21.5 -57t-55.5 -18t-55 18t-21 57zM629 1550q0 40 21 59t55 19t55.5 -19t21.5 -59q0 -39 -21.5 -57t-55.5 -18 t-55 18t-21 57z" />
<glyph unicode="&#xc5;" horiz-adv-x="1103" d="M66 0v18l419 1309h138l415 -1307v-20h-106l-129 401h-508l-127 -401h-102zM326 500h446l-223 706zM387 1589q0 88 47 128t121 40q76 0 123 -40t47 -128t-47 -128t-123 -40t-122 40t-46 128zM471 1589q0 -55 20.5 -79.5t63.5 -24.5q47 0 65.5 24t18.5 80q0 105 -84 105 q-45 0 -64.5 -24.5t-19.5 -80.5z" />
<glyph unicode="&#xc6;" horiz-adv-x="1509" d="M-20 0v18l643 1305h794v-98h-655v-494h473v-98h-473v-533h674v-100h-781v403h-376l-197 -403h-102zM322 498h333v680z" />
<glyph unicode="&#xc7;" horiz-adv-x="1077" d="M127 662q0 181 39.5 313.5t112 211t167 115.5t213.5 37q183 0 328 -94l-43 -92q-77 44 -142.5 66t-142.5 22q-80 0 -143 -18t-115.5 -60t-87.5 -108t-54 -165t-19 -228q0 -580 415 -580q93 0 162.5 23t149.5 77l49 -78q-136 -117 -354 -120l-27 -88q70 -8 110.5 -45 t40.5 -105q0 -74 -48.5 -123t-143.5 -49q-99 0 -176 82l39 53q70 -57 129 -57q110 0 110 92q0 53 -38 73t-113 25l41 146q-104 10 -186 52.5t-144 122t-95.5 206t-33.5 293.5z" />
<glyph unicode="&#xc8;" horiz-adv-x="1069" d="M215 0v1323h758v-98h-651v-494h473v-98h-473v-535h673v-98h-780zM322 1581v109h24l399 -174v-78h-24z" />
<glyph unicode="&#xc9;" horiz-adv-x="1069" d="M215 0v1323h758v-98h-651v-494h473v-98h-473v-535h673v-98h-780zM385 1438v78l399 174h25v-109l-399 -143h-25z" />
<glyph unicode="&#xca;" horiz-adv-x="1069" d="M215 0v1323h758v-98h-651v-494h473v-98h-473v-535h673v-98h-780zM326 1438v78l247 167h37l248 -167v-78h-20l-246 147l-246 -147h-20z" />
<glyph unicode="&#xcb;" horiz-adv-x="1069" d="M215 0v1323h758v-98h-651v-494h473v-98h-473v-535h673v-98h-780zM369 1550q0 40 21 59t54 19q34 0 56 -19t22 -59q0 -39 -22 -57t-56 -18t-54.5 18t-20.5 57zM664 1550q0 40 21 59t54 19q34 0 56 -19t22 -59q0 -39 -22 -57t-56 -18t-54.5 18t-20.5 57z" />
<glyph unicode="&#xcc;" horiz-adv-x="544" d="M-31 1581v109h25l399 -174v-78h-24zM219 0v1323h107v-1323h-107z" />
<glyph unicode="&#xcd;" horiz-adv-x="544" d="M158 1438v78l399 174h25v-109l-400 -143h-24zM219 0v1323h107v-1323h-107z" />
<glyph unicode="&#xce;" horiz-adv-x="544" d="M6 1438v78l248 167h37l248 -167v-78h-21l-246 147l-245 -147h-21zM219 0v1323h107v-1323h-107z" />
<glyph unicode="&#xcf;" horiz-adv-x="544" d="M49 1550q0 40 21 59t55 19t56 -19t22 -59q0 -39 -22 -57t-56 -18t-55 18t-21 57zM219 0v1323h107v-1323h-107zM344 1550q0 40 21 59t55 19t56 -19t22 -59q0 -39 -22 -57t-56 -18t-55 18t-21 57z" />
<glyph unicode="&#xd0;" horiz-adv-x="1232" d="M57 639v92h158v592h338q95 0 175 -21t151 -70t120.5 -123.5t78 -188.5t28.5 -258t-28.5 -257.5t-78 -188.5t-120.5 -124.5t-151 -70.5t-175 -21h-338v639h-158zM324 98h215q454 0 454 564q0 563 -454 563h-215v-494h243v-92h-243v-541z" />
<glyph unicode="&#xd1;" horiz-adv-x="1351" d="M215 0v1323h139l682 -1169v1169h101v-1323h-115l-707 1204v-1204h-100zM418 1479q23 73 62 109t106 36q35 0 111 -30.5t112 -30.5q19 0 33 6t25 20t16.5 24t15.5 32l70 -27q-26 -82 -62.5 -112.5t-105.5 -30.5q-45 0 -121 30.5t-105 30.5q-28 0 -51 -22.5t-37 -59.5z" />
<glyph unicode="&#xd2;" d="M127 662q0 150 26 267t70.5 193t108.5 125.5t136.5 70.5t158.5 21q110 0 197.5 -34.5t157.5 -111t108 -211t38 -320.5q0 -149 -26 -266t-70.5 -193.5t-109 -126.5t-137 -71t-158.5 -21q-110 0 -197.5 35t-157 111.5t-107.5 211t-38 320.5zM240 662q0 -580 387 -580 q196 0 292.5 137t96.5 443q0 579 -389 579q-197 0 -292 -136t-95 -443zM416 1581v109h24l400 -174v-78h-25z" />
<glyph unicode="&#xd3;" d="M127 662q0 150 26 267t70.5 193t108.5 125.5t136.5 70.5t158.5 21q110 0 197.5 -34.5t157.5 -111t108 -211t38 -320.5q0 -149 -26 -266t-70.5 -193.5t-109 -126.5t-137 -71t-158.5 -21q-110 0 -197.5 35t-157 111.5t-107.5 211t-38 320.5zM240 662q0 -580 387 -580 q196 0 292.5 137t96.5 443q0 579 -389 579q-197 0 -292 -136t-95 -443zM416 1438v78l399 174h25v-109l-400 -143h-24z" />
<glyph unicode="&#xd4;" d="M127 662q0 150 26 267t70.5 193t108.5 125.5t136.5 70.5t158.5 21q110 0 197.5 -34.5t157.5 -111t108 -211t38 -320.5q0 -149 -26 -266t-70.5 -193.5t-109 -126.5t-137 -71t-158.5 -21q-110 0 -197.5 35t-157 111.5t-107.5 211t-38 320.5zM240 662q0 -580 387 -580 q196 0 292.5 137t96.5 443q0 579 -389 579q-197 0 -292 -136t-95 -443zM360 1438v78l248 167h37l248 -167v-78h-21l-245 147l-246 -147h-21z" />
<glyph unicode="&#xd5;" d="M127 662q0 150 26 267t70.5 193t108.5 125.5t136.5 70.5t158.5 21q110 0 197.5 -34.5t157.5 -111t108 -211t38 -320.5q0 -149 -26 -266t-70.5 -193.5t-109 -126.5t-137 -71t-158.5 -21q-110 0 -197.5 35t-157 111.5t-107.5 211t-38 320.5zM240 662q0 -580 387 -580 q196 0 292.5 137t96.5 443q0 579 -389 579q-197 0 -292 -136t-95 -443zM344 1479q23 73 62 109t106 36q35 0 111 -30.5t112 -30.5q19 0 33 6t25 20t16.5 24t15.5 32l70 -27q-26 -82 -62.5 -112.5t-105.5 -30.5q-45 0 -120.5 30.5t-104.5 30.5q-28 0 -51 -22.5t-37 -59.5z " />
<glyph unicode="&#xd6;" d="M127 662q0 150 26 267t70.5 193t108.5 125.5t136.5 70.5t158.5 21q110 0 197.5 -34.5t157.5 -111t108 -211t38 -320.5q0 -149 -26 -266t-70.5 -193.5t-109 -126.5t-137 -71t-158.5 -21q-110 0 -197.5 35t-157 111.5t-107.5 211t-38 320.5zM240 662q0 -580 387 -580 q196 0 292.5 137t96.5 443q0 579 -389 579q-197 0 -292 -136t-95 -443zM403 1550q0 40 21 59t55 19t56 -19t22 -59q0 -39 -22 -57t-56 -18t-55 18t-21 57zM698 1550q0 40 21 59t55 19t56 -19t22 -59q0 -39 -22 -57t-56 -18t-55 18t-21 57z" />
<glyph unicode="&#xd7;" horiz-adv-x="1187" d="M100 61l426 435l-420 432l62 69l426 -434l424 432l59 -67l-420 -430l428 -437l-65 -71l-428 438l-428 -438z" />
<glyph unicode="&#xd8;" d="M127 -84l137 223q-137 169 -137 523q0 150 26 267t70.5 193t108.5 125.5t136.5 70.5t158.5 21q190 0 309 -100l115 186h88v-18l-142 -231q131 -169 131 -514q0 -149 -26 -266t-70.5 -193.5t-109 -126.5t-137 -71t-158.5 -21q-188 0 -301 94l-111 -180h-88v18zM240 662 q0 -275 88 -420l551 903q-96 96 -252 96q-197 0 -292 -136t-95 -443zM383 172q90 -90 244 -90q196 0 292.5 137t96.5 443q0 260 -84 409z" />
<glyph unicode="&#xd9;" horiz-adv-x="1263" d="M195 498v825h106v-791q0 -140 17.5 -227.5t60.5 -136t101.5 -65.5t152.5 -17q93 0 152 19t101 70t59.5 140t17.5 230v778h106v-805q0 -291 -102 -412.5t-334 -121.5q-157 0 -250.5 46.5t-140.5 159.5t-47 308zM381 1581v109h25l399 -174v-78h-25z" />
<glyph unicode="&#xda;" horiz-adv-x="1263" d="M195 498v825h106v-791q0 -140 17.5 -227.5t60.5 -136t101.5 -65.5t152.5 -17q93 0 152 19t101 70t59.5 140t17.5 230v778h106v-805q0 -291 -102 -412.5t-334 -121.5q-157 0 -250.5 46.5t-140.5 159.5t-47 308zM463 1438v78l399 174h25v-109l-400 -143h-24z" />
<glyph unicode="&#xdb;" horiz-adv-x="1263" d="M195 498v825h106v-791q0 -140 17.5 -227.5t60.5 -136t101.5 -65.5t152.5 -17q93 0 152 19t101 70t59.5 140t17.5 230v778h106v-805q0 -291 -102 -412.5t-334 -121.5q-157 0 -250.5 46.5t-140.5 159.5t-47 308zM367 1438v78l247 167h37l248 -167v-78h-20l-246 147 l-246 -147h-20z" />
<glyph unicode="&#xdc;" horiz-adv-x="1263" d="M195 498v825h106v-791q0 -140 17.5 -227.5t60.5 -136t101.5 -65.5t152.5 -17q93 0 152 19t101 70t59.5 140t17.5 230v778h106v-805q0 -291 -102 -412.5t-334 -121.5q-157 0 -250.5 46.5t-140.5 159.5t-47 308zM397 1550q0 40 21 59t55 19t56 -19t22 -59q0 -39 -22 -57 t-56 -18t-55 18t-21 57zM692 1550q0 40 21 59t55 19t56 -19t22 -59q0 -39 -22 -57t-56 -18t-55 18t-21 57z" />
<glyph unicode="&#xdd;" horiz-adv-x="1028" d="M31 1305v18h108l377 -676l365 676h106v-18l-422 -770v-535h-106v535zM354 1438v78l400 174h24v-109l-399 -143h-25z" />
<glyph unicode="&#xde;" horiz-adv-x="1028" d="M215 0v1323h107v-246h225q191 0 299 -95t108 -302q0 -206 -108 -301.5t-299 -95.5h-225v-283h-107zM322 381h223q154 0 224.5 74t70.5 225q0 152 -70.5 225.5t-224.5 73.5h-223v-598z" />
<glyph unicode="&#xdf;" horiz-adv-x="1153" d="M109 889v84l110 14v117q0 89 30 157t80.5 108t111 59.5t128.5 19.5q178 0 279.5 -73t101.5 -212q0 -60 -21.5 -106.5t-55.5 -74.5t-75.5 -50t-82.5 -40.5t-75 -39t-55.5 -52t-21.5 -73.5q0 -72 34.5 -112t131.5 -70l92 -29q105 -33 165.5 -89.5t60.5 -152.5 q0 -139 -89.5 -214.5t-244.5 -75.5q-90 0 -171 21t-128 52l35 86q149 -71 272 -71q219 0 219 178q0 70 -37.5 107.5t-128.5 66.5l-98 31q-107 34 -160 93t-53 161q0 58 21 102.5t54.5 72t73.5 49.5t80.5 42t74 42.5t54.5 58t21 81.5q0 108 -73.5 156.5t-219.5 48.5 q-122 0 -181.5 -73.5t-52.5 -215.5l7 -115v-958h-103v889h-110z" />
<glyph unicode="&#xe0;" horiz-adv-x="937" d="M94 233q0 57 19.5 101.5t49.5 73t78.5 51.5t94 35.5t108.5 25.5l197 39v111q0 129 -59.5 182t-173.5 53q-116 0 -240 -69l-37 77q136 82 303 82q149 0 229 -74.5t80 -222.5v-503q0 -85 25 -195l-92 -14q-23 77 -27 123q-122 -125 -303 -125q-117 0 -184.5 66t-67.5 183z M199 238q0 -166 188 -166q69 0 139.5 35.5t114.5 82.5v285l-186 -39q-143 -30 -199.5 -72t-56.5 -126zM221 1294v113h25l358 -186v-70h-24z" />
<glyph unicode="&#xe1;" horiz-adv-x="937" d="M94 233q0 57 19.5 101.5t49.5 73t78.5 51.5t94 35.5t108.5 25.5l197 39v111q0 129 -59.5 182t-173.5 53q-116 0 -240 -69l-37 77q136 82 303 82q149 0 229 -74.5t80 -222.5v-503q0 -85 25 -195l-92 -14q-23 77 -27 123q-122 -125 -303 -125q-117 0 -184.5 66t-67.5 183z M199 238q0 -166 188 -166q69 0 139.5 35.5t114.5 82.5v285l-186 -39q-143 -30 -199.5 -72t-56.5 -126zM248 1151v70l358 186h25v-113l-359 -143h-24z" />
<glyph unicode="&#xe2;" horiz-adv-x="937" d="M94 233q0 57 19.5 101.5t49.5 73t78.5 51.5t94 35.5t108.5 25.5l197 39v111q0 129 -59.5 182t-173.5 53q-116 0 -240 -69l-37 77q136 82 303 82q149 0 229 -74.5t80 -222.5v-503q0 -85 25 -195l-92 -14q-23 77 -27 123q-122 -125 -303 -125q-117 0 -184.5 66t-67.5 183z M180 1151v78l228 172h36l228 -172v-78h-29l-217 158l-217 -158h-29zM199 238q0 -166 188 -166q69 0 139.5 35.5t114.5 82.5v285l-186 -39q-143 -30 -199.5 -72t-56.5 -126z" />
<glyph unicode="&#xe3;" horiz-adv-x="937" d="M94 233q0 57 19.5 101.5t49.5 73t78.5 51.5t94 35.5t108.5 25.5l197 39v111q0 129 -59.5 182t-173.5 53q-116 0 -240 -69l-37 77q136 82 303 82q149 0 229 -74.5t80 -222.5v-503q0 -85 25 -195l-92 -14q-23 77 -27 123q-122 -125 -303 -125q-117 0 -184.5 66t-67.5 183z M172 1221q46 137 143 137q37 0 109 -29t104 -29q60 0 93 70l63 -27q-24 -67 -59.5 -101t-89.5 -34q-40 0 -117.5 30t-95.5 30q-50 0 -82 -72zM199 238q0 -166 188 -166q69 0 139.5 35.5t114.5 82.5v285l-186 -39q-143 -30 -199.5 -72t-56.5 -126z" />
<glyph unicode="&#xe4;" horiz-adv-x="937" d="M94 233q0 57 19.5 101.5t49.5 73t78.5 51.5t94 35.5t108.5 25.5l197 39v111q0 129 -59.5 182t-173.5 53q-116 0 -240 -69l-37 77q136 82 303 82q149 0 229 -74.5t80 -222.5v-503q0 -85 25 -195l-92 -14q-23 77 -27 123q-122 -125 -303 -125q-117 0 -184.5 66t-67.5 183z M199 238q0 -166 188 -166q69 0 139.5 35.5t114.5 82.5v285l-186 -39q-143 -30 -199.5 -72t-56.5 -126zM211 1266q0 77 74 77q75 0 75 -77q0 -78 -75 -78q-74 0 -74 78zM496 1266q0 77 73 77q76 0 76 -77q0 -78 -76 -78q-73 0 -73 78z" />
<glyph unicode="&#xe5;" horiz-adv-x="937" d="M94 233q0 57 19.5 101.5t49.5 73t78.5 51.5t94 35.5t108.5 25.5l197 39v111q0 129 -59.5 182t-173.5 53q-116 0 -240 -69l-37 77q136 82 303 82q149 0 229 -74.5t80 -222.5v-503q0 -85 25 -195l-92 -14q-23 77 -27 123q-122 -125 -303 -125q-117 0 -184.5 66t-67.5 183z M199 238q0 -166 188 -166q69 0 139.5 35.5t114.5 82.5v285l-186 -39q-143 -30 -199.5 -72t-56.5 -126zM260 1290q0 94 47.5 136t126.5 42q80 0 128 -42t48 -136t-48 -136t-128 -42q-174 0 -174 178zM346 1290q0 -56 21.5 -82t66.5 -26q49 0 68.5 25t19.5 83q0 109 -88 109 q-47 0 -67.5 -26t-20.5 -83z" />
<glyph unicode="&#xe6;" horiz-adv-x="1474" d="M94 233q0 57 19.5 101.5t50 73t79.5 51.5t95.5 35.5t110.5 25.5l194 39v111q0 129 -58.5 182t-172.5 53q-122 0 -242 -69l-37 77q136 82 305 82q224 0 285 -164q106 164 321 164q109 0 180 -48.5t100.5 -127.5t29.5 -188q0 -65 -6 -133h-600q0 -220 71 -321t248 -101 q57 0 107.5 18.5t76.5 38t66 55.5l49 -59q-66 -74 -137.5 -109.5t-179.5 -35.5q-238 0 -334 166q-71 -74 -164.5 -120t-200.5 -46q-118 0 -187 66.5t-69 182.5zM201 236q0 -164 190 -164q81 0 159 44.5t132 106.5q-39 104 -39 252l-184 -39q-145 -30 -201.5 -71.5 t-56.5 -128.5zM752 586h499v47q0 276 -217 276q-261 0 -282 -323z" />
<glyph unicode="&#xe7;" horiz-adv-x="872" d="M102 489q0 113 22.5 201.5t60 145t91 93t112 51.5t126.5 15q161 0 277 -77l-46 -80q-106 69 -233 69q-161 0 -231 -97.5t-70 -320.5q0 -219 76.5 -316t234.5 -97q75 0 129.5 25t114.5 73l49 -65q-116 -122 -295 -125l-26 -88q70 -8 110.5 -45t40.5 -105q0 -74 -48.5 -123 t-143.5 -49q-100 0 -177 82l39 53q70 -57 129 -57q111 0 111 92q0 53 -38.5 73t-113.5 25l41 146q-73 9 -132.5 40t-108 88t-75 152t-26.5 221z" />
<glyph unicode="&#xe8;" horiz-adv-x="933" d="M102 489q0 111 23.5 202t71.5 159.5t126 106.5t181 38q160 0 234.5 -98t74.5 -266q0 -77 -6 -133h-600q0 -220 72.5 -320t244.5 -100q83 0 137.5 29t110.5 83l55 -61q-124 -145 -319 -145q-115 0 -196.5 38.5t-126 110t-64 158t-19.5 198.5zM211 584h500v51 q0 134 -51 204t-166 70q-129 0 -200.5 -83t-82.5 -242zM256 1294v113h25l358 -186v-70h-25z" />
<glyph unicode="&#xe9;" horiz-adv-x="933" d="M102 489q0 111 23.5 202t71.5 159.5t126 106.5t181 38q160 0 234.5 -98t74.5 -266q0 -77 -6 -133h-600q0 -220 72.5 -320t244.5 -100q83 0 137.5 29t110.5 83l55 -61q-124 -145 -319 -145q-115 0 -196.5 38.5t-126 110t-64 158t-19.5 198.5zM211 584h500v51 q0 134 -51 204t-166 70q-129 0 -200.5 -83t-82.5 -242zM324 1151v70l358 186h25v-113l-359 -143h-24z" />
<glyph unicode="&#xea;" horiz-adv-x="933" d="M102 489q0 111 23.5 202t71.5 159.5t126 106.5t181 38q160 0 234.5 -98t74.5 -266q0 -77 -6 -133h-600q0 -220 72.5 -320t244.5 -100q83 0 137.5 29t110.5 83l55 -61q-124 -145 -319 -145q-115 0 -196.5 38.5t-126 110t-64 158t-19.5 198.5zM211 584h500v51 q0 134 -51 204t-166 70q-129 0 -200.5 -83t-82.5 -242zM258 1151v78l227 172h37l228 -172v-78h-29l-217 158l-217 -158h-29z" />
<glyph unicode="&#xeb;" horiz-adv-x="933" d="M102 489q0 111 23.5 202t71.5 159.5t126 106.5t181 38q160 0 234.5 -98t74.5 -266q0 -77 -6 -133h-600q0 -220 72.5 -320t244.5 -100q83 0 137.5 29t110.5 83l55 -61q-124 -145 -319 -145q-115 0 -196.5 38.5t-126 110t-64 158t-19.5 198.5zM211 584h500v51 q0 134 -51 204t-166 70q-129 0 -200.5 -83t-82.5 -242zM291 1266q0 77 74 77q75 0 75 -77q0 -78 -75 -78q-74 0 -74 78zM575 1266q0 77 74 77q76 0 76 -77q0 -78 -76 -78q-74 0 -74 78z" />
<glyph unicode="&#xec;" horiz-adv-x="495" d="M12 1294v113h25l358 -186v-70h-24zM197 0v979h102v-979h-102z" />
<glyph unicode="&#xed;" horiz-adv-x="495" d="M94 1151v70l359 186h24v-113l-358 -143h-25zM197 0v979h102v-979h-102z" />
<glyph unicode="&#xee;" horiz-adv-x="495" d="M-4 1151v78l227 172h37l227 -172v-78h-28l-217 158l-217 -158h-29zM197 0v979h102v-979h-102z" />
<glyph unicode="&#xef;" horiz-adv-x="495" d="M31 1266q0 77 73 77q76 0 76 -77q0 -78 -76 -78q-73 0 -73 78zM197 0v979h102v-979h-102zM315 1266q0 77 74 77q76 0 76 -77q0 -78 -76 -78q-74 0 -74 78z" />
<glyph unicode="&#xf0;" horiz-adv-x="1003" d="M102 489q0 113 23 201.5t61 145t91 93t108 51.5t117 15q132 0 219 -53q-38 144 -98 252h-203v74h160q-59 87 -127 149v19l88 4q78 -74 141 -172h172v-74h-129q176 -322 176 -711q0 -106 -21.5 -191t-58 -141.5t-88 -94.5t-109 -55t-122.5 -17q-89 0 -158.5 25t-125.5 81 t-86 157t-30 242zM211 489q0 -219 71 -318t220 -99t220 99t71 318q0 220 -71 319t-220 99t-220 -99t-71 -319z" />
<glyph unicode="&#xf1;" horiz-adv-x="1069" d="M195 0v985h94l6 -186q88 196 280 196q161 0 235.5 -80.5t74.5 -257.5v-657h-103v625q0 154 -43.5 218t-171.5 64q-93 0 -165 -73.5t-105 -178.5v-655h-102zM279 1221q46 137 143 137q37 0 109 -29t104 -29q59 0 92 70l64 -27q-49 -135 -150 -135q-40 0 -117.5 30 t-95.5 30q-50 0 -82 -72z" />
<glyph unicode="&#xf2;" horiz-adv-x="1003" d="M102 489q0 113 23 201.5t61 145t91 93t108 51.5t117 15q399 0 399 -506q0 -113 -23 -201.5t-61 -144.5t-90.5 -92.5t-107.5 -51.5t-117 -15q-89 0 -158.5 25t-125.5 81t-86 157t-30 242zM211 489q0 -219 71 -318t220 -99t220 99t71 318q0 220 -71 319t-220 99t-220 -99 t-71 -319zM291 1294v113h24l359 -186v-70h-25z" />
<glyph unicode="&#xf3;" horiz-adv-x="1003" d="M102 489q0 113 23 201.5t61 145t91 93t108 51.5t117 15q399 0 399 -506q0 -113 -23 -201.5t-61 -144.5t-90.5 -92.5t-107.5 -51.5t-117 -15q-89 0 -158.5 25t-125.5 81t-86 157t-30 242zM211 489q0 -219 71 -318t220 -99t220 99t71 318q0 220 -71 319t-220 99t-220 -99 t-71 -319zM311 1151v70l359 186h24v-113l-358 -143h-25z" />
<glyph unicode="&#xf4;" horiz-adv-x="1003" d="M102 489q0 113 23 201.5t61 145t91 93t108 51.5t117 15q399 0 399 -506q0 -113 -23 -201.5t-61 -144.5t-90.5 -92.5t-107.5 -51.5t-117 -15q-89 0 -158.5 25t-125.5 81t-86 157t-30 242zM211 489q0 -219 71 -318t220 -99t220 99t71 318q0 220 -71 319t-220 99t-220 -99 t-71 -319zM256 1151v78l227 172h37l228 -172v-78h-29l-217 158l-217 -158h-29z" />
<glyph unicode="&#xf5;" horiz-adv-x="1003" d="M102 489q0 113 23 201.5t61 145t91 93t108 51.5t117 15q399 0 399 -506q0 -113 -23 -201.5t-61 -144.5t-90.5 -92.5t-107.5 -51.5t-117 -15q-89 0 -158.5 25t-125.5 81t-86 157t-30 242zM211 489q0 -219 71 -318t220 -99t220 99t71 318q0 220 -71 319t-220 99t-220 -99 t-71 -319zM266 1221q46 137 144 137q37 0 109 -29t104 -29q59 0 92 70l63 -27q-24 -67 -59.5 -101t-89.5 -34q-40 0 -117.5 30t-95.5 30q-50 0 -82 -72z" />
<glyph unicode="&#xf6;" horiz-adv-x="1003" d="M102 489q0 113 23 201.5t61 145t91 93t108 51.5t117 15q399 0 399 -506q0 -113 -23 -201.5t-61 -144.5t-90.5 -92.5t-107.5 -51.5t-117 -15q-89 0 -158.5 25t-125.5 81t-86 157t-30 242zM211 489q0 -219 71 -318t220 -99t220 99t71 318q0 220 -71 319t-220 99t-220 -99 t-71 -319zM285 1266q0 77 73 77q76 0 76 -77q0 -78 -76 -78q-73 0 -73 78zM569 1266q0 77 74 77q76 0 76 -77q0 -78 -76 -78q-74 0 -74 78z" />
<glyph unicode="&#xf7;" horiz-adv-x="1189" d="M135 496v92h920v-92h-920zM514 184q0 86 82 86q84 0 84 -86t-84 -86q-82 0 -82 86zM514 899q0 86 82 86q84 0 84 -86t-84 -86q-82 0 -82 86z" />
<glyph unicode="&#xf8;" horiz-adv-x="1003" d="M102 489q0 113 23 201.5t61 145t91 93t108 51.5t117 15q126 0 209 -49l75 135h80v-18l-92 -164q127 -124 127 -410q0 -113 -23 -201.5t-61 -144.5t-90.5 -92.5t-107.5 -51.5t-117 -15q-130 0 -215 49l-76 -135h-78v18l92 166q-123 123 -123 407zM211 489q0 -210 68 -313 l385 688q-64 43 -162 43q-149 0 -220 -99t-71 -319zM334 117q65 -45 168 -45q149 0 220 99t71 318q0 214 -72 318z" />
<glyph unicode="&#xf9;" horiz-adv-x="1062" d="M184 317v662h103v-645q0 -151 49.5 -207.5t157.5 -56.5q89 0 160 69.5t112 179.5v660h102v-991h-90l-8 192q-55 -102 -120.5 -149t-176.5 -47q-149 0 -219 80.5t-70 252.5zM272 1294v113h25l358 -186v-70h-24z" />
<glyph unicode="&#xfa;" horiz-adv-x="1062" d="M184 317v662h103v-645q0 -151 49.5 -207.5t157.5 -56.5q89 0 160 69.5t112 179.5v660h102v-991h-90l-8 192q-55 -102 -120.5 -149t-176.5 -47q-149 0 -219 80.5t-70 252.5zM397 1151v70l359 186h24v-113l-358 -143h-25z" />
<glyph unicode="&#xfb;" horiz-adv-x="1062" d="M184 317v662h103v-645q0 -151 49.5 -207.5t157.5 -56.5q89 0 160 69.5t112 179.5v660h102v-991h-90l-8 192q-55 -102 -120.5 -149t-176.5 -47q-149 0 -219 80.5t-70 252.5zM270 1151v78l228 172h37l227 -172v-78h-29l-217 158l-217 -158h-29z" />
<glyph unicode="&#xfc;" horiz-adv-x="1062" d="M184 317v662h103v-645q0 -151 49.5 -207.5t157.5 -56.5q89 0 160 69.5t112 179.5v660h102v-991h-90l-8 192q-55 -102 -120.5 -149t-176.5 -47q-149 0 -219 80.5t-70 252.5zM303 1266q0 77 74 77q76 0 76 -77q0 -78 -76 -78q-74 0 -74 78zM588 1266q0 77 74 77 q75 0 75 -77q0 -78 -75 -78q-74 0 -74 78z" />
<glyph unicode="&#xfd;" horiz-adv-x="866" d="M35 963v16h104l320 -834l248 834h100v-16l-348 -1123q-20 -64 -35 -100t-39 -67.5t-57.5 -44.5t-81.5 -13q-72 0 -133 25l22 86q65 -21 109 -21q37 0 64 26.5t46 90.5l54 172zM279 1151v70l358 186h25v-113l-359 -143h-24z" />
<glyph unicode="&#xfe;" horiz-adv-x="1046" d="M195 -369v1805l102 4v-580q45 64 113.5 99.5t152.5 35.5q89 0 155 -23.5t119 -79t80 -155t27 -243.5q0 -246 -107 -378t-315 -132q-143 0 -225 63v-416h-102zM297 150q40 -37 102 -57.5t127 -20.5q167 0 237.5 102.5t70.5 310.5q0 222 -65 321t-220 99q-76 0 -142.5 -43 t-109.5 -112v-600z" />
<glyph unicode="&#xff;" horiz-adv-x="866" d="M35 963v16h104l320 -834l248 834h100v-16l-348 -1123q-20 -64 -35 -100t-39 -67.5t-57.5 -44.5t-81.5 -13q-72 0 -133 25l22 86q65 -21 109 -21q37 0 64 26.5t46 90.5l54 172zM225 1266q0 77 74 77q76 0 76 -77q0 -78 -76 -78q-74 0 -74 78zM510 1266q0 77 74 77 q75 0 75 -77q0 -78 -75 -78q-74 0 -74 78z" />
<glyph unicode="&#x152;" horiz-adv-x="1746" d="M127 659q0 150 26 267.5t70.5 194.5t108.5 127t136.5 71.5t158.5 21.5q163 0 239 -18h787v-98h-654v-494h471v-98h-471v-535h674v-98h-760q-81 -18 -286 -18q-87 0 -160 21t-137 70.5t-108 126.5t-69.5 193.5t-25.5 265.5zM242 659q0 -581 385 -581q189 0 266 26v1115 q-88 26 -266 26q-196 0 -290.5 -139t-94.5 -447z" />
<glyph unicode="&#x153;" horiz-adv-x="1628" d="M102 489q0 113 23 201.5t61 145t91 93t108 51.5t117 15q66 0 110 -10q169 -37 240 -203q96 213 346 213q160 0 234.5 -98t74.5 -266q0 -8 -1 -30.5t-1 -35.5l-4 -67h-600q0 -220 73 -320t245 -100q58 0 107.5 18t77.5 37.5t66 54.5l52 -59q-124 -145 -320 -145 q-265 0 -356 211q-74 -161 -246 -201q-41 -10 -98 -10q-89 0 -158.5 25t-125.5 81t-86 157t-30 242zM211 489q0 -219 71 -318t220 -99t220 99t71 318q0 220 -71 319t-220 99t-220 -99t-71 -319zM905 586h500v49q0 134 -51 204t-166 70q-129 0 -200.5 -82t-82.5 -241z" />
<glyph unicode="&#x178;" horiz-adv-x="1028" d="M31 1305v18h108l377 -676l365 676h106v-18l-422 -770v-535h-106v535zM285 1550q0 40 21 59t54 19q34 0 56 -19t22 -59q0 -39 -22 -57t-56 -18t-54.5 18t-20.5 57zM580 1550q0 40 21 59t54 19q34 0 56 -19t22 -59q0 -39 -22 -57t-56 -18t-54.5 18t-20.5 57z" />
<glyph unicode="&#x2c6;" horiz-adv-x="886" d="M195 1151v78l227 172h37l227 -172v-78h-29l-217 158l-217 -158h-28z" />
<glyph unicode="&#x2dc;" horiz-adv-x="858" d="M180 1221q46 137 144 137q37 0 109 -29t104 -29q59 0 92 70l63 -27q-24 -67 -59.5 -101t-89.5 -34q-40 0 -117.5 30t-95.5 30q-50 0 -82 -72z" />
<glyph unicode="&#x2000;" horiz-adv-x="878" />
<glyph unicode="&#x2001;" horiz-adv-x="1757" />
<glyph unicode="&#x2002;" horiz-adv-x="878" />
<glyph unicode="&#x2003;" horiz-adv-x="1757" />
<glyph unicode="&#x2004;" horiz-adv-x="585" />
<glyph unicode="&#x2005;" horiz-adv-x="439" />
<glyph unicode="&#x2006;" horiz-adv-x="292" />
<glyph unicode="&#x2007;" horiz-adv-x="292" />
<glyph unicode="&#x2008;" horiz-adv-x="219" />
<glyph unicode="&#x2009;" horiz-adv-x="351" />
<glyph unicode="&#x200a;" horiz-adv-x="97" />
<glyph unicode="&#x2010;" horiz-adv-x="587" d="M102 467v88h383v-88h-383z" />
<glyph unicode="&#x2011;" horiz-adv-x="587" d="M102 467v88h383v-88h-383z" />
<glyph unicode="&#x2012;" horiz-adv-x="587" d="M102 467v88h383v-88h-383z" />
<glyph unicode="&#x2013;" horiz-adv-x="1064" d="M102 467v88h861v-88h-861z" />
<glyph unicode="&#x2014;" horiz-adv-x="2088" d="M102 467v88h1885v-88h-1885z" />
<glyph unicode="&#x2018;" horiz-adv-x="348" d="M72 1153q0 59 21.5 110.5t54.5 86t67 57t66 31.5l30 -60q-141 -83 -141 -186v-27h18q41 0 62.5 -15.5t21.5 -64.5q0 -47 -22 -64t-62 -17q-116 0 -116 149z" />
<glyph unicode="&#x2019;" horiz-adv-x="348" d="M37 1051q141 83 141 186v27h-18q-41 0 -62.5 15t-21.5 64q0 47 22 64.5t62 17.5q116 0 116 -149q0 -59 -21 -110.5t-54 -86t-67 -57t-66 -31.5z" />
<glyph unicode="&#x201a;" horiz-adv-x="442" d="M68 -209q141 83 141 186v27h-19q-41 0 -62.5 15.5t-21.5 64.5q0 47 22 64.5t62 17.5q117 0 117 -150q0 -59 -21 -110.5t-54.5 -86t-67.5 -56.5t-66 -31z" />
<glyph unicode="&#x201c;" horiz-adv-x="634" d="M72 1153q0 59 21.5 110.5t54.5 86t67 57t66 31.5l30 -60q-141 -83 -141 -186v-27h18q41 0 62.5 -15.5t21.5 -64.5q0 -47 -22 -64t-62 -17q-116 0 -116 149zM358 1153q0 59 21.5 110.5t54.5 86t67 57t66 31.5l31 -60q-141 -83 -141 -186v-27h18q41 0 62.5 -15.5 t21.5 -64.5q0 -47 -22 -64t-62 -17q-117 0 -117 149z" />
<glyph unicode="&#x201d;" horiz-adv-x="634" d="M37 1063q141 83 141 186v27h-18q-41 0 -62.5 15.5t-21.5 64.5q0 47 22 64.5t62 17.5q116 0 116 -150q0 -59 -21 -110.5t-54 -86t-67 -56.5t-66 -31zM324 1063q141 83 141 186v27h-19q-41 0 -62.5 15.5t-21.5 64.5q0 47 22 64.5t62 17.5q117 0 117 -150q0 -59 -21 -110.5 t-54.5 -86t-67.5 -56.5t-66 -31z" />
<glyph unicode="&#x201e;" horiz-adv-x="673" d="M63 -209q142 83 142 186v27h-19q-41 0 -62.5 15.5t-21.5 64.5q0 47 22 64.5t62 17.5q117 0 117 -150q0 -59 -21 -110.5t-54.5 -86t-67.5 -56.5t-66 -31zM330 -209q141 83 141 186v27h-18q-41 0 -62.5 15.5t-21.5 64.5q0 47 22 64.5t62 17.5q116 0 116 -150 q0 -59 -21 -110.5t-54.5 -86t-67.5 -56.5t-66 -31z" />
<glyph unicode="&#x2022;" horiz-adv-x="757" d="M184 694q0 101 55 148t140 47q84 0 139 -47t55 -148q0 -99 -55.5 -146.5t-138.5 -47.5q-84 0 -139.5 47.5t-55.5 146.5z" />
<glyph unicode="&#x2026;" horiz-adv-x="1280" d="M143 70q0 46 24 67t62 21q39 0 63.5 -21t24.5 -67q0 -44 -24.5 -65t-63.5 -21q-37 0 -61.5 21t-24.5 65zM553 70q0 46 24 67t62 21q39 0 63.5 -21t24.5 -67q0 -44 -24.5 -65t-63.5 -21q-37 0 -61.5 21t-24.5 65zM963 70q0 46 24 67t62 21q39 0 63.5 -21t24.5 -67 q0 -44 -24.5 -65t-63.5 -21q-37 0 -61.5 21t-24.5 65z" />
<glyph unicode="&#x202f;" horiz-adv-x="351" />
<glyph unicode="&#x2039;" horiz-adv-x="501" d="M113 467v45l204 313h82v-20l-194 -311v-9l194 -311v-20h-82z" />
<glyph unicode="&#x203a;" horiz-adv-x="501" d="M102 154v20l195 311v9l-195 311v20h82l205 -313v-45l-205 -313h-82z" />
<glyph unicode="&#x205f;" horiz-adv-x="439" />
<glyph unicode="&#x20ac;" horiz-adv-x="1105" d="M78 516l6 88h135v58q0 46 2 71h-129l6 88h129q15 136 58 237.5t108 162t144.5 89.5t175.5 29q168 0 303 -94l-41 -92q-141 88 -260 88q-161 0 -255 -97.5t-118 -322.5h446l-6 -88h-446v-71v-58h440l-6 -88h-428q23 -225 116.5 -329.5t252.5 -104.5q85 0 148 23t136 77 l47 -78q-129 -120 -335 -120q-201 0 -327.5 128.5t-154.5 403.5h-147z" />
<glyph unicode="&#x2122;" horiz-adv-x="1216" d="M82 1255v66h364v-66h-145v-462h-76v462h-143zM567 793v528h111l137 -340l137 340h101v-528h-74v430l-143 -359h-52l-143 359v-430h-74z" />
<glyph unicode="&#x25fc;" horiz-adv-x="983" d="M0 0v983h983v-983h-983z" />
</font>
</defs>
</svg>
